%TF.GenerationSoftware,KiCad,Pcbnew,8.0.6-8.0.6-0~ubuntu24.04.1*%
%TF.CreationDate,2024-10-21T11:40:19+11:00*%
%TF.ProjectId,PCB-Receiver,5043422d-5265-4636-9569-7665722e6b69,rev?*%
%TF.SameCoordinates,Original*%
%TF.FileFunction,Legend,Top*%
%TF.FilePolarity,Positive*%
%FSLAX46Y46*%
G04 Gerber Fmt 4.6, Leading zero omitted, Abs format (unit mm)*
G04 Created by KiCad (PCBNEW 8.0.6-8.0.6-0~ubuntu24.04.1) date 2024-10-21 11:40:19*
%MOMM*%
%LPD*%
G01*
G04 APERTURE LIST*
G04 Aperture macros list*
%AMRoundRect*
0 Rectangle with rounded corners*
0 $1 Rounding radius*
0 $2 $3 $4 $5 $6 $7 $8 $9 X,Y pos of 4 corners*
0 Add a 4 corners polygon primitive as box body*
4,1,4,$2,$3,$4,$5,$6,$7,$8,$9,$2,$3,0*
0 Add four circle primitives for the rounded corners*
1,1,$1+$1,$2,$3*
1,1,$1+$1,$4,$5*
1,1,$1+$1,$6,$7*
1,1,$1+$1,$8,$9*
0 Add four rect primitives between the rounded corners*
20,1,$1+$1,$2,$3,$4,$5,0*
20,1,$1+$1,$4,$5,$6,$7,0*
20,1,$1+$1,$6,$7,$8,$9,0*
20,1,$1+$1,$8,$9,$2,$3,0*%
G04 Aperture macros list end*
%ADD10C,0.120000*%
%ADD11C,0.000000*%
%ADD12RoundRect,0.250000X-0.475000X0.250000X-0.475000X-0.250000X0.475000X-0.250000X0.475000X0.250000X0*%
%ADD13RoundRect,0.250000X0.475000X-0.250000X0.475000X0.250000X-0.475000X0.250000X-0.475000X-0.250000X0*%
%ADD14R,2.600000X2.600000*%
%ADD15C,2.600000*%
%ADD16RoundRect,0.150000X0.150000X-0.587500X0.150000X0.587500X-0.150000X0.587500X-0.150000X-0.587500X0*%
%ADD17RoundRect,0.200000X0.200000X0.275000X-0.200000X0.275000X-0.200000X-0.275000X0.200000X-0.275000X0*%
%ADD18RoundRect,0.250000X1.000000X0.650000X-1.000000X0.650000X-1.000000X-0.650000X1.000000X-0.650000X0*%
%ADD19O,2.300000X1.500000*%
%ADD20R,2.300000X1.500000*%
%ADD21RoundRect,0.200000X-0.200000X-0.275000X0.200000X-0.275000X0.200000X0.275000X-0.200000X0.275000X0*%
%ADD22R,1.300000X1.550000*%
%ADD23RoundRect,0.243750X0.243750X0.456250X-0.243750X0.456250X-0.243750X-0.456250X0.243750X-0.456250X0*%
G04 APERTURE END LIST*
D10*
%TO.C,C2*%
X89735000Y-70238748D02*
X89735000Y-70761252D01*
X88265000Y-70238748D02*
X88265000Y-70761252D01*
%TO.C,C1*%
X88265000Y-75261252D02*
X88265000Y-74738748D01*
X89735000Y-75261252D02*
X89735000Y-74738748D01*
D11*
%TO.C,kibuzzard-67159C59*%
G36*
X84602989Y-31441135D02*
G01*
X84628433Y-31585622D01*
X84659027Y-31741922D01*
X84692649Y-31903069D01*
X84728998Y-32065428D01*
X84767771Y-32225363D01*
X84807452Y-32375909D01*
X84846527Y-32510097D01*
X84885299Y-32377726D01*
X84924071Y-32227787D01*
X84961632Y-32067851D01*
X84996769Y-31905493D01*
X85029483Y-31744043D01*
X85059774Y-31586834D01*
X85086430Y-31441438D01*
X85108239Y-31315428D01*
X85420840Y-31315428D01*
X85388429Y-31469305D01*
X85349354Y-31640145D01*
X85303918Y-31824011D01*
X85252423Y-32016963D01*
X85214863Y-32149435D01*
X85174879Y-32283522D01*
X85132472Y-32419225D01*
X85088314Y-32554254D01*
X85043080Y-32686322D01*
X84996769Y-32815428D01*
X84689015Y-32815428D01*
X84629039Y-32637318D01*
X84565428Y-32437399D01*
X84522617Y-32296984D01*
X84481422Y-32156839D01*
X84441842Y-32016963D01*
X84404416Y-31879779D01*
X84369682Y-31747711D01*
X84337641Y-31620759D01*
X84297658Y-31451131D01*
X84269790Y-31315428D01*
X84584814Y-31315428D01*
X84602989Y-31441135D01*
G37*
G36*
X86150242Y-32381664D02*
G01*
X86187803Y-32533118D01*
X86312601Y-32582795D01*
X86411955Y-32571890D01*
X86542811Y-32527060D01*
X86581583Y-32766963D01*
X86408320Y-32826333D01*
X86259289Y-32842084D01*
X86152363Y-32833603D01*
X86064216Y-32808158D01*
X85938207Y-32710016D01*
X85871567Y-32553716D01*
X85857027Y-32454968D01*
X85852181Y-32342892D01*
X85852181Y-31923667D01*
X85537157Y-31923667D01*
X85537157Y-31676494D01*
X86150242Y-31676494D01*
X86150242Y-32381664D01*
G37*
G36*
X87391559Y-31661652D02*
G01*
X87492730Y-31689822D01*
X87634491Y-31796446D01*
X87708401Y-31961228D01*
X87724758Y-32062096D01*
X87730210Y-32173263D01*
X87730210Y-32815428D01*
X87432149Y-32815428D01*
X87432149Y-32212036D01*
X87423061Y-32074515D01*
X87395800Y-31981826D01*
X87247981Y-31911551D01*
X87181341Y-31913974D01*
X87112278Y-31921244D01*
X87112278Y-32815428D01*
X86814216Y-32815428D01*
X86814216Y-31712843D01*
X86903574Y-31691640D01*
X87011712Y-31671648D01*
X87134390Y-31657108D01*
X87267367Y-31652262D01*
X87391559Y-31661652D01*
G37*
G36*
X86082391Y-31208805D02*
G01*
X86138126Y-31349354D01*
X86082391Y-31487480D01*
X85949111Y-31538368D01*
X85817044Y-31487480D01*
X85762520Y-31349354D01*
X85817044Y-31208805D01*
X85949111Y-31157916D01*
X86082391Y-31208805D01*
G37*
%TO.C,kibuzzard-67159C53*%
G36*
X85813409Y-51705271D02*
G01*
X85881260Y-51825525D01*
X85948203Y-51950020D01*
X86013328Y-52073910D01*
X86075121Y-52195679D01*
X86132068Y-52313813D01*
X86182653Y-52422860D01*
X86225363Y-52517367D01*
X86225363Y-51594104D01*
X86494346Y-51594104D01*
X86494346Y-53094104D01*
X86254443Y-53094104D01*
X86184572Y-52927841D01*
X86110662Y-52761847D01*
X86032714Y-52596123D01*
X85950727Y-52430399D01*
X85864701Y-52264405D01*
X85774637Y-52098142D01*
X85774637Y-53094104D01*
X85505654Y-53094104D01*
X85505654Y-51594104D01*
X85745557Y-51594104D01*
X85813409Y-51705271D01*
G37*
G36*
X87236773Y-51588045D02*
G01*
X87365509Y-51620760D01*
X87478494Y-51676797D01*
X87572698Y-51757674D01*
X87648122Y-51863692D01*
X87704766Y-51995154D01*
X87740206Y-52154180D01*
X87752019Y-52342892D01*
X87738994Y-52535844D01*
X87699919Y-52697900D01*
X87637823Y-52830877D01*
X87555735Y-52936592D01*
X87454867Y-53016256D01*
X87336430Y-53071083D01*
X87202847Y-53102888D01*
X87061389Y-53113139D01*
X87056543Y-53113490D01*
X86900242Y-53105008D01*
X86736672Y-53077141D01*
X86736672Y-51843700D01*
X87034733Y-51843700D01*
X87034733Y-52851777D01*
X87061389Y-52854201D01*
X87088045Y-52854201D01*
X87258885Y-52815428D01*
X87370355Y-52708805D01*
X87430937Y-52547658D01*
X87444568Y-52449818D01*
X87449111Y-52342892D01*
X87434572Y-52153877D01*
X87383683Y-51991519D01*
X87284330Y-51878837D01*
X87121971Y-51836430D01*
X87078352Y-51837642D01*
X87034733Y-51843700D01*
X86736672Y-51843700D01*
X86736672Y-51613490D01*
X86928110Y-51584411D01*
X87095315Y-51577141D01*
X87236773Y-51588045D01*
G37*
G36*
X85053716Y-51573506D02*
G01*
X85173667Y-51603797D01*
X85257270Y-51640146D01*
X85306947Y-51669225D01*
X85229402Y-51906705D01*
X85098546Y-51846123D01*
X84938611Y-51819467D01*
X84759289Y-51858239D01*
X84639338Y-51966075D01*
X84571486Y-52130856D01*
X84556038Y-52231725D01*
X84550889Y-52342892D01*
X84560312Y-52506462D01*
X84588584Y-52638530D01*
X84635703Y-52739096D01*
X84740509Y-52834512D01*
X84885299Y-52866317D01*
X84943457Y-52863894D01*
X85001616Y-52856624D01*
X85001616Y-52308966D01*
X85299677Y-52308966D01*
X85299677Y-53057755D01*
X85133683Y-53101373D01*
X85009188Y-53119548D01*
X84861066Y-53125606D01*
X84727484Y-53113187D01*
X84607835Y-53075929D01*
X84503332Y-53014136D01*
X84415186Y-52928110D01*
X84344305Y-52817852D01*
X84291599Y-52683360D01*
X84258885Y-52524940D01*
X84247981Y-52342892D01*
X84260703Y-52162662D01*
X84298869Y-52004847D01*
X84358845Y-51870053D01*
X84436995Y-51758886D01*
X84532108Y-51671951D01*
X84642973Y-51609855D01*
X84765953Y-51572597D01*
X84897415Y-51560178D01*
X85053716Y-51573506D01*
G37*
%TO.C,kibuzzard-67159C4B*%
G36*
X84213752Y-46236672D02*
G01*
X84342488Y-46269386D01*
X84455473Y-46325424D01*
X84549677Y-46406300D01*
X84625101Y-46512318D01*
X84681745Y-46643780D01*
X84717185Y-46802807D01*
X84728998Y-46991519D01*
X84715973Y-47184471D01*
X84676898Y-47346527D01*
X84614802Y-47479503D01*
X84532714Y-47585218D01*
X84431846Y-47664883D01*
X84313409Y-47719709D01*
X84179826Y-47751515D01*
X84038368Y-47761765D01*
X84033522Y-47762116D01*
X83877221Y-47753635D01*
X83713651Y-47725767D01*
X83713651Y-46492326D01*
X84011712Y-46492326D01*
X84011712Y-47500404D01*
X84038368Y-47502827D01*
X84065024Y-47502827D01*
X84235864Y-47464055D01*
X84347334Y-47357431D01*
X84407916Y-47196284D01*
X84421547Y-47098445D01*
X84426090Y-46991519D01*
X84411551Y-46802504D01*
X84360662Y-46640145D01*
X84261309Y-46527464D01*
X84098950Y-46485057D01*
X84055331Y-46486268D01*
X84011712Y-46492326D01*
X83713651Y-46492326D01*
X83713651Y-46262116D01*
X83905089Y-46233037D01*
X84072294Y-46225767D01*
X84213752Y-46236672D01*
G37*
G36*
X86293753Y-46743269D02*
G01*
X86300619Y-46880587D01*
X86307754Y-47015751D01*
X86317044Y-47151185D01*
X86330372Y-47289311D01*
X86347738Y-47430129D01*
X86402262Y-47259289D01*
X86443457Y-47109047D01*
X86477383Y-46970921D01*
X86510097Y-46834006D01*
X86725767Y-46834006D01*
X86756058Y-46970921D01*
X86789984Y-47109047D01*
X86828756Y-47259289D01*
X86878433Y-47430129D01*
X86891761Y-47321082D01*
X86902666Y-47216882D01*
X86911450Y-47115408D01*
X86918417Y-47014540D01*
X86928110Y-46813409D01*
X86932048Y-46710723D01*
X86936591Y-46603796D01*
X87191034Y-46603796D01*
X87176419Y-46767367D01*
X87159229Y-46926090D01*
X87139464Y-47079968D01*
X87117124Y-47228998D01*
X87084410Y-47416397D01*
X87049273Y-47587641D01*
X87011712Y-47742730D01*
X86786349Y-47742730D01*
X86736672Y-47604604D01*
X86693053Y-47482229D01*
X86651858Y-47358643D01*
X86609451Y-47216882D01*
X86565832Y-47356220D01*
X86525848Y-47478595D01*
X86483441Y-47602181D01*
X86430129Y-47742730D01*
X86204766Y-47742730D01*
X86176595Y-47630351D01*
X86150242Y-47506462D01*
X86125707Y-47372577D01*
X86102989Y-47230210D01*
X86082391Y-47080876D01*
X86064216Y-46926090D01*
X86047859Y-46766761D01*
X86032714Y-46603796D01*
X86287157Y-46603796D01*
X86293753Y-46743269D01*
G37*
G36*
X85516256Y-46585319D02*
G01*
X85619548Y-46617124D01*
X85711026Y-46668619D01*
X85789176Y-46738288D01*
X85852484Y-46824919D01*
X85899435Y-46927302D01*
X85928514Y-47043316D01*
X85938207Y-47170840D01*
X85928514Y-47300182D01*
X85899435Y-47416801D01*
X85852787Y-47519487D01*
X85790388Y-47607027D01*
X85713146Y-47677908D01*
X85621971Y-47730614D01*
X85518074Y-47763328D01*
X85402666Y-47774233D01*
X85397819Y-47773775D01*
X85287258Y-47763328D01*
X85183360Y-47730614D01*
X85091882Y-47677908D01*
X85013732Y-47607027D01*
X84950424Y-47519487D01*
X84903473Y-47416801D01*
X84874394Y-47300182D01*
X84864883Y-47173263D01*
X85167609Y-47173263D01*
X85181240Y-47311389D01*
X85222132Y-47420436D01*
X85293316Y-47491317D01*
X85397819Y-47514943D01*
X85499899Y-47491317D01*
X85573506Y-47420436D01*
X85618033Y-47311389D01*
X85632876Y-47173263D01*
X85619245Y-47035440D01*
X85578352Y-46927302D01*
X85507169Y-46857330D01*
X85402666Y-46834006D01*
X85300586Y-46857330D01*
X85226979Y-46927302D01*
X85182452Y-47035440D01*
X85167609Y-47173263D01*
X84864883Y-47173263D01*
X84864701Y-47170840D01*
X84874697Y-47043316D01*
X84904685Y-46927302D01*
X84952544Y-46824919D01*
X85016155Y-46738288D01*
X85094608Y-46668619D01*
X85186995Y-46617124D01*
X85290590Y-46585319D01*
X85402666Y-46574717D01*
X85516256Y-46585319D01*
G37*
G36*
X87947698Y-46588954D02*
G01*
X88048869Y-46617124D01*
X88190630Y-46723748D01*
X88264540Y-46888530D01*
X88280897Y-46989398D01*
X88286349Y-47100565D01*
X88286349Y-47742730D01*
X87988288Y-47742730D01*
X87988288Y-47139338D01*
X87979200Y-47001817D01*
X87951939Y-46909128D01*
X87804120Y-46838853D01*
X87737480Y-46841276D01*
X87668417Y-46848546D01*
X87668417Y-47742730D01*
X87370355Y-47742730D01*
X87370355Y-46640145D01*
X87459713Y-46618942D01*
X87567851Y-46598950D01*
X87690529Y-46584410D01*
X87823506Y-46579564D01*
X87947698Y-46588954D01*
G37*
%TO.C,kibuzzard-67159C44*%
G36*
X84265852Y-41211834D02*
G01*
X84377625Y-41235460D01*
X84550889Y-41305735D01*
X84463651Y-41535945D01*
X84329160Y-41477787D01*
X84158320Y-41453554D01*
X84026387Y-41472671D01*
X83947227Y-41530021D01*
X83920840Y-41625606D01*
X83945073Y-41701939D01*
X84006866Y-41760097D01*
X84091680Y-41804927D01*
X84184976Y-41841276D01*
X84331583Y-41900646D01*
X84472133Y-41987884D01*
X84577545Y-42123586D01*
X84608441Y-42215367D01*
X84618740Y-42328352D01*
X84584512Y-42515246D01*
X84481826Y-42654281D01*
X84374798Y-42718228D01*
X84236268Y-42756597D01*
X84066236Y-42769386D01*
X83898425Y-42759390D01*
X83768175Y-42729402D01*
X83600970Y-42655493D01*
X83688207Y-42413166D01*
X83844507Y-42485864D01*
X83945376Y-42511308D01*
X84066236Y-42519790D01*
X84191034Y-42504039D01*
X84269790Y-42460420D01*
X84309774Y-42397415D01*
X84320679Y-42325929D01*
X84294023Y-42243538D01*
X84226171Y-42179321D01*
X84134087Y-42128433D01*
X84032310Y-42086026D01*
X83891761Y-42030291D01*
X83759693Y-41950323D01*
X83661551Y-41830372D01*
X83622779Y-41652262D01*
X83657007Y-41464459D01*
X83759693Y-41322698D01*
X83862413Y-41256731D01*
X83988019Y-41217151D01*
X84136511Y-41203958D01*
X84265852Y-41211834D01*
G37*
G36*
X87892569Y-41592488D02*
G01*
X88027464Y-41645800D01*
X88134895Y-41734653D01*
X88212978Y-41853931D01*
X88259828Y-41998519D01*
X88275444Y-42168417D01*
X88268175Y-42294124D01*
X88246365Y-42409531D01*
X88210622Y-42511914D01*
X88161551Y-42598546D01*
X88021002Y-42720921D01*
X87929524Y-42753635D01*
X87824718Y-42764540D01*
X87764136Y-42757244D01*
X87709007Y-42750606D01*
X87589661Y-42708804D01*
X87589661Y-43137722D01*
X87291600Y-43137722D01*
X87291600Y-41838853D01*
X87589661Y-41838853D01*
X87589661Y-42464055D01*
X87667205Y-42495557D01*
X87764136Y-42507674D01*
X87856826Y-42486167D01*
X87921648Y-42421648D01*
X87959814Y-42317750D01*
X87972537Y-42178110D01*
X87957391Y-42039075D01*
X87911955Y-41927302D01*
X87835622Y-41853695D01*
X87727787Y-41829160D01*
X87655089Y-41832795D01*
X87589661Y-41838853D01*
X87291600Y-41838853D01*
X87291600Y-41635299D01*
X87383381Y-41611066D01*
X87493942Y-41591680D01*
X87612985Y-41578958D01*
X87730210Y-41574717D01*
X87892569Y-41592488D01*
G37*
G36*
X85360259Y-41598950D02*
G01*
X85837642Y-41598950D01*
X85837642Y-41846123D01*
X85360259Y-41846123D01*
X85360259Y-42306543D01*
X85372375Y-42408320D01*
X85406301Y-42468901D01*
X85459612Y-42497981D01*
X85529887Y-42505250D01*
X85606220Y-42502827D01*
X85674071Y-42494346D01*
X85741923Y-42476171D01*
X85818255Y-42444669D01*
X85859451Y-42701535D01*
X85681341Y-42750000D01*
X85495961Y-42764540D01*
X85311793Y-42747577D01*
X85176091Y-42682149D01*
X85091276Y-42545234D01*
X85069467Y-42443154D01*
X85062197Y-42313813D01*
X85062197Y-41846123D01*
X84802908Y-41846123D01*
X84802908Y-41598950D01*
X85062197Y-41598950D01*
X85062197Y-41313005D01*
X85360259Y-41264540D01*
X85360259Y-41598950D01*
G37*
G36*
X86649132Y-41580472D02*
G01*
X86752423Y-41612278D01*
X86843902Y-41663772D01*
X86922052Y-41733441D01*
X86985360Y-41820073D01*
X87032310Y-41922456D01*
X87061390Y-42038469D01*
X87071083Y-42165993D01*
X87061390Y-42295335D01*
X87032310Y-42411955D01*
X86985663Y-42514640D01*
X86923264Y-42602181D01*
X86846022Y-42673061D01*
X86754847Y-42725767D01*
X86650949Y-42758481D01*
X86535541Y-42769386D01*
X86530695Y-42768928D01*
X86420133Y-42758481D01*
X86316236Y-42725767D01*
X86224758Y-42673061D01*
X86146608Y-42602181D01*
X86083300Y-42514640D01*
X86036349Y-42411955D01*
X86007270Y-42295335D01*
X85997759Y-42168417D01*
X86300485Y-42168417D01*
X86314116Y-42306543D01*
X86355008Y-42415590D01*
X86426192Y-42486470D01*
X86530695Y-42510097D01*
X86632775Y-42486470D01*
X86706381Y-42415590D01*
X86750909Y-42306543D01*
X86765751Y-42168417D01*
X86752121Y-42030594D01*
X86711228Y-41922456D01*
X86640045Y-41852484D01*
X86535541Y-41829160D01*
X86433461Y-41852484D01*
X86359855Y-41922456D01*
X86315327Y-42030594D01*
X86300485Y-42168417D01*
X85997759Y-42168417D01*
X85997577Y-42165993D01*
X86007573Y-42038469D01*
X86037561Y-41922456D01*
X86085420Y-41820073D01*
X86149031Y-41733441D01*
X86227484Y-41663772D01*
X86319871Y-41612278D01*
X86423465Y-41580472D01*
X86535541Y-41569871D01*
X86649132Y-41580472D01*
G37*
%TO.C,kibuzzard-67159C39*%
G36*
X86741519Y-36570678D02*
G01*
X86876414Y-36623990D01*
X86983845Y-36712843D01*
X87061928Y-36832121D01*
X87108778Y-36976709D01*
X87124394Y-37146607D01*
X87117125Y-37272314D01*
X87095315Y-37387722D01*
X87059572Y-37490104D01*
X87010501Y-37576736D01*
X86869952Y-37699111D01*
X86778474Y-37731825D01*
X86673667Y-37742730D01*
X86613086Y-37735435D01*
X86557957Y-37728796D01*
X86438611Y-37686995D01*
X86438611Y-38115912D01*
X86140550Y-38115912D01*
X86140550Y-36817043D01*
X86438611Y-36817043D01*
X86438611Y-37442245D01*
X86516155Y-37473747D01*
X86613086Y-37485864D01*
X86705776Y-37464357D01*
X86770598Y-37399838D01*
X86808764Y-37295940D01*
X86821487Y-37156300D01*
X86806341Y-37017265D01*
X86760905Y-36905492D01*
X86684572Y-36831886D01*
X86576737Y-36807350D01*
X86504039Y-36810985D01*
X86438611Y-36817043D01*
X86140550Y-36817043D01*
X86140550Y-36613489D01*
X86232331Y-36589256D01*
X86342892Y-36569870D01*
X86461935Y-36557148D01*
X86579160Y-36552907D01*
X86741519Y-36570678D01*
G37*
G36*
X85171244Y-37153877D02*
G01*
X85180937Y-37312600D01*
X85213651Y-37415589D01*
X85277868Y-37471324D01*
X85382068Y-37488287D01*
X85486268Y-37471324D01*
X85551697Y-37414377D01*
X85585622Y-37310177D01*
X85595315Y-37151453D01*
X85595315Y-36216074D01*
X85893377Y-36216074D01*
X85893377Y-37173263D01*
X85887319Y-37298061D01*
X85869144Y-37410743D01*
X85835824Y-37509491D01*
X85784330Y-37592487D01*
X85714055Y-37658824D01*
X85624394Y-37707592D01*
X85512924Y-37737580D01*
X85377222Y-37747576D01*
X85243639Y-37737580D01*
X85133684Y-37707592D01*
X84977383Y-37592487D01*
X84927706Y-37509491D01*
X84894992Y-37410743D01*
X84876818Y-37298061D01*
X84870760Y-37173263D01*
X84870760Y-36216074D01*
X85171244Y-36216074D01*
X85171244Y-37153877D01*
G37*
%TO.C,kibuzzard-67159C0E*%
G36*
X74010770Y-62749865D02*
G01*
X73944938Y-62884356D01*
X73835218Y-62991115D01*
X73724581Y-63052075D01*
X73590166Y-63095618D01*
X73431972Y-63121744D01*
X73250000Y-63130452D01*
X73068028Y-63121517D01*
X72909834Y-63094709D01*
X72775419Y-63050030D01*
X72664782Y-62987480D01*
X72555062Y-62879779D01*
X72489230Y-62747307D01*
X72467286Y-62590065D01*
X72726575Y-62590065D01*
X72767771Y-62713651D01*
X72880452Y-62785137D01*
X73046446Y-62819063D01*
X73144588Y-62825424D01*
X73250000Y-62827544D01*
X73355715Y-62825424D01*
X73454766Y-62819063D01*
X73620759Y-62785137D01*
X73732229Y-62713651D01*
X73773425Y-62590065D01*
X73732229Y-62467690D01*
X73619548Y-62394992D01*
X73453554Y-62361066D01*
X73355412Y-62354705D01*
X73250000Y-62352585D01*
X73144285Y-62354705D01*
X73045234Y-62361066D01*
X72879241Y-62394992D01*
X72767771Y-62466478D01*
X72726575Y-62590065D01*
X72467286Y-62590065D01*
X72489230Y-62427975D01*
X72555062Y-62293888D01*
X72664782Y-62187803D01*
X72775419Y-62127373D01*
X72909834Y-62084208D01*
X73068028Y-62058310D01*
X73250000Y-62049677D01*
X73431972Y-62058461D01*
X73590166Y-62084814D01*
X73724581Y-62128736D01*
X73835218Y-62190226D01*
X73944938Y-62296850D01*
X74010770Y-62429321D01*
X74032714Y-62587641D01*
X74032386Y-62590065D01*
X74010770Y-62749865D01*
G37*
G36*
X74000000Y-63441842D02*
G01*
X74024536Y-63557855D01*
X74032714Y-63690226D01*
X74010097Y-63885164D01*
X73942246Y-64046715D01*
X73829160Y-64174879D01*
X73716630Y-64248031D01*
X73582593Y-64300283D01*
X73427050Y-64331634D01*
X73250000Y-64342084D01*
X73073708Y-64329362D01*
X72918013Y-64291195D01*
X72783825Y-64230311D01*
X72672052Y-64149435D01*
X72583603Y-64050081D01*
X72519386Y-63933764D01*
X72480311Y-63803211D01*
X72467286Y-63661147D01*
X72480614Y-63516963D01*
X72510905Y-63404281D01*
X72547254Y-63323102D01*
X72576333Y-63273425D01*
X72813813Y-63350969D01*
X72752019Y-63485460D01*
X72726575Y-63665994D01*
X72752019Y-63802908D01*
X72836834Y-63921648D01*
X72995557Y-64006462D01*
X73107027Y-64030998D01*
X73242730Y-64039176D01*
X73400646Y-64029348D01*
X73531906Y-63999865D01*
X73636511Y-63950727D01*
X73739196Y-63834107D01*
X73773425Y-63661147D01*
X73746769Y-63468498D01*
X73693457Y-63346123D01*
X73928514Y-63271002D01*
X74000000Y-63441842D01*
G37*
G36*
X74020598Y-61533522D02*
G01*
X74012116Y-61689822D01*
X73984249Y-61853393D01*
X72520598Y-61853393D01*
X72491519Y-61661955D01*
X72484249Y-61494750D01*
X72486304Y-61468094D01*
X72743538Y-61468094D01*
X72744750Y-61511712D01*
X72750808Y-61555331D01*
X73758885Y-61555331D01*
X73761309Y-61528675D01*
X73761309Y-61502019D01*
X73722536Y-61331179D01*
X73615913Y-61219709D01*
X73454766Y-61159128D01*
X73356926Y-61145497D01*
X73250000Y-61140953D01*
X73060985Y-61155493D01*
X72898627Y-61206381D01*
X72785945Y-61305735D01*
X72743538Y-61468094D01*
X72486304Y-61468094D01*
X72495153Y-61353292D01*
X72527868Y-61224556D01*
X72583905Y-61111571D01*
X72664782Y-61017367D01*
X72770800Y-60941943D01*
X72902262Y-60885299D01*
X73061288Y-60849859D01*
X73250000Y-60838045D01*
X73442952Y-60851070D01*
X73605008Y-60890145D01*
X73737985Y-60952242D01*
X73843700Y-61034330D01*
X73923364Y-61135198D01*
X73978191Y-61253635D01*
X74009996Y-61387217D01*
X74020247Y-61528675D01*
X74020598Y-61533522D01*
G37*
G36*
X74001212Y-60619952D02*
G01*
X72501212Y-60619952D01*
X72501212Y-59711228D01*
X72748384Y-59711228D01*
X72748384Y-60321890D01*
X73085218Y-60321890D01*
X73085218Y-59791195D01*
X73332391Y-59791195D01*
X73332391Y-60321890D01*
X73754039Y-60321890D01*
X73754039Y-59657916D01*
X74001212Y-59657916D01*
X74001212Y-60619952D01*
G37*
D10*
%TO.C,J5*%
X99465000Y-54770000D02*
X100205000Y-54770000D01*
X100205000Y-54770000D02*
X100205000Y-54270000D01*
X90044000Y-54530000D02*
X99965000Y-54530000D01*
X90044000Y-54530000D02*
X90044000Y-44410000D01*
X93004000Y-54530000D02*
X93004000Y-44410000D01*
X97905000Y-54530000D02*
X97905000Y-44410000D01*
X99405000Y-54530000D02*
X99405000Y-44410000D01*
X99965000Y-54530000D02*
X99965000Y-44410000D01*
X96328000Y-48197000D02*
X96374000Y-48244000D01*
X96544000Y-48004000D02*
X96579000Y-48039000D01*
X94030000Y-45900000D02*
X94066000Y-45935000D01*
X94236000Y-45695000D02*
X94282000Y-45742000D01*
X90044000Y-44410000D02*
X99965000Y-44410000D01*
X95988042Y-53505427D02*
G75*
G02*
X94621000Y-53505000I-683041J1535420D01*
G01*
X93769573Y-52653042D02*
G75*
G02*
X93770000Y-51286000I1535420J683041D01*
G01*
X96985253Y-51941195D02*
G75*
G02*
X96840000Y-52654000I-1680254J-28806D01*
G01*
X96839756Y-51286682D02*
G75*
G02*
X96985000Y-51970000I-1534756J-683318D01*
G01*
X94621958Y-50434573D02*
G75*
G02*
X95989000Y-50435000I683042J-1535427D01*
G01*
X96985000Y-46970000D02*
G75*
G02*
X93625000Y-46970000I-1680000J0D01*
G01*
X93625000Y-46970000D02*
G75*
G02*
X96985000Y-46970000I1680000J0D01*
G01*
%TO.C,J3*%
X72590000Y-29200000D02*
X71850000Y-29200000D01*
X71850000Y-29200000D02*
X71850000Y-29700000D01*
X82011000Y-29440000D02*
X72090000Y-29440000D01*
X82011000Y-29440000D02*
X82011000Y-44560000D01*
X79051000Y-29440000D02*
X79051000Y-44560000D01*
X74150000Y-29440000D02*
X74150000Y-44560000D01*
X72650000Y-29440000D02*
X72650000Y-44560000D01*
X72090000Y-29440000D02*
X72090000Y-44560000D01*
X75727000Y-35773000D02*
X75681000Y-35726000D01*
X75511000Y-35966000D02*
X75476000Y-35931000D01*
X78025000Y-38070000D02*
X77989000Y-38035000D01*
X77819000Y-38275000D02*
X77773000Y-38228000D01*
X75727000Y-40773000D02*
X75681000Y-40726000D01*
X75511000Y-40966000D02*
X75476000Y-40931000D01*
X78025000Y-43070000D02*
X77989000Y-43035000D01*
X77819000Y-43275000D02*
X77773000Y-43228000D01*
X82011000Y-44560000D02*
X72090000Y-44560000D01*
X76066958Y-30464573D02*
G75*
G02*
X77434000Y-30465000I683041J-1535420D01*
G01*
X78285427Y-31316958D02*
G75*
G02*
X78285000Y-32684000I-1535420J-683041D01*
G01*
X75069747Y-32028805D02*
G75*
G02*
X75215000Y-31316000I1680254J28806D01*
G01*
X75215244Y-32683318D02*
G75*
G02*
X75070000Y-32000000I1534756J683318D01*
G01*
X77433042Y-33535427D02*
G75*
G02*
X76066000Y-33535000I-683042J1535427D01*
G01*
X78430000Y-37000000D02*
G75*
G02*
X75070000Y-37000000I-1680000J0D01*
G01*
X75070000Y-37000000D02*
G75*
G02*
X78430000Y-37000000I1680000J0D01*
G01*
X78430000Y-42000000D02*
G75*
G02*
X75070000Y-42000000I-1680000J0D01*
G01*
X75070000Y-42000000D02*
G75*
G02*
X78430000Y-42000000I1680000J0D01*
G01*
%TO.C,J1*%
X99465000Y-44770000D02*
X100205000Y-44770000D01*
X100205000Y-44770000D02*
X100205000Y-44270000D01*
X90044000Y-44530000D02*
X99965000Y-44530000D01*
X90044000Y-44530000D02*
X90044000Y-29410000D01*
X93004000Y-44530000D02*
X93004000Y-29410000D01*
X97905000Y-44530000D02*
X97905000Y-29410000D01*
X99405000Y-44530000D02*
X99405000Y-29410000D01*
X99965000Y-44530000D02*
X99965000Y-29410000D01*
X96328000Y-38197000D02*
X96374000Y-38244000D01*
X96544000Y-38004000D02*
X96579000Y-38039000D01*
X94030000Y-35900000D02*
X94066000Y-35935000D01*
X94236000Y-35695000D02*
X94282000Y-35742000D01*
X96328000Y-33197000D02*
X96374000Y-33244000D01*
X96544000Y-33004000D02*
X96579000Y-33039000D01*
X94030000Y-30900000D02*
X94066000Y-30935000D01*
X94236000Y-30695000D02*
X94282000Y-30742000D01*
X90044000Y-29410000D02*
X99965000Y-29410000D01*
X95988042Y-43505427D02*
G75*
G02*
X94621000Y-43505000I-683041J1535420D01*
G01*
X93769573Y-42653042D02*
G75*
G02*
X93770000Y-41286000I1535420J683041D01*
G01*
X96985253Y-41941195D02*
G75*
G02*
X96840000Y-42654000I-1680254J-28806D01*
G01*
X96839756Y-41286682D02*
G75*
G02*
X96985000Y-41970000I-1534756J-683318D01*
G01*
X94621958Y-40434573D02*
G75*
G02*
X95989000Y-40435000I683042J-1535427D01*
G01*
X96985000Y-36970000D02*
G75*
G02*
X93625000Y-36970000I-1680000J0D01*
G01*
X93625000Y-36970000D02*
G75*
G02*
X96985000Y-36970000I1680000J0D01*
G01*
X96985000Y-31970000D02*
G75*
G02*
X93625000Y-31970000I-1680000J0D01*
G01*
X93625000Y-31970000D02*
G75*
G02*
X96985000Y-31970000I1680000J0D01*
G01*
%TO.C,J2*%
X72535000Y-44200000D02*
X71795000Y-44200000D01*
X71795000Y-44200000D02*
X71795000Y-44700000D01*
X81956000Y-44440000D02*
X72035000Y-44440000D01*
X81956000Y-44440000D02*
X81956000Y-54560000D01*
X78996000Y-44440000D02*
X78996000Y-54560000D01*
X74095000Y-44440000D02*
X74095000Y-54560000D01*
X72595000Y-44440000D02*
X72595000Y-54560000D01*
X72035000Y-44440000D02*
X72035000Y-54560000D01*
X75672000Y-50773000D02*
X75626000Y-50726000D01*
X75456000Y-50966000D02*
X75421000Y-50931000D01*
X77970000Y-53070000D02*
X77934000Y-53035000D01*
X77764000Y-53275000D02*
X77718000Y-53228000D01*
X81956000Y-54560000D02*
X72035000Y-54560000D01*
X76011958Y-45464573D02*
G75*
G02*
X77379000Y-45465000I683041J-1535420D01*
G01*
X78230427Y-46316958D02*
G75*
G02*
X78230000Y-47684000I-1535420J-683041D01*
G01*
X75014747Y-47028805D02*
G75*
G02*
X75160000Y-46316000I1680254J28806D01*
G01*
X75160244Y-47683318D02*
G75*
G02*
X75015000Y-47000000I1534756J683318D01*
G01*
X77378042Y-48535427D02*
G75*
G02*
X76011000Y-48535000I-683042J1535427D01*
G01*
X78375000Y-52000000D02*
G75*
G02*
X75015000Y-52000000I-1680000J0D01*
G01*
X75015000Y-52000000D02*
G75*
G02*
X78375000Y-52000000I1680000J0D01*
G01*
%TO.C,Q3*%
X89390000Y-60062500D02*
X89390000Y-59412500D01*
X89390000Y-60062500D02*
X89390000Y-60712500D01*
X92510000Y-60062500D02*
X92510000Y-59412500D01*
X92510000Y-60062500D02*
X92510000Y-60712500D01*
X89440000Y-61225000D02*
X89110000Y-61465000D01*
X89110000Y-60985000D01*
X89440000Y-61225000D01*
G36*
X89440000Y-61225000D02*
G01*
X89110000Y-61465000D01*
X89110000Y-60985000D01*
X89440000Y-61225000D01*
G37*
%TO.C,R1*%
X86187258Y-62540000D02*
X85712742Y-62540000D01*
X86187258Y-63585000D02*
X85712742Y-63585000D01*
%TO.C,R2*%
X86187258Y-64540000D02*
X85712742Y-64540000D01*
X86187258Y-65585000D02*
X85712742Y-65585000D01*
%TO.C,D1*%
X89510000Y-57900000D02*
X84000000Y-57900000D01*
X89510000Y-57900000D02*
X89510000Y-54600000D01*
X89510000Y-54600000D02*
X84000000Y-54600000D01*
%TO.C,U2*%
X99507500Y-79058000D02*
X99507500Y-77818000D01*
X99267500Y-78818000D02*
X99267500Y-67097000D01*
X98267500Y-79058000D02*
X99507500Y-79058000D01*
X90647500Y-78818000D02*
X99267500Y-78818000D01*
X90647500Y-78818000D02*
X90647500Y-67097000D01*
X90647500Y-67097000D02*
X99267500Y-67097000D01*
%TO.C,R5*%
X91187258Y-62540000D02*
X90712742Y-62540000D01*
X91187258Y-63585000D02*
X90712742Y-63585000D01*
%TO.C,R3*%
X96362258Y-62540000D02*
X95887742Y-62540000D01*
X96362258Y-63585000D02*
X95887742Y-63585000D01*
%TO.C,R7*%
X79762742Y-75477500D02*
X80237258Y-75477500D01*
X79762742Y-76522500D02*
X80237258Y-76522500D01*
%TO.C,Q1*%
X84390000Y-60062500D02*
X84390000Y-59412500D01*
X84390000Y-60062500D02*
X84390000Y-60712500D01*
X87510000Y-60062500D02*
X87510000Y-59412500D01*
X87510000Y-60062500D02*
X87510000Y-60712500D01*
X84440000Y-61225000D02*
X84110000Y-61465000D01*
X84110000Y-60985000D01*
X84440000Y-61225000D01*
G36*
X84440000Y-61225000D02*
G01*
X84110000Y-61465000D01*
X84110000Y-60985000D01*
X84440000Y-61225000D01*
G37*
%TO.C,R6*%
X91187258Y-64540000D02*
X90712742Y-64540000D01*
X91187258Y-65585000D02*
X90712742Y-65585000D01*
%TO.C,SW1*%
X74550000Y-58850000D02*
X74800000Y-58850000D01*
X74550000Y-65150000D02*
X74550000Y-58850000D01*
X74800000Y-65150000D02*
X74550000Y-65150000D01*
X76700000Y-58850000D02*
X79300000Y-58850000D01*
X79300000Y-65150000D02*
X76700000Y-65150000D01*
X81200000Y-58850000D02*
X81450000Y-58850000D01*
X81450000Y-58850000D02*
X81450000Y-65150000D01*
X81450000Y-65150000D02*
X81200000Y-65150000D01*
%TO.C,R8*%
X79762742Y-69227500D02*
X80237258Y-69227500D01*
X79762742Y-70272500D02*
X80237258Y-70272500D01*
%TO.C,Q2*%
X94565000Y-60062500D02*
X94565000Y-59412500D01*
X94565000Y-60062500D02*
X94565000Y-60712500D01*
X97685000Y-60062500D02*
X97685000Y-59412500D01*
X97685000Y-60062500D02*
X97685000Y-60712500D01*
X94615000Y-61225000D02*
X94285000Y-61465000D01*
X94285000Y-60985000D01*
X94615000Y-61225000D01*
G36*
X94615000Y-61225000D02*
G01*
X94285000Y-61465000D01*
X94285000Y-60985000D01*
X94615000Y-61225000D01*
G37*
%TO.C,D2*%
X75000000Y-76960000D02*
X77685000Y-76960000D01*
X77685000Y-75040000D02*
X75000000Y-75040000D01*
X77685000Y-76960000D02*
X77685000Y-75040000D01*
%TO.C,R4*%
X96362258Y-64540000D02*
X95887742Y-64540000D01*
X96362258Y-65585000D02*
X95887742Y-65585000D01*
%TO.C,D3*%
X75000000Y-70710000D02*
X77685000Y-70710000D01*
X77685000Y-68790000D02*
X75000000Y-68790000D01*
X77685000Y-70710000D02*
X77685000Y-68790000D01*
%TD*%
%LPC*%
D12*
%TO.C,C2*%
X89000000Y-69550000D03*
X89000000Y-71450000D03*
%TD*%
D13*
%TO.C,C1*%
X89000000Y-75950000D03*
X89000000Y-74050000D03*
%TD*%
D14*
%TO.C,J5*%
X95305000Y-51970000D03*
D15*
X95305000Y-46970000D03*
%TD*%
D14*
%TO.C,J3*%
X76750000Y-32000000D03*
D15*
X76750000Y-37000000D03*
X76750000Y-42000000D03*
%TD*%
D14*
%TO.C,J1*%
X95305000Y-41970000D03*
D15*
X95305000Y-36970000D03*
X95305000Y-31970000D03*
%TD*%
D14*
%TO.C,J2*%
X76695000Y-47000000D03*
D15*
X76695000Y-52000000D03*
%TD*%
D16*
%TO.C,Q3*%
X90000000Y-61000000D03*
X91900000Y-61000000D03*
X90950000Y-59125000D03*
%TD*%
D17*
%TO.C,R1*%
X86775000Y-63062500D03*
X85125000Y-63062500D03*
%TD*%
%TO.C,R2*%
X86775000Y-65062500D03*
X85125000Y-65062500D03*
%TD*%
D18*
%TO.C,D1*%
X88000000Y-56250000D03*
X84000000Y-56250000D03*
%TD*%
D19*
%TO.C,U2*%
X97207500Y-70367000D03*
X97207500Y-72907000D03*
D20*
X97207500Y-75447000D03*
%TD*%
D17*
%TO.C,R5*%
X91775000Y-63062500D03*
X90125000Y-63062500D03*
%TD*%
%TO.C,R3*%
X96950000Y-63062500D03*
X95300000Y-63062500D03*
%TD*%
D21*
%TO.C,R7*%
X79175000Y-76000000D03*
X80825000Y-76000000D03*
%TD*%
D16*
%TO.C,Q1*%
X85000000Y-61000000D03*
X86900000Y-61000000D03*
X85950000Y-59125000D03*
%TD*%
D17*
%TO.C,R6*%
X91775000Y-65062500D03*
X90125000Y-65062500D03*
%TD*%
D22*
%TO.C,SW1*%
X75750000Y-65975000D03*
X75750000Y-58025000D03*
X80250000Y-65975000D03*
X80250000Y-58025000D03*
%TD*%
D21*
%TO.C,R8*%
X79175000Y-69750000D03*
X80825000Y-69750000D03*
%TD*%
D16*
%TO.C,Q2*%
X95175000Y-61000000D03*
X97075000Y-61000000D03*
X96125000Y-59125000D03*
%TD*%
D23*
%TO.C,D2*%
X76937500Y-76000000D03*
X75062500Y-76000000D03*
%TD*%
D17*
%TO.C,R4*%
X96950000Y-65062500D03*
X95300000Y-65062500D03*
%TD*%
D23*
%TO.C,D3*%
X76937500Y-69750000D03*
X75062500Y-69750000D03*
%TD*%
%LPD*%
M02*
