%TF.GenerationSoftware,KiCad,Pcbnew,8.0.6-8.0.6-0~ubuntu24.04.1*%
%TF.CreationDate,2024-10-21T11:40:31+11:00*%
%TF.ProjectId,PCB-Receiver,5043422d-5265-4636-9569-7665722e6b69,rev?*%
%TF.SameCoordinates,Original*%
%TF.FileFunction,Drillmap*%
%TF.FilePolarity,Positive*%
%FSLAX45Y45*%
G04 Gerber Fmt 4.5, Leading zero omitted, Abs format (unit mm)*
G04 Created by KiCad (PCBNEW 8.0.6-8.0.6-0~ubuntu24.04.1) date 2024-10-21 11:40:31*
%MOMM*%
%LPD*%
G01*
G04 APERTURE LIST*
%ADD10C,0.050000*%
%ADD11C,0.200000*%
%ADD12C,0.100000*%
%ADD13C,0.130000*%
G04 APERTURE END LIST*
D10*
X7200000Y-2900000D02*
X10040000Y-2900000D01*
X10040000Y-7980000D01*
X7200000Y-7980000D01*
X7200000Y-2900000D01*
D11*
D12*
X7360000Y-7810000D02*
X7390000Y-7840000D01*
X7390000Y-7810000D02*
X7360000Y-7840000D01*
X7678090Y-5772500D02*
X7708090Y-5802500D01*
X7708090Y-5772500D02*
X7678090Y-5802500D01*
X8100130Y-6854250D02*
X8130130Y-6884250D01*
X8130130Y-6854250D02*
X8100130Y-6884250D01*
X8110000Y-7410000D02*
X8140000Y-7440000D01*
X8140000Y-7410000D02*
X8110000Y-7440000D01*
X8464300Y-6670720D02*
X8494300Y-6700720D01*
X8494300Y-6670720D02*
X8464300Y-6700720D01*
X8662500Y-6391960D02*
X8692500Y-6421960D01*
X8692500Y-6391960D02*
X8662500Y-6421960D01*
X9080000Y-6610910D02*
X9110000Y-6640910D01*
X9110000Y-6610910D02*
X9080000Y-6640910D01*
X9680000Y-6391250D02*
X9710000Y-6421250D01*
X9710000Y-6391250D02*
X9680000Y-6421250D01*
X9770750Y-7036700D02*
G75*
G02*
X9670750Y-7036700I-50000J0D01*
G01*
X9670750Y-7036700D02*
G75*
G02*
X9770750Y-7036700I50000J0D01*
G01*
X9770750Y-7290700D02*
G75*
G02*
X9670750Y-7290700I-50000J0D01*
G01*
X9670750Y-7290700D02*
G75*
G02*
X9770750Y-7290700I50000J0D01*
G01*
X9770750Y-7544700D02*
G75*
G02*
X9670750Y-7544700I-50000J0D01*
G01*
X9670750Y-7544700D02*
G75*
G02*
X9770750Y-7544700I50000J0D01*
G01*
D13*
X7669500Y-4635000D02*
X7669500Y-4765000D01*
X7604500Y-4700000D02*
X7734500Y-4700000D01*
X7669500Y-5135000D02*
X7669500Y-5265000D01*
X7604500Y-5200000D02*
X7734500Y-5200000D01*
X7675000Y-3135000D02*
X7675000Y-3265000D01*
X7610000Y-3200000D02*
X7740000Y-3200000D01*
X7675000Y-3635000D02*
X7675000Y-3765000D01*
X7610000Y-3700000D02*
X7740000Y-3700000D01*
X7675000Y-4135000D02*
X7675000Y-4265000D01*
X7610000Y-4200000D02*
X7740000Y-4200000D01*
X9530500Y-3132000D02*
X9530500Y-3262000D01*
X9465500Y-3197000D02*
X9595500Y-3197000D01*
X9530500Y-3632000D02*
X9530500Y-3762000D01*
X9465500Y-3697000D02*
X9595500Y-3697000D01*
X9530500Y-4132000D02*
X9530500Y-4262000D01*
X9465500Y-4197000D02*
X9595500Y-4197000D01*
X9530500Y-4632000D02*
X9530500Y-4762000D01*
X9465500Y-4697000D02*
X9595500Y-4697000D01*
X9530500Y-5132000D02*
X9530500Y-5262000D01*
X9465500Y-5197000D02*
X9595500Y-5197000D01*
D11*
X7458277Y-8293984D02*
X7458277Y-8093984D01*
X7458277Y-8093984D02*
X7505896Y-8093984D01*
X7505896Y-8093984D02*
X7534467Y-8103508D01*
X7534467Y-8103508D02*
X7553515Y-8122555D01*
X7553515Y-8122555D02*
X7563039Y-8141603D01*
X7563039Y-8141603D02*
X7572562Y-8179698D01*
X7572562Y-8179698D02*
X7572562Y-8208269D01*
X7572562Y-8208269D02*
X7563039Y-8246365D01*
X7563039Y-8246365D02*
X7553515Y-8265412D01*
X7553515Y-8265412D02*
X7534467Y-8284460D01*
X7534467Y-8284460D02*
X7505896Y-8293984D01*
X7505896Y-8293984D02*
X7458277Y-8293984D01*
X7658277Y-8293984D02*
X7658277Y-8160650D01*
X7658277Y-8198746D02*
X7667801Y-8179698D01*
X7667801Y-8179698D02*
X7677324Y-8170174D01*
X7677324Y-8170174D02*
X7696372Y-8160650D01*
X7696372Y-8160650D02*
X7715420Y-8160650D01*
X7782086Y-8293984D02*
X7782086Y-8160650D01*
X7782086Y-8093984D02*
X7772562Y-8103508D01*
X7772562Y-8103508D02*
X7782086Y-8113031D01*
X7782086Y-8113031D02*
X7791610Y-8103508D01*
X7791610Y-8103508D02*
X7782086Y-8093984D01*
X7782086Y-8093984D02*
X7782086Y-8113031D01*
X7905896Y-8293984D02*
X7886848Y-8284460D01*
X7886848Y-8284460D02*
X7877324Y-8265412D01*
X7877324Y-8265412D02*
X7877324Y-8093984D01*
X8010658Y-8293984D02*
X7991610Y-8284460D01*
X7991610Y-8284460D02*
X7982086Y-8265412D01*
X7982086Y-8265412D02*
X7982086Y-8093984D01*
X8239229Y-8293984D02*
X8239229Y-8093984D01*
X8239229Y-8093984D02*
X8305896Y-8236841D01*
X8305896Y-8236841D02*
X8372562Y-8093984D01*
X8372562Y-8093984D02*
X8372562Y-8293984D01*
X8553515Y-8293984D02*
X8553515Y-8189222D01*
X8553515Y-8189222D02*
X8543991Y-8170174D01*
X8543991Y-8170174D02*
X8524944Y-8160650D01*
X8524944Y-8160650D02*
X8486848Y-8160650D01*
X8486848Y-8160650D02*
X8467801Y-8170174D01*
X8553515Y-8284460D02*
X8534467Y-8293984D01*
X8534467Y-8293984D02*
X8486848Y-8293984D01*
X8486848Y-8293984D02*
X8467801Y-8284460D01*
X8467801Y-8284460D02*
X8458277Y-8265412D01*
X8458277Y-8265412D02*
X8458277Y-8246365D01*
X8458277Y-8246365D02*
X8467801Y-8227317D01*
X8467801Y-8227317D02*
X8486848Y-8217793D01*
X8486848Y-8217793D02*
X8534467Y-8217793D01*
X8534467Y-8217793D02*
X8553515Y-8208269D01*
X8648753Y-8160650D02*
X8648753Y-8360650D01*
X8648753Y-8170174D02*
X8667801Y-8160650D01*
X8667801Y-8160650D02*
X8705896Y-8160650D01*
X8705896Y-8160650D02*
X8724944Y-8170174D01*
X8724944Y-8170174D02*
X8734467Y-8179698D01*
X8734467Y-8179698D02*
X8743991Y-8198746D01*
X8743991Y-8198746D02*
X8743991Y-8255888D01*
X8743991Y-8255888D02*
X8734467Y-8274936D01*
X8734467Y-8274936D02*
X8724944Y-8284460D01*
X8724944Y-8284460D02*
X8705896Y-8293984D01*
X8705896Y-8293984D02*
X8667801Y-8293984D01*
X8667801Y-8293984D02*
X8648753Y-8284460D01*
X8829705Y-8274936D02*
X8839229Y-8284460D01*
X8839229Y-8284460D02*
X8829705Y-8293984D01*
X8829705Y-8293984D02*
X8820182Y-8284460D01*
X8820182Y-8284460D02*
X8829705Y-8274936D01*
X8829705Y-8274936D02*
X8829705Y-8293984D01*
X8829705Y-8170174D02*
X8839229Y-8179698D01*
X8839229Y-8179698D02*
X8829705Y-8189222D01*
X8829705Y-8189222D02*
X8820182Y-8179698D01*
X8820182Y-8179698D02*
X8829705Y-8170174D01*
X8829705Y-8170174D02*
X8829705Y-8189222D01*
D12*
X7167500Y-8607500D02*
X7197500Y-8637500D01*
X7197500Y-8607500D02*
X7167500Y-8637500D01*
D11*
X7496372Y-8513984D02*
X7515420Y-8513984D01*
X7515420Y-8513984D02*
X7534467Y-8523508D01*
X7534467Y-8523508D02*
X7543991Y-8533031D01*
X7543991Y-8533031D02*
X7553515Y-8552079D01*
X7553515Y-8552079D02*
X7563039Y-8590174D01*
X7563039Y-8590174D02*
X7563039Y-8637793D01*
X7563039Y-8637793D02*
X7553515Y-8675889D01*
X7553515Y-8675889D02*
X7543991Y-8694936D01*
X7543991Y-8694936D02*
X7534467Y-8704460D01*
X7534467Y-8704460D02*
X7515420Y-8713984D01*
X7515420Y-8713984D02*
X7496372Y-8713984D01*
X7496372Y-8713984D02*
X7477324Y-8704460D01*
X7477324Y-8704460D02*
X7467801Y-8694936D01*
X7467801Y-8694936D02*
X7458277Y-8675889D01*
X7458277Y-8675889D02*
X7448753Y-8637793D01*
X7448753Y-8637793D02*
X7448753Y-8590174D01*
X7448753Y-8590174D02*
X7458277Y-8552079D01*
X7458277Y-8552079D02*
X7467801Y-8533031D01*
X7467801Y-8533031D02*
X7477324Y-8523508D01*
X7477324Y-8523508D02*
X7496372Y-8513984D01*
X7648753Y-8694936D02*
X7658277Y-8704460D01*
X7658277Y-8704460D02*
X7648753Y-8713984D01*
X7648753Y-8713984D02*
X7639229Y-8704460D01*
X7639229Y-8704460D02*
X7648753Y-8694936D01*
X7648753Y-8694936D02*
X7648753Y-8713984D01*
X7724943Y-8513984D02*
X7848753Y-8513984D01*
X7848753Y-8513984D02*
X7782086Y-8590174D01*
X7782086Y-8590174D02*
X7810658Y-8590174D01*
X7810658Y-8590174D02*
X7829705Y-8599698D01*
X7829705Y-8599698D02*
X7839229Y-8609222D01*
X7839229Y-8609222D02*
X7848753Y-8628270D01*
X7848753Y-8628270D02*
X7848753Y-8675889D01*
X7848753Y-8675889D02*
X7839229Y-8694936D01*
X7839229Y-8694936D02*
X7829705Y-8704460D01*
X7829705Y-8704460D02*
X7810658Y-8713984D01*
X7810658Y-8713984D02*
X7753515Y-8713984D01*
X7753515Y-8713984D02*
X7734467Y-8704460D01*
X7734467Y-8704460D02*
X7724943Y-8694936D01*
X7972562Y-8513984D02*
X7991610Y-8513984D01*
X7991610Y-8513984D02*
X8010658Y-8523508D01*
X8010658Y-8523508D02*
X8020182Y-8533031D01*
X8020182Y-8533031D02*
X8029705Y-8552079D01*
X8029705Y-8552079D02*
X8039229Y-8590174D01*
X8039229Y-8590174D02*
X8039229Y-8637793D01*
X8039229Y-8637793D02*
X8029705Y-8675889D01*
X8029705Y-8675889D02*
X8020182Y-8694936D01*
X8020182Y-8694936D02*
X8010658Y-8704460D01*
X8010658Y-8704460D02*
X7991610Y-8713984D01*
X7991610Y-8713984D02*
X7972562Y-8713984D01*
X7972562Y-8713984D02*
X7953515Y-8704460D01*
X7953515Y-8704460D02*
X7943991Y-8694936D01*
X7943991Y-8694936D02*
X7934467Y-8675889D01*
X7934467Y-8675889D02*
X7924943Y-8637793D01*
X7924943Y-8637793D02*
X7924943Y-8590174D01*
X7924943Y-8590174D02*
X7934467Y-8552079D01*
X7934467Y-8552079D02*
X7943991Y-8533031D01*
X7943991Y-8533031D02*
X7953515Y-8523508D01*
X7953515Y-8523508D02*
X7972562Y-8513984D01*
X8163039Y-8513984D02*
X8182086Y-8513984D01*
X8182086Y-8513984D02*
X8201134Y-8523508D01*
X8201134Y-8523508D02*
X8210658Y-8533031D01*
X8210658Y-8533031D02*
X8220182Y-8552079D01*
X8220182Y-8552079D02*
X8229705Y-8590174D01*
X8229705Y-8590174D02*
X8229705Y-8637793D01*
X8229705Y-8637793D02*
X8220182Y-8675889D01*
X8220182Y-8675889D02*
X8210658Y-8694936D01*
X8210658Y-8694936D02*
X8201134Y-8704460D01*
X8201134Y-8704460D02*
X8182086Y-8713984D01*
X8182086Y-8713984D02*
X8163039Y-8713984D01*
X8163039Y-8713984D02*
X8143991Y-8704460D01*
X8143991Y-8704460D02*
X8134467Y-8694936D01*
X8134467Y-8694936D02*
X8124943Y-8675889D01*
X8124943Y-8675889D02*
X8115420Y-8637793D01*
X8115420Y-8637793D02*
X8115420Y-8590174D01*
X8115420Y-8590174D02*
X8124943Y-8552079D01*
X8124943Y-8552079D02*
X8134467Y-8533031D01*
X8134467Y-8533031D02*
X8143991Y-8523508D01*
X8143991Y-8523508D02*
X8163039Y-8513984D01*
X8315420Y-8713984D02*
X8315420Y-8580650D01*
X8315420Y-8599698D02*
X8324943Y-8590174D01*
X8324943Y-8590174D02*
X8343991Y-8580650D01*
X8343991Y-8580650D02*
X8372563Y-8580650D01*
X8372563Y-8580650D02*
X8391610Y-8590174D01*
X8391610Y-8590174D02*
X8401134Y-8609222D01*
X8401134Y-8609222D02*
X8401134Y-8713984D01*
X8401134Y-8609222D02*
X8410658Y-8590174D01*
X8410658Y-8590174D02*
X8429705Y-8580650D01*
X8429705Y-8580650D02*
X8458277Y-8580650D01*
X8458277Y-8580650D02*
X8477325Y-8590174D01*
X8477325Y-8590174D02*
X8486848Y-8609222D01*
X8486848Y-8609222D02*
X8486848Y-8713984D01*
X8582086Y-8713984D02*
X8582086Y-8580650D01*
X8582086Y-8599698D02*
X8591610Y-8590174D01*
X8591610Y-8590174D02*
X8610658Y-8580650D01*
X8610658Y-8580650D02*
X8639229Y-8580650D01*
X8639229Y-8580650D02*
X8658277Y-8590174D01*
X8658277Y-8590174D02*
X8667801Y-8609222D01*
X8667801Y-8609222D02*
X8667801Y-8713984D01*
X8667801Y-8609222D02*
X8677325Y-8590174D01*
X8677325Y-8590174D02*
X8696372Y-8580650D01*
X8696372Y-8580650D02*
X8724944Y-8580650D01*
X8724944Y-8580650D02*
X8743991Y-8590174D01*
X8743991Y-8590174D02*
X8753515Y-8609222D01*
X8753515Y-8609222D02*
X8753515Y-8713984D01*
X9143991Y-8504460D02*
X8972563Y-8761603D01*
X9401134Y-8513984D02*
X9420182Y-8513984D01*
X9420182Y-8513984D02*
X9439229Y-8523508D01*
X9439229Y-8523508D02*
X9448753Y-8533031D01*
X9448753Y-8533031D02*
X9458277Y-8552079D01*
X9458277Y-8552079D02*
X9467801Y-8590174D01*
X9467801Y-8590174D02*
X9467801Y-8637793D01*
X9467801Y-8637793D02*
X9458277Y-8675889D01*
X9458277Y-8675889D02*
X9448753Y-8694936D01*
X9448753Y-8694936D02*
X9439229Y-8704460D01*
X9439229Y-8704460D02*
X9420182Y-8713984D01*
X9420182Y-8713984D02*
X9401134Y-8713984D01*
X9401134Y-8713984D02*
X9382087Y-8704460D01*
X9382087Y-8704460D02*
X9372563Y-8694936D01*
X9372563Y-8694936D02*
X9363039Y-8675889D01*
X9363039Y-8675889D02*
X9353515Y-8637793D01*
X9353515Y-8637793D02*
X9353515Y-8590174D01*
X9353515Y-8590174D02*
X9363039Y-8552079D01*
X9363039Y-8552079D02*
X9372563Y-8533031D01*
X9372563Y-8533031D02*
X9382087Y-8523508D01*
X9382087Y-8523508D02*
X9401134Y-8513984D01*
X9553515Y-8694936D02*
X9563039Y-8704460D01*
X9563039Y-8704460D02*
X9553515Y-8713984D01*
X9553515Y-8713984D02*
X9543991Y-8704460D01*
X9543991Y-8704460D02*
X9553515Y-8694936D01*
X9553515Y-8694936D02*
X9553515Y-8713984D01*
X9686848Y-8513984D02*
X9705896Y-8513984D01*
X9705896Y-8513984D02*
X9724944Y-8523508D01*
X9724944Y-8523508D02*
X9734468Y-8533031D01*
X9734468Y-8533031D02*
X9743991Y-8552079D01*
X9743991Y-8552079D02*
X9753515Y-8590174D01*
X9753515Y-8590174D02*
X9753515Y-8637793D01*
X9753515Y-8637793D02*
X9743991Y-8675889D01*
X9743991Y-8675889D02*
X9734468Y-8694936D01*
X9734468Y-8694936D02*
X9724944Y-8704460D01*
X9724944Y-8704460D02*
X9705896Y-8713984D01*
X9705896Y-8713984D02*
X9686848Y-8713984D01*
X9686848Y-8713984D02*
X9667801Y-8704460D01*
X9667801Y-8704460D02*
X9658277Y-8694936D01*
X9658277Y-8694936D02*
X9648753Y-8675889D01*
X9648753Y-8675889D02*
X9639229Y-8637793D01*
X9639229Y-8637793D02*
X9639229Y-8590174D01*
X9639229Y-8590174D02*
X9648753Y-8552079D01*
X9648753Y-8552079D02*
X9658277Y-8533031D01*
X9658277Y-8533031D02*
X9667801Y-8523508D01*
X9667801Y-8523508D02*
X9686848Y-8513984D01*
X9943991Y-8713984D02*
X9829706Y-8713984D01*
X9886848Y-8713984D02*
X9886848Y-8513984D01*
X9886848Y-8513984D02*
X9867801Y-8542555D01*
X9867801Y-8542555D02*
X9848753Y-8561603D01*
X9848753Y-8561603D02*
X9829706Y-8571127D01*
X10134468Y-8713984D02*
X10020182Y-8713984D01*
X10077325Y-8713984D02*
X10077325Y-8513984D01*
X10077325Y-8513984D02*
X10058277Y-8542555D01*
X10058277Y-8542555D02*
X10039229Y-8561603D01*
X10039229Y-8561603D02*
X10020182Y-8571127D01*
X10248753Y-8599698D02*
X10229706Y-8590174D01*
X10229706Y-8590174D02*
X10220182Y-8580650D01*
X10220182Y-8580650D02*
X10210658Y-8561603D01*
X10210658Y-8561603D02*
X10210658Y-8552079D01*
X10210658Y-8552079D02*
X10220182Y-8533031D01*
X10220182Y-8533031D02*
X10229706Y-8523508D01*
X10229706Y-8523508D02*
X10248753Y-8513984D01*
X10248753Y-8513984D02*
X10286849Y-8513984D01*
X10286849Y-8513984D02*
X10305896Y-8523508D01*
X10305896Y-8523508D02*
X10315420Y-8533031D01*
X10315420Y-8533031D02*
X10324944Y-8552079D01*
X10324944Y-8552079D02*
X10324944Y-8561603D01*
X10324944Y-8561603D02*
X10315420Y-8580650D01*
X10315420Y-8580650D02*
X10305896Y-8590174D01*
X10305896Y-8590174D02*
X10286849Y-8599698D01*
X10286849Y-8599698D02*
X10248753Y-8599698D01*
X10248753Y-8599698D02*
X10229706Y-8609222D01*
X10229706Y-8609222D02*
X10220182Y-8618746D01*
X10220182Y-8618746D02*
X10210658Y-8637793D01*
X10210658Y-8637793D02*
X10210658Y-8675889D01*
X10210658Y-8675889D02*
X10220182Y-8694936D01*
X10220182Y-8694936D02*
X10229706Y-8704460D01*
X10229706Y-8704460D02*
X10248753Y-8713984D01*
X10248753Y-8713984D02*
X10286849Y-8713984D01*
X10286849Y-8713984D02*
X10305896Y-8704460D01*
X10305896Y-8704460D02*
X10315420Y-8694936D01*
X10315420Y-8694936D02*
X10324944Y-8675889D01*
X10324944Y-8675889D02*
X10324944Y-8637793D01*
X10324944Y-8637793D02*
X10315420Y-8618746D01*
X10315420Y-8618746D02*
X10305896Y-8609222D01*
X10305896Y-8609222D02*
X10286849Y-8599698D01*
X10401134Y-8513984D02*
X10401134Y-8552079D01*
X10477325Y-8513984D02*
X10477325Y-8552079D01*
X10772563Y-8790174D02*
X10763039Y-8780650D01*
X10763039Y-8780650D02*
X10743991Y-8752079D01*
X10743991Y-8752079D02*
X10734468Y-8733031D01*
X10734468Y-8733031D02*
X10724944Y-8704460D01*
X10724944Y-8704460D02*
X10715420Y-8656841D01*
X10715420Y-8656841D02*
X10715420Y-8618746D01*
X10715420Y-8618746D02*
X10724944Y-8571127D01*
X10724944Y-8571127D02*
X10734468Y-8542555D01*
X10734468Y-8542555D02*
X10743991Y-8523508D01*
X10743991Y-8523508D02*
X10763039Y-8494936D01*
X10763039Y-8494936D02*
X10772563Y-8485412D01*
X10877325Y-8599698D02*
X10858277Y-8590174D01*
X10858277Y-8590174D02*
X10848753Y-8580650D01*
X10848753Y-8580650D02*
X10839230Y-8561603D01*
X10839230Y-8561603D02*
X10839230Y-8552079D01*
X10839230Y-8552079D02*
X10848753Y-8533031D01*
X10848753Y-8533031D02*
X10858277Y-8523508D01*
X10858277Y-8523508D02*
X10877325Y-8513984D01*
X10877325Y-8513984D02*
X10915420Y-8513984D01*
X10915420Y-8513984D02*
X10934468Y-8523508D01*
X10934468Y-8523508D02*
X10943991Y-8533031D01*
X10943991Y-8533031D02*
X10953515Y-8552079D01*
X10953515Y-8552079D02*
X10953515Y-8561603D01*
X10953515Y-8561603D02*
X10943991Y-8580650D01*
X10943991Y-8580650D02*
X10934468Y-8590174D01*
X10934468Y-8590174D02*
X10915420Y-8599698D01*
X10915420Y-8599698D02*
X10877325Y-8599698D01*
X10877325Y-8599698D02*
X10858277Y-8609222D01*
X10858277Y-8609222D02*
X10848753Y-8618746D01*
X10848753Y-8618746D02*
X10839230Y-8637793D01*
X10839230Y-8637793D02*
X10839230Y-8675889D01*
X10839230Y-8675889D02*
X10848753Y-8694936D01*
X10848753Y-8694936D02*
X10858277Y-8704460D01*
X10858277Y-8704460D02*
X10877325Y-8713984D01*
X10877325Y-8713984D02*
X10915420Y-8713984D01*
X10915420Y-8713984D02*
X10934468Y-8704460D01*
X10934468Y-8704460D02*
X10943991Y-8694936D01*
X10943991Y-8694936D02*
X10953515Y-8675889D01*
X10953515Y-8675889D02*
X10953515Y-8637793D01*
X10953515Y-8637793D02*
X10943991Y-8618746D01*
X10943991Y-8618746D02*
X10934468Y-8609222D01*
X10934468Y-8609222D02*
X10915420Y-8599698D01*
X11191610Y-8713984D02*
X11191610Y-8513984D01*
X11277325Y-8713984D02*
X11277325Y-8609222D01*
X11277325Y-8609222D02*
X11267801Y-8590174D01*
X11267801Y-8590174D02*
X11248753Y-8580650D01*
X11248753Y-8580650D02*
X11220182Y-8580650D01*
X11220182Y-8580650D02*
X11201134Y-8590174D01*
X11201134Y-8590174D02*
X11191610Y-8599698D01*
X11401134Y-8713984D02*
X11382087Y-8704460D01*
X11382087Y-8704460D02*
X11372563Y-8694936D01*
X11372563Y-8694936D02*
X11363039Y-8675889D01*
X11363039Y-8675889D02*
X11363039Y-8618746D01*
X11363039Y-8618746D02*
X11372563Y-8599698D01*
X11372563Y-8599698D02*
X11382087Y-8590174D01*
X11382087Y-8590174D02*
X11401134Y-8580650D01*
X11401134Y-8580650D02*
X11429706Y-8580650D01*
X11429706Y-8580650D02*
X11448753Y-8590174D01*
X11448753Y-8590174D02*
X11458277Y-8599698D01*
X11458277Y-8599698D02*
X11467801Y-8618746D01*
X11467801Y-8618746D02*
X11467801Y-8675889D01*
X11467801Y-8675889D02*
X11458277Y-8694936D01*
X11458277Y-8694936D02*
X11448753Y-8704460D01*
X11448753Y-8704460D02*
X11429706Y-8713984D01*
X11429706Y-8713984D02*
X11401134Y-8713984D01*
X11582087Y-8713984D02*
X11563039Y-8704460D01*
X11563039Y-8704460D02*
X11553515Y-8685412D01*
X11553515Y-8685412D02*
X11553515Y-8513984D01*
X11734468Y-8704460D02*
X11715420Y-8713984D01*
X11715420Y-8713984D02*
X11677325Y-8713984D01*
X11677325Y-8713984D02*
X11658277Y-8704460D01*
X11658277Y-8704460D02*
X11648753Y-8685412D01*
X11648753Y-8685412D02*
X11648753Y-8609222D01*
X11648753Y-8609222D02*
X11658277Y-8590174D01*
X11658277Y-8590174D02*
X11677325Y-8580650D01*
X11677325Y-8580650D02*
X11715420Y-8580650D01*
X11715420Y-8580650D02*
X11734468Y-8590174D01*
X11734468Y-8590174D02*
X11743991Y-8609222D01*
X11743991Y-8609222D02*
X11743991Y-8628270D01*
X11743991Y-8628270D02*
X11648753Y-8647317D01*
X11820182Y-8704460D02*
X11839230Y-8713984D01*
X11839230Y-8713984D02*
X11877325Y-8713984D01*
X11877325Y-8713984D02*
X11896372Y-8704460D01*
X11896372Y-8704460D02*
X11905896Y-8685412D01*
X11905896Y-8685412D02*
X11905896Y-8675889D01*
X11905896Y-8675889D02*
X11896372Y-8656841D01*
X11896372Y-8656841D02*
X11877325Y-8647317D01*
X11877325Y-8647317D02*
X11848753Y-8647317D01*
X11848753Y-8647317D02*
X11829706Y-8637793D01*
X11829706Y-8637793D02*
X11820182Y-8618746D01*
X11820182Y-8618746D02*
X11820182Y-8609222D01*
X11820182Y-8609222D02*
X11829706Y-8590174D01*
X11829706Y-8590174D02*
X11848753Y-8580650D01*
X11848753Y-8580650D02*
X11877325Y-8580650D01*
X11877325Y-8580650D02*
X11896372Y-8590174D01*
X11972563Y-8790174D02*
X11982087Y-8780650D01*
X11982087Y-8780650D02*
X12001134Y-8752079D01*
X12001134Y-8752079D02*
X12010658Y-8733031D01*
X12010658Y-8733031D02*
X12020182Y-8704460D01*
X12020182Y-8704460D02*
X12029706Y-8656841D01*
X12029706Y-8656841D02*
X12029706Y-8618746D01*
X12029706Y-8618746D02*
X12020182Y-8571127D01*
X12020182Y-8571127D02*
X12010658Y-8542555D01*
X12010658Y-8542555D02*
X12001134Y-8523508D01*
X12001134Y-8523508D02*
X11982087Y-8494936D01*
X11982087Y-8494936D02*
X11972563Y-8485412D01*
D12*
X7197500Y-8886500D02*
G75*
G02*
X7097500Y-8886500I-50000J0D01*
G01*
X7097500Y-8886500D02*
G75*
G02*
X7197500Y-8886500I50000J0D01*
G01*
D11*
X7563039Y-8977984D02*
X7448753Y-8977984D01*
X7505896Y-8977984D02*
X7505896Y-8777984D01*
X7505896Y-8777984D02*
X7486848Y-8806555D01*
X7486848Y-8806555D02*
X7467801Y-8825603D01*
X7467801Y-8825603D02*
X7448753Y-8835127D01*
X7648753Y-8958936D02*
X7658277Y-8968460D01*
X7658277Y-8968460D02*
X7648753Y-8977984D01*
X7648753Y-8977984D02*
X7639229Y-8968460D01*
X7639229Y-8968460D02*
X7648753Y-8958936D01*
X7648753Y-8958936D02*
X7648753Y-8977984D01*
X7782086Y-8777984D02*
X7801134Y-8777984D01*
X7801134Y-8777984D02*
X7820182Y-8787508D01*
X7820182Y-8787508D02*
X7829705Y-8797031D01*
X7829705Y-8797031D02*
X7839229Y-8816079D01*
X7839229Y-8816079D02*
X7848753Y-8854174D01*
X7848753Y-8854174D02*
X7848753Y-8901793D01*
X7848753Y-8901793D02*
X7839229Y-8939889D01*
X7839229Y-8939889D02*
X7829705Y-8958936D01*
X7829705Y-8958936D02*
X7820182Y-8968460D01*
X7820182Y-8968460D02*
X7801134Y-8977984D01*
X7801134Y-8977984D02*
X7782086Y-8977984D01*
X7782086Y-8977984D02*
X7763039Y-8968460D01*
X7763039Y-8968460D02*
X7753515Y-8958936D01*
X7753515Y-8958936D02*
X7743991Y-8939889D01*
X7743991Y-8939889D02*
X7734467Y-8901793D01*
X7734467Y-8901793D02*
X7734467Y-8854174D01*
X7734467Y-8854174D02*
X7743991Y-8816079D01*
X7743991Y-8816079D02*
X7753515Y-8797031D01*
X7753515Y-8797031D02*
X7763039Y-8787508D01*
X7763039Y-8787508D02*
X7782086Y-8777984D01*
X7972562Y-8777984D02*
X7991610Y-8777984D01*
X7991610Y-8777984D02*
X8010658Y-8787508D01*
X8010658Y-8787508D02*
X8020182Y-8797031D01*
X8020182Y-8797031D02*
X8029705Y-8816079D01*
X8029705Y-8816079D02*
X8039229Y-8854174D01*
X8039229Y-8854174D02*
X8039229Y-8901793D01*
X8039229Y-8901793D02*
X8029705Y-8939889D01*
X8029705Y-8939889D02*
X8020182Y-8958936D01*
X8020182Y-8958936D02*
X8010658Y-8968460D01*
X8010658Y-8968460D02*
X7991610Y-8977984D01*
X7991610Y-8977984D02*
X7972562Y-8977984D01*
X7972562Y-8977984D02*
X7953515Y-8968460D01*
X7953515Y-8968460D02*
X7943991Y-8958936D01*
X7943991Y-8958936D02*
X7934467Y-8939889D01*
X7934467Y-8939889D02*
X7924943Y-8901793D01*
X7924943Y-8901793D02*
X7924943Y-8854174D01*
X7924943Y-8854174D02*
X7934467Y-8816079D01*
X7934467Y-8816079D02*
X7943991Y-8797031D01*
X7943991Y-8797031D02*
X7953515Y-8787508D01*
X7953515Y-8787508D02*
X7972562Y-8777984D01*
X8163039Y-8777984D02*
X8182086Y-8777984D01*
X8182086Y-8777984D02*
X8201134Y-8787508D01*
X8201134Y-8787508D02*
X8210658Y-8797031D01*
X8210658Y-8797031D02*
X8220182Y-8816079D01*
X8220182Y-8816079D02*
X8229705Y-8854174D01*
X8229705Y-8854174D02*
X8229705Y-8901793D01*
X8229705Y-8901793D02*
X8220182Y-8939889D01*
X8220182Y-8939889D02*
X8210658Y-8958936D01*
X8210658Y-8958936D02*
X8201134Y-8968460D01*
X8201134Y-8968460D02*
X8182086Y-8977984D01*
X8182086Y-8977984D02*
X8163039Y-8977984D01*
X8163039Y-8977984D02*
X8143991Y-8968460D01*
X8143991Y-8968460D02*
X8134467Y-8958936D01*
X8134467Y-8958936D02*
X8124943Y-8939889D01*
X8124943Y-8939889D02*
X8115420Y-8901793D01*
X8115420Y-8901793D02*
X8115420Y-8854174D01*
X8115420Y-8854174D02*
X8124943Y-8816079D01*
X8124943Y-8816079D02*
X8134467Y-8797031D01*
X8134467Y-8797031D02*
X8143991Y-8787508D01*
X8143991Y-8787508D02*
X8163039Y-8777984D01*
X8315420Y-8977984D02*
X8315420Y-8844650D01*
X8315420Y-8863698D02*
X8324943Y-8854174D01*
X8324943Y-8854174D02*
X8343991Y-8844650D01*
X8343991Y-8844650D02*
X8372563Y-8844650D01*
X8372563Y-8844650D02*
X8391610Y-8854174D01*
X8391610Y-8854174D02*
X8401134Y-8873222D01*
X8401134Y-8873222D02*
X8401134Y-8977984D01*
X8401134Y-8873222D02*
X8410658Y-8854174D01*
X8410658Y-8854174D02*
X8429705Y-8844650D01*
X8429705Y-8844650D02*
X8458277Y-8844650D01*
X8458277Y-8844650D02*
X8477325Y-8854174D01*
X8477325Y-8854174D02*
X8486848Y-8873222D01*
X8486848Y-8873222D02*
X8486848Y-8977984D01*
X8582086Y-8977984D02*
X8582086Y-8844650D01*
X8582086Y-8863698D02*
X8591610Y-8854174D01*
X8591610Y-8854174D02*
X8610658Y-8844650D01*
X8610658Y-8844650D02*
X8639229Y-8844650D01*
X8639229Y-8844650D02*
X8658277Y-8854174D01*
X8658277Y-8854174D02*
X8667801Y-8873222D01*
X8667801Y-8873222D02*
X8667801Y-8977984D01*
X8667801Y-8873222D02*
X8677325Y-8854174D01*
X8677325Y-8854174D02*
X8696372Y-8844650D01*
X8696372Y-8844650D02*
X8724944Y-8844650D01*
X8724944Y-8844650D02*
X8743991Y-8854174D01*
X8743991Y-8854174D02*
X8753515Y-8873222D01*
X8753515Y-8873222D02*
X8753515Y-8977984D01*
X9143991Y-8768460D02*
X8972563Y-9025603D01*
X9401134Y-8777984D02*
X9420182Y-8777984D01*
X9420182Y-8777984D02*
X9439229Y-8787508D01*
X9439229Y-8787508D02*
X9448753Y-8797031D01*
X9448753Y-8797031D02*
X9458277Y-8816079D01*
X9458277Y-8816079D02*
X9467801Y-8854174D01*
X9467801Y-8854174D02*
X9467801Y-8901793D01*
X9467801Y-8901793D02*
X9458277Y-8939889D01*
X9458277Y-8939889D02*
X9448753Y-8958936D01*
X9448753Y-8958936D02*
X9439229Y-8968460D01*
X9439229Y-8968460D02*
X9420182Y-8977984D01*
X9420182Y-8977984D02*
X9401134Y-8977984D01*
X9401134Y-8977984D02*
X9382087Y-8968460D01*
X9382087Y-8968460D02*
X9372563Y-8958936D01*
X9372563Y-8958936D02*
X9363039Y-8939889D01*
X9363039Y-8939889D02*
X9353515Y-8901793D01*
X9353515Y-8901793D02*
X9353515Y-8854174D01*
X9353515Y-8854174D02*
X9363039Y-8816079D01*
X9363039Y-8816079D02*
X9372563Y-8797031D01*
X9372563Y-8797031D02*
X9382087Y-8787508D01*
X9382087Y-8787508D02*
X9401134Y-8777984D01*
X9553515Y-8958936D02*
X9563039Y-8968460D01*
X9563039Y-8968460D02*
X9553515Y-8977984D01*
X9553515Y-8977984D02*
X9543991Y-8968460D01*
X9543991Y-8968460D02*
X9553515Y-8958936D01*
X9553515Y-8958936D02*
X9553515Y-8977984D01*
X9686848Y-8777984D02*
X9705896Y-8777984D01*
X9705896Y-8777984D02*
X9724944Y-8787508D01*
X9724944Y-8787508D02*
X9734468Y-8797031D01*
X9734468Y-8797031D02*
X9743991Y-8816079D01*
X9743991Y-8816079D02*
X9753515Y-8854174D01*
X9753515Y-8854174D02*
X9753515Y-8901793D01*
X9753515Y-8901793D02*
X9743991Y-8939889D01*
X9743991Y-8939889D02*
X9734468Y-8958936D01*
X9734468Y-8958936D02*
X9724944Y-8968460D01*
X9724944Y-8968460D02*
X9705896Y-8977984D01*
X9705896Y-8977984D02*
X9686848Y-8977984D01*
X9686848Y-8977984D02*
X9667801Y-8968460D01*
X9667801Y-8968460D02*
X9658277Y-8958936D01*
X9658277Y-8958936D02*
X9648753Y-8939889D01*
X9648753Y-8939889D02*
X9639229Y-8901793D01*
X9639229Y-8901793D02*
X9639229Y-8854174D01*
X9639229Y-8854174D02*
X9648753Y-8816079D01*
X9648753Y-8816079D02*
X9658277Y-8797031D01*
X9658277Y-8797031D02*
X9667801Y-8787508D01*
X9667801Y-8787508D02*
X9686848Y-8777984D01*
X9820182Y-8777984D02*
X9943991Y-8777984D01*
X9943991Y-8777984D02*
X9877325Y-8854174D01*
X9877325Y-8854174D02*
X9905896Y-8854174D01*
X9905896Y-8854174D02*
X9924944Y-8863698D01*
X9924944Y-8863698D02*
X9934468Y-8873222D01*
X9934468Y-8873222D02*
X9943991Y-8892270D01*
X9943991Y-8892270D02*
X9943991Y-8939889D01*
X9943991Y-8939889D02*
X9934468Y-8958936D01*
X9934468Y-8958936D02*
X9924944Y-8968460D01*
X9924944Y-8968460D02*
X9905896Y-8977984D01*
X9905896Y-8977984D02*
X9848753Y-8977984D01*
X9848753Y-8977984D02*
X9829706Y-8968460D01*
X9829706Y-8968460D02*
X9820182Y-8958936D01*
X10039229Y-8977984D02*
X10077325Y-8977984D01*
X10077325Y-8977984D02*
X10096372Y-8968460D01*
X10096372Y-8968460D02*
X10105896Y-8958936D01*
X10105896Y-8958936D02*
X10124944Y-8930365D01*
X10124944Y-8930365D02*
X10134468Y-8892270D01*
X10134468Y-8892270D02*
X10134468Y-8816079D01*
X10134468Y-8816079D02*
X10124944Y-8797031D01*
X10124944Y-8797031D02*
X10115420Y-8787508D01*
X10115420Y-8787508D02*
X10096372Y-8777984D01*
X10096372Y-8777984D02*
X10058277Y-8777984D01*
X10058277Y-8777984D02*
X10039229Y-8787508D01*
X10039229Y-8787508D02*
X10029706Y-8797031D01*
X10029706Y-8797031D02*
X10020182Y-8816079D01*
X10020182Y-8816079D02*
X10020182Y-8863698D01*
X10020182Y-8863698D02*
X10029706Y-8882746D01*
X10029706Y-8882746D02*
X10039229Y-8892270D01*
X10039229Y-8892270D02*
X10058277Y-8901793D01*
X10058277Y-8901793D02*
X10096372Y-8901793D01*
X10096372Y-8901793D02*
X10115420Y-8892270D01*
X10115420Y-8892270D02*
X10124944Y-8882746D01*
X10124944Y-8882746D02*
X10134468Y-8863698D01*
X10305896Y-8844650D02*
X10305896Y-8977984D01*
X10258277Y-8768460D02*
X10210658Y-8911317D01*
X10210658Y-8911317D02*
X10334468Y-8911317D01*
X10401134Y-8777984D02*
X10401134Y-8816079D01*
X10477325Y-8777984D02*
X10477325Y-8816079D01*
X10772563Y-9054174D02*
X10763039Y-9044650D01*
X10763039Y-9044650D02*
X10743991Y-9016079D01*
X10743991Y-9016079D02*
X10734468Y-8997031D01*
X10734468Y-8997031D02*
X10724944Y-8968460D01*
X10724944Y-8968460D02*
X10715420Y-8920841D01*
X10715420Y-8920841D02*
X10715420Y-8882746D01*
X10715420Y-8882746D02*
X10724944Y-8835127D01*
X10724944Y-8835127D02*
X10734468Y-8806555D01*
X10734468Y-8806555D02*
X10743991Y-8787508D01*
X10743991Y-8787508D02*
X10763039Y-8758936D01*
X10763039Y-8758936D02*
X10772563Y-8749412D01*
X10829706Y-8777984D02*
X10953515Y-8777984D01*
X10953515Y-8777984D02*
X10886849Y-8854174D01*
X10886849Y-8854174D02*
X10915420Y-8854174D01*
X10915420Y-8854174D02*
X10934468Y-8863698D01*
X10934468Y-8863698D02*
X10943991Y-8873222D01*
X10943991Y-8873222D02*
X10953515Y-8892270D01*
X10953515Y-8892270D02*
X10953515Y-8939889D01*
X10953515Y-8939889D02*
X10943991Y-8958936D01*
X10943991Y-8958936D02*
X10934468Y-8968460D01*
X10934468Y-8968460D02*
X10915420Y-8977984D01*
X10915420Y-8977984D02*
X10858277Y-8977984D01*
X10858277Y-8977984D02*
X10839230Y-8968460D01*
X10839230Y-8968460D02*
X10829706Y-8958936D01*
X11191610Y-8977984D02*
X11191610Y-8777984D01*
X11277325Y-8977984D02*
X11277325Y-8873222D01*
X11277325Y-8873222D02*
X11267801Y-8854174D01*
X11267801Y-8854174D02*
X11248753Y-8844650D01*
X11248753Y-8844650D02*
X11220182Y-8844650D01*
X11220182Y-8844650D02*
X11201134Y-8854174D01*
X11201134Y-8854174D02*
X11191610Y-8863698D01*
X11401134Y-8977984D02*
X11382087Y-8968460D01*
X11382087Y-8968460D02*
X11372563Y-8958936D01*
X11372563Y-8958936D02*
X11363039Y-8939889D01*
X11363039Y-8939889D02*
X11363039Y-8882746D01*
X11363039Y-8882746D02*
X11372563Y-8863698D01*
X11372563Y-8863698D02*
X11382087Y-8854174D01*
X11382087Y-8854174D02*
X11401134Y-8844650D01*
X11401134Y-8844650D02*
X11429706Y-8844650D01*
X11429706Y-8844650D02*
X11448753Y-8854174D01*
X11448753Y-8854174D02*
X11458277Y-8863698D01*
X11458277Y-8863698D02*
X11467801Y-8882746D01*
X11467801Y-8882746D02*
X11467801Y-8939889D01*
X11467801Y-8939889D02*
X11458277Y-8958936D01*
X11458277Y-8958936D02*
X11448753Y-8968460D01*
X11448753Y-8968460D02*
X11429706Y-8977984D01*
X11429706Y-8977984D02*
X11401134Y-8977984D01*
X11582087Y-8977984D02*
X11563039Y-8968460D01*
X11563039Y-8968460D02*
X11553515Y-8949412D01*
X11553515Y-8949412D02*
X11553515Y-8777984D01*
X11734468Y-8968460D02*
X11715420Y-8977984D01*
X11715420Y-8977984D02*
X11677325Y-8977984D01*
X11677325Y-8977984D02*
X11658277Y-8968460D01*
X11658277Y-8968460D02*
X11648753Y-8949412D01*
X11648753Y-8949412D02*
X11648753Y-8873222D01*
X11648753Y-8873222D02*
X11658277Y-8854174D01*
X11658277Y-8854174D02*
X11677325Y-8844650D01*
X11677325Y-8844650D02*
X11715420Y-8844650D01*
X11715420Y-8844650D02*
X11734468Y-8854174D01*
X11734468Y-8854174D02*
X11743991Y-8873222D01*
X11743991Y-8873222D02*
X11743991Y-8892270D01*
X11743991Y-8892270D02*
X11648753Y-8911317D01*
X11820182Y-8968460D02*
X11839230Y-8977984D01*
X11839230Y-8977984D02*
X11877325Y-8977984D01*
X11877325Y-8977984D02*
X11896372Y-8968460D01*
X11896372Y-8968460D02*
X11905896Y-8949412D01*
X11905896Y-8949412D02*
X11905896Y-8939889D01*
X11905896Y-8939889D02*
X11896372Y-8920841D01*
X11896372Y-8920841D02*
X11877325Y-8911317D01*
X11877325Y-8911317D02*
X11848753Y-8911317D01*
X11848753Y-8911317D02*
X11829706Y-8901793D01*
X11829706Y-8901793D02*
X11820182Y-8882746D01*
X11820182Y-8882746D02*
X11820182Y-8873222D01*
X11820182Y-8873222D02*
X11829706Y-8854174D01*
X11829706Y-8854174D02*
X11848753Y-8844650D01*
X11848753Y-8844650D02*
X11877325Y-8844650D01*
X11877325Y-8844650D02*
X11896372Y-8854174D01*
X11972563Y-9054174D02*
X11982087Y-9044650D01*
X11982087Y-9044650D02*
X12001134Y-9016079D01*
X12001134Y-9016079D02*
X12010658Y-8997031D01*
X12010658Y-8997031D02*
X12020182Y-8968460D01*
X12020182Y-8968460D02*
X12029706Y-8920841D01*
X12029706Y-8920841D02*
X12029706Y-8882746D01*
X12029706Y-8882746D02*
X12020182Y-8835127D01*
X12020182Y-8835127D02*
X12010658Y-8806555D01*
X12010658Y-8806555D02*
X12001134Y-8787508D01*
X12001134Y-8787508D02*
X11982087Y-8758936D01*
X11982087Y-8758936D02*
X11972563Y-8749412D01*
D13*
X7132500Y-9085500D02*
X7132500Y-9215500D01*
X7067500Y-9150500D02*
X7197500Y-9150500D01*
D11*
X7563039Y-9241984D02*
X7448753Y-9241984D01*
X7505896Y-9241984D02*
X7505896Y-9041984D01*
X7505896Y-9041984D02*
X7486848Y-9070555D01*
X7486848Y-9070555D02*
X7467801Y-9089603D01*
X7467801Y-9089603D02*
X7448753Y-9099127D01*
X7648753Y-9222936D02*
X7658277Y-9232460D01*
X7658277Y-9232460D02*
X7648753Y-9241984D01*
X7648753Y-9241984D02*
X7639229Y-9232460D01*
X7639229Y-9232460D02*
X7648753Y-9222936D01*
X7648753Y-9222936D02*
X7648753Y-9241984D01*
X7724943Y-9041984D02*
X7848753Y-9041984D01*
X7848753Y-9041984D02*
X7782086Y-9118174D01*
X7782086Y-9118174D02*
X7810658Y-9118174D01*
X7810658Y-9118174D02*
X7829705Y-9127698D01*
X7829705Y-9127698D02*
X7839229Y-9137222D01*
X7839229Y-9137222D02*
X7848753Y-9156270D01*
X7848753Y-9156270D02*
X7848753Y-9203889D01*
X7848753Y-9203889D02*
X7839229Y-9222936D01*
X7839229Y-9222936D02*
X7829705Y-9232460D01*
X7829705Y-9232460D02*
X7810658Y-9241984D01*
X7810658Y-9241984D02*
X7753515Y-9241984D01*
X7753515Y-9241984D02*
X7734467Y-9232460D01*
X7734467Y-9232460D02*
X7724943Y-9222936D01*
X7972562Y-9041984D02*
X7991610Y-9041984D01*
X7991610Y-9041984D02*
X8010658Y-9051508D01*
X8010658Y-9051508D02*
X8020182Y-9061031D01*
X8020182Y-9061031D02*
X8029705Y-9080079D01*
X8029705Y-9080079D02*
X8039229Y-9118174D01*
X8039229Y-9118174D02*
X8039229Y-9165793D01*
X8039229Y-9165793D02*
X8029705Y-9203889D01*
X8029705Y-9203889D02*
X8020182Y-9222936D01*
X8020182Y-9222936D02*
X8010658Y-9232460D01*
X8010658Y-9232460D02*
X7991610Y-9241984D01*
X7991610Y-9241984D02*
X7972562Y-9241984D01*
X7972562Y-9241984D02*
X7953515Y-9232460D01*
X7953515Y-9232460D02*
X7943991Y-9222936D01*
X7943991Y-9222936D02*
X7934467Y-9203889D01*
X7934467Y-9203889D02*
X7924943Y-9165793D01*
X7924943Y-9165793D02*
X7924943Y-9118174D01*
X7924943Y-9118174D02*
X7934467Y-9080079D01*
X7934467Y-9080079D02*
X7943991Y-9061031D01*
X7943991Y-9061031D02*
X7953515Y-9051508D01*
X7953515Y-9051508D02*
X7972562Y-9041984D01*
X8163039Y-9041984D02*
X8182086Y-9041984D01*
X8182086Y-9041984D02*
X8201134Y-9051508D01*
X8201134Y-9051508D02*
X8210658Y-9061031D01*
X8210658Y-9061031D02*
X8220182Y-9080079D01*
X8220182Y-9080079D02*
X8229705Y-9118174D01*
X8229705Y-9118174D02*
X8229705Y-9165793D01*
X8229705Y-9165793D02*
X8220182Y-9203889D01*
X8220182Y-9203889D02*
X8210658Y-9222936D01*
X8210658Y-9222936D02*
X8201134Y-9232460D01*
X8201134Y-9232460D02*
X8182086Y-9241984D01*
X8182086Y-9241984D02*
X8163039Y-9241984D01*
X8163039Y-9241984D02*
X8143991Y-9232460D01*
X8143991Y-9232460D02*
X8134467Y-9222936D01*
X8134467Y-9222936D02*
X8124943Y-9203889D01*
X8124943Y-9203889D02*
X8115420Y-9165793D01*
X8115420Y-9165793D02*
X8115420Y-9118174D01*
X8115420Y-9118174D02*
X8124943Y-9080079D01*
X8124943Y-9080079D02*
X8134467Y-9061031D01*
X8134467Y-9061031D02*
X8143991Y-9051508D01*
X8143991Y-9051508D02*
X8163039Y-9041984D01*
X8315420Y-9241984D02*
X8315420Y-9108650D01*
X8315420Y-9127698D02*
X8324943Y-9118174D01*
X8324943Y-9118174D02*
X8343991Y-9108650D01*
X8343991Y-9108650D02*
X8372563Y-9108650D01*
X8372563Y-9108650D02*
X8391610Y-9118174D01*
X8391610Y-9118174D02*
X8401134Y-9137222D01*
X8401134Y-9137222D02*
X8401134Y-9241984D01*
X8401134Y-9137222D02*
X8410658Y-9118174D01*
X8410658Y-9118174D02*
X8429705Y-9108650D01*
X8429705Y-9108650D02*
X8458277Y-9108650D01*
X8458277Y-9108650D02*
X8477325Y-9118174D01*
X8477325Y-9118174D02*
X8486848Y-9137222D01*
X8486848Y-9137222D02*
X8486848Y-9241984D01*
X8582086Y-9241984D02*
X8582086Y-9108650D01*
X8582086Y-9127698D02*
X8591610Y-9118174D01*
X8591610Y-9118174D02*
X8610658Y-9108650D01*
X8610658Y-9108650D02*
X8639229Y-9108650D01*
X8639229Y-9108650D02*
X8658277Y-9118174D01*
X8658277Y-9118174D02*
X8667801Y-9137222D01*
X8667801Y-9137222D02*
X8667801Y-9241984D01*
X8667801Y-9137222D02*
X8677325Y-9118174D01*
X8677325Y-9118174D02*
X8696372Y-9108650D01*
X8696372Y-9108650D02*
X8724944Y-9108650D01*
X8724944Y-9108650D02*
X8743991Y-9118174D01*
X8743991Y-9118174D02*
X8753515Y-9137222D01*
X8753515Y-9137222D02*
X8753515Y-9241984D01*
X9143991Y-9032460D02*
X8972563Y-9289603D01*
X9401134Y-9041984D02*
X9420182Y-9041984D01*
X9420182Y-9041984D02*
X9439229Y-9051508D01*
X9439229Y-9051508D02*
X9448753Y-9061031D01*
X9448753Y-9061031D02*
X9458277Y-9080079D01*
X9458277Y-9080079D02*
X9467801Y-9118174D01*
X9467801Y-9118174D02*
X9467801Y-9165793D01*
X9467801Y-9165793D02*
X9458277Y-9203889D01*
X9458277Y-9203889D02*
X9448753Y-9222936D01*
X9448753Y-9222936D02*
X9439229Y-9232460D01*
X9439229Y-9232460D02*
X9420182Y-9241984D01*
X9420182Y-9241984D02*
X9401134Y-9241984D01*
X9401134Y-9241984D02*
X9382087Y-9232460D01*
X9382087Y-9232460D02*
X9372563Y-9222936D01*
X9372563Y-9222936D02*
X9363039Y-9203889D01*
X9363039Y-9203889D02*
X9353515Y-9165793D01*
X9353515Y-9165793D02*
X9353515Y-9118174D01*
X9353515Y-9118174D02*
X9363039Y-9080079D01*
X9363039Y-9080079D02*
X9372563Y-9061031D01*
X9372563Y-9061031D02*
X9382087Y-9051508D01*
X9382087Y-9051508D02*
X9401134Y-9041984D01*
X9553515Y-9222936D02*
X9563039Y-9232460D01*
X9563039Y-9232460D02*
X9553515Y-9241984D01*
X9553515Y-9241984D02*
X9543991Y-9232460D01*
X9543991Y-9232460D02*
X9553515Y-9222936D01*
X9553515Y-9222936D02*
X9553515Y-9241984D01*
X9686848Y-9041984D02*
X9705896Y-9041984D01*
X9705896Y-9041984D02*
X9724944Y-9051508D01*
X9724944Y-9051508D02*
X9734468Y-9061031D01*
X9734468Y-9061031D02*
X9743991Y-9080079D01*
X9743991Y-9080079D02*
X9753515Y-9118174D01*
X9753515Y-9118174D02*
X9753515Y-9165793D01*
X9753515Y-9165793D02*
X9743991Y-9203889D01*
X9743991Y-9203889D02*
X9734468Y-9222936D01*
X9734468Y-9222936D02*
X9724944Y-9232460D01*
X9724944Y-9232460D02*
X9705896Y-9241984D01*
X9705896Y-9241984D02*
X9686848Y-9241984D01*
X9686848Y-9241984D02*
X9667801Y-9232460D01*
X9667801Y-9232460D02*
X9658277Y-9222936D01*
X9658277Y-9222936D02*
X9648753Y-9203889D01*
X9648753Y-9203889D02*
X9639229Y-9165793D01*
X9639229Y-9165793D02*
X9639229Y-9118174D01*
X9639229Y-9118174D02*
X9648753Y-9080079D01*
X9648753Y-9080079D02*
X9658277Y-9061031D01*
X9658277Y-9061031D02*
X9667801Y-9051508D01*
X9667801Y-9051508D02*
X9686848Y-9041984D01*
X9934468Y-9041984D02*
X9839229Y-9041984D01*
X9839229Y-9041984D02*
X9829706Y-9137222D01*
X9829706Y-9137222D02*
X9839229Y-9127698D01*
X9839229Y-9127698D02*
X9858277Y-9118174D01*
X9858277Y-9118174D02*
X9905896Y-9118174D01*
X9905896Y-9118174D02*
X9924944Y-9127698D01*
X9924944Y-9127698D02*
X9934468Y-9137222D01*
X9934468Y-9137222D02*
X9943991Y-9156270D01*
X9943991Y-9156270D02*
X9943991Y-9203889D01*
X9943991Y-9203889D02*
X9934468Y-9222936D01*
X9934468Y-9222936D02*
X9924944Y-9232460D01*
X9924944Y-9232460D02*
X9905896Y-9241984D01*
X9905896Y-9241984D02*
X9858277Y-9241984D01*
X9858277Y-9241984D02*
X9839229Y-9232460D01*
X9839229Y-9232460D02*
X9829706Y-9222936D01*
X10134468Y-9241984D02*
X10020182Y-9241984D01*
X10077325Y-9241984D02*
X10077325Y-9041984D01*
X10077325Y-9041984D02*
X10058277Y-9070555D01*
X10058277Y-9070555D02*
X10039229Y-9089603D01*
X10039229Y-9089603D02*
X10020182Y-9099127D01*
X10210658Y-9061031D02*
X10220182Y-9051508D01*
X10220182Y-9051508D02*
X10239229Y-9041984D01*
X10239229Y-9041984D02*
X10286849Y-9041984D01*
X10286849Y-9041984D02*
X10305896Y-9051508D01*
X10305896Y-9051508D02*
X10315420Y-9061031D01*
X10315420Y-9061031D02*
X10324944Y-9080079D01*
X10324944Y-9080079D02*
X10324944Y-9099127D01*
X10324944Y-9099127D02*
X10315420Y-9127698D01*
X10315420Y-9127698D02*
X10201134Y-9241984D01*
X10201134Y-9241984D02*
X10324944Y-9241984D01*
X10401134Y-9041984D02*
X10401134Y-9080079D01*
X10477325Y-9041984D02*
X10477325Y-9080079D01*
X10772563Y-9318174D02*
X10763039Y-9308650D01*
X10763039Y-9308650D02*
X10743991Y-9280079D01*
X10743991Y-9280079D02*
X10734468Y-9261031D01*
X10734468Y-9261031D02*
X10724944Y-9232460D01*
X10724944Y-9232460D02*
X10715420Y-9184841D01*
X10715420Y-9184841D02*
X10715420Y-9146746D01*
X10715420Y-9146746D02*
X10724944Y-9099127D01*
X10724944Y-9099127D02*
X10734468Y-9070555D01*
X10734468Y-9070555D02*
X10743991Y-9051508D01*
X10743991Y-9051508D02*
X10763039Y-9022936D01*
X10763039Y-9022936D02*
X10772563Y-9013412D01*
X10953515Y-9241984D02*
X10839230Y-9241984D01*
X10896372Y-9241984D02*
X10896372Y-9041984D01*
X10896372Y-9041984D02*
X10877325Y-9070555D01*
X10877325Y-9070555D02*
X10858277Y-9089603D01*
X10858277Y-9089603D02*
X10839230Y-9099127D01*
X11077325Y-9041984D02*
X11096372Y-9041984D01*
X11096372Y-9041984D02*
X11115420Y-9051508D01*
X11115420Y-9051508D02*
X11124944Y-9061031D01*
X11124944Y-9061031D02*
X11134468Y-9080079D01*
X11134468Y-9080079D02*
X11143991Y-9118174D01*
X11143991Y-9118174D02*
X11143991Y-9165793D01*
X11143991Y-9165793D02*
X11134468Y-9203889D01*
X11134468Y-9203889D02*
X11124944Y-9222936D01*
X11124944Y-9222936D02*
X11115420Y-9232460D01*
X11115420Y-9232460D02*
X11096372Y-9241984D01*
X11096372Y-9241984D02*
X11077325Y-9241984D01*
X11077325Y-9241984D02*
X11058277Y-9232460D01*
X11058277Y-9232460D02*
X11048753Y-9222936D01*
X11048753Y-9222936D02*
X11039230Y-9203889D01*
X11039230Y-9203889D02*
X11029706Y-9165793D01*
X11029706Y-9165793D02*
X11029706Y-9118174D01*
X11029706Y-9118174D02*
X11039230Y-9080079D01*
X11039230Y-9080079D02*
X11048753Y-9061031D01*
X11048753Y-9061031D02*
X11058277Y-9051508D01*
X11058277Y-9051508D02*
X11077325Y-9041984D01*
X11382087Y-9241984D02*
X11382087Y-9041984D01*
X11467801Y-9241984D02*
X11467801Y-9137222D01*
X11467801Y-9137222D02*
X11458277Y-9118174D01*
X11458277Y-9118174D02*
X11439230Y-9108650D01*
X11439230Y-9108650D02*
X11410658Y-9108650D01*
X11410658Y-9108650D02*
X11391610Y-9118174D01*
X11391610Y-9118174D02*
X11382087Y-9127698D01*
X11591610Y-9241984D02*
X11572563Y-9232460D01*
X11572563Y-9232460D02*
X11563039Y-9222936D01*
X11563039Y-9222936D02*
X11553515Y-9203889D01*
X11553515Y-9203889D02*
X11553515Y-9146746D01*
X11553515Y-9146746D02*
X11563039Y-9127698D01*
X11563039Y-9127698D02*
X11572563Y-9118174D01*
X11572563Y-9118174D02*
X11591610Y-9108650D01*
X11591610Y-9108650D02*
X11620182Y-9108650D01*
X11620182Y-9108650D02*
X11639230Y-9118174D01*
X11639230Y-9118174D02*
X11648753Y-9127698D01*
X11648753Y-9127698D02*
X11658277Y-9146746D01*
X11658277Y-9146746D02*
X11658277Y-9203889D01*
X11658277Y-9203889D02*
X11648753Y-9222936D01*
X11648753Y-9222936D02*
X11639230Y-9232460D01*
X11639230Y-9232460D02*
X11620182Y-9241984D01*
X11620182Y-9241984D02*
X11591610Y-9241984D01*
X11772563Y-9241984D02*
X11753515Y-9232460D01*
X11753515Y-9232460D02*
X11743991Y-9213412D01*
X11743991Y-9213412D02*
X11743991Y-9041984D01*
X11924944Y-9232460D02*
X11905896Y-9241984D01*
X11905896Y-9241984D02*
X11867801Y-9241984D01*
X11867801Y-9241984D02*
X11848753Y-9232460D01*
X11848753Y-9232460D02*
X11839230Y-9213412D01*
X11839230Y-9213412D02*
X11839230Y-9137222D01*
X11839230Y-9137222D02*
X11848753Y-9118174D01*
X11848753Y-9118174D02*
X11867801Y-9108650D01*
X11867801Y-9108650D02*
X11905896Y-9108650D01*
X11905896Y-9108650D02*
X11924944Y-9118174D01*
X11924944Y-9118174D02*
X11934468Y-9137222D01*
X11934468Y-9137222D02*
X11934468Y-9156270D01*
X11934468Y-9156270D02*
X11839230Y-9175317D01*
X12010658Y-9232460D02*
X12029706Y-9241984D01*
X12029706Y-9241984D02*
X12067801Y-9241984D01*
X12067801Y-9241984D02*
X12086849Y-9232460D01*
X12086849Y-9232460D02*
X12096372Y-9213412D01*
X12096372Y-9213412D02*
X12096372Y-9203889D01*
X12096372Y-9203889D02*
X12086849Y-9184841D01*
X12086849Y-9184841D02*
X12067801Y-9175317D01*
X12067801Y-9175317D02*
X12039230Y-9175317D01*
X12039230Y-9175317D02*
X12020182Y-9165793D01*
X12020182Y-9165793D02*
X12010658Y-9146746D01*
X12010658Y-9146746D02*
X12010658Y-9137222D01*
X12010658Y-9137222D02*
X12020182Y-9118174D01*
X12020182Y-9118174D02*
X12039230Y-9108650D01*
X12039230Y-9108650D02*
X12067801Y-9108650D01*
X12067801Y-9108650D02*
X12086849Y-9118174D01*
X12163039Y-9318174D02*
X12172563Y-9308650D01*
X12172563Y-9308650D02*
X12191611Y-9280079D01*
X12191611Y-9280079D02*
X12201134Y-9261031D01*
X12201134Y-9261031D02*
X12210658Y-9232460D01*
X12210658Y-9232460D02*
X12220182Y-9184841D01*
X12220182Y-9184841D02*
X12220182Y-9146746D01*
X12220182Y-9146746D02*
X12210658Y-9099127D01*
X12210658Y-9099127D02*
X12201134Y-9070555D01*
X12201134Y-9070555D02*
X12191611Y-9051508D01*
X12191611Y-9051508D02*
X12172563Y-9022936D01*
X12172563Y-9022936D02*
X12163039Y-9013412D01*
M02*
