%TF.GenerationSoftware,KiCad,Pcbnew,8.0.5-8.0.5-0~ubuntu24.04.1*%
%TF.CreationDate,2024-10-02T13:28:38+10:00*%
%TF.ProjectId,Touch Keypad,546f7563-6820-44b6-9579-7061642e6b69,rev?*%
%TF.SameCoordinates,PXbebc200PY8b3c880*%
%TF.FileFunction,Drillmap*%
%TF.FilePolarity,Positive*%
%FSLAX45Y45*%
G04 Gerber Fmt 4.5, Leading zero omitted, Abs format (unit mm)*
G04 Created by KiCad (PCBNEW 8.0.5-8.0.5-0~ubuntu24.04.1) date 2024-10-02 13:28:38*
%MOMM*%
%LPD*%
G01*
G04 APERTURE LIST*
%ADD10C,0.050000*%
%ADD11C,0.200000*%
G04 APERTURE END LIST*
D10*
X-150000Y11100000D02*
X-6800000Y11100000D01*
X0Y150000D02*
G75*
G02*
X-150000Y0I-150000J0D01*
G01*
X-6850000Y0D02*
X-150000Y0D01*
X-7000000Y10900000D02*
X-7000000Y150000D01*
X-150000Y11100000D02*
G75*
G02*
X0Y10950000I0J-150000D01*
G01*
X0Y150000D02*
X0Y10950000D01*
X-7000000Y10900000D02*
G75*
G02*
X-6800000Y11100000I200000J0D01*
G01*
X-6850000Y0D02*
G75*
G02*
X-7000000Y150000I0J150000D01*
G01*
D11*
X-6741723Y-313984D02*
X-6741723Y-113984D01*
X-6741723Y-113984D02*
X-6694104Y-113984D01*
X-6694104Y-113984D02*
X-6665533Y-123508D01*
X-6665533Y-123508D02*
X-6646485Y-142555D01*
X-6646485Y-142555D02*
X-6636961Y-161603D01*
X-6636961Y-161603D02*
X-6627437Y-199698D01*
X-6627437Y-199698D02*
X-6627437Y-228269D01*
X-6627437Y-228269D02*
X-6636961Y-266365D01*
X-6636961Y-266365D02*
X-6646485Y-285412D01*
X-6646485Y-285412D02*
X-6665533Y-304460D01*
X-6665533Y-304460D02*
X-6694104Y-313984D01*
X-6694104Y-313984D02*
X-6741723Y-313984D01*
X-6541723Y-313984D02*
X-6541723Y-180650D01*
X-6541723Y-218746D02*
X-6532199Y-199698D01*
X-6532199Y-199698D02*
X-6522676Y-190174D01*
X-6522676Y-190174D02*
X-6503628Y-180650D01*
X-6503628Y-180650D02*
X-6484580Y-180650D01*
X-6417914Y-313984D02*
X-6417914Y-180650D01*
X-6417914Y-113984D02*
X-6427437Y-123508D01*
X-6427437Y-123508D02*
X-6417914Y-133031D01*
X-6417914Y-133031D02*
X-6408390Y-123508D01*
X-6408390Y-123508D02*
X-6417914Y-113984D01*
X-6417914Y-113984D02*
X-6417914Y-133031D01*
X-6294104Y-313984D02*
X-6313152Y-304460D01*
X-6313152Y-304460D02*
X-6322676Y-285412D01*
X-6322676Y-285412D02*
X-6322676Y-113984D01*
X-6189342Y-313984D02*
X-6208390Y-304460D01*
X-6208390Y-304460D02*
X-6217914Y-285412D01*
X-6217914Y-285412D02*
X-6217914Y-113984D01*
X-5960771Y-313984D02*
X-5960771Y-113984D01*
X-5960771Y-113984D02*
X-5894104Y-256841D01*
X-5894104Y-256841D02*
X-5827437Y-113984D01*
X-5827437Y-113984D02*
X-5827437Y-313984D01*
X-5646485Y-313984D02*
X-5646485Y-209222D01*
X-5646485Y-209222D02*
X-5656009Y-190174D01*
X-5656009Y-190174D02*
X-5675056Y-180650D01*
X-5675056Y-180650D02*
X-5713152Y-180650D01*
X-5713152Y-180650D02*
X-5732199Y-190174D01*
X-5646485Y-304460D02*
X-5665533Y-313984D01*
X-5665533Y-313984D02*
X-5713152Y-313984D01*
X-5713152Y-313984D02*
X-5732199Y-304460D01*
X-5732199Y-304460D02*
X-5741723Y-285412D01*
X-5741723Y-285412D02*
X-5741723Y-266365D01*
X-5741723Y-266365D02*
X-5732199Y-247317D01*
X-5732199Y-247317D02*
X-5713152Y-237793D01*
X-5713152Y-237793D02*
X-5665533Y-237793D01*
X-5665533Y-237793D02*
X-5646485Y-228269D01*
X-5551247Y-180650D02*
X-5551247Y-380650D01*
X-5551247Y-190174D02*
X-5532199Y-180650D01*
X-5532199Y-180650D02*
X-5494104Y-180650D01*
X-5494104Y-180650D02*
X-5475057Y-190174D01*
X-5475057Y-190174D02*
X-5465533Y-199698D01*
X-5465533Y-199698D02*
X-5456009Y-218746D01*
X-5456009Y-218746D02*
X-5456009Y-275889D01*
X-5456009Y-275889D02*
X-5465533Y-294936D01*
X-5465533Y-294936D02*
X-5475057Y-304460D01*
X-5475057Y-304460D02*
X-5494104Y-313984D01*
X-5494104Y-313984D02*
X-5532199Y-313984D01*
X-5532199Y-313984D02*
X-5551247Y-304460D01*
X-5370295Y-294936D02*
X-5360771Y-304460D01*
X-5360771Y-304460D02*
X-5370295Y-313984D01*
X-5370295Y-313984D02*
X-5379818Y-304460D01*
X-5379818Y-304460D02*
X-5370295Y-294936D01*
X-5370295Y-294936D02*
X-5370295Y-313984D01*
X-5370295Y-190174D02*
X-5360771Y-199698D01*
X-5360771Y-199698D02*
X-5370295Y-209222D01*
X-5370295Y-209222D02*
X-5379818Y-199698D01*
X-5379818Y-199698D02*
X-5370295Y-190174D01*
X-5370295Y-190174D02*
X-5370295Y-209222D01*
M02*
