%TF.GenerationSoftware,KiCad,Pcbnew,8.0.6-8.0.6-0~ubuntu24.04.1*%
%TF.CreationDate,2024-10-21T11:40:31+11:00*%
%TF.ProjectId,PCB-Receiver,5043422d-5265-4636-9569-7665722e6b69,rev?*%
%TF.SameCoordinates,Original*%
%TF.FileFunction,Drillmap*%
%TF.FilePolarity,Positive*%
%FSLAX45Y45*%
G04 Gerber Fmt 4.5, Leading zero omitted, Abs format (unit mm)*
G04 Created by KiCad (PCBNEW 8.0.6-8.0.6-0~ubuntu24.04.1) date 2024-10-21 11:40:31*
%MOMM*%
%LPD*%
G01*
G04 APERTURE LIST*
%ADD10C,0.050000*%
%ADD11C,0.200000*%
G04 APERTURE END LIST*
D10*
X7200000Y-2900000D02*
X10040000Y-2900000D01*
X10040000Y-7980000D01*
X7200000Y-7980000D01*
X7200000Y-2900000D01*
D11*
X7458277Y-8293984D02*
X7458277Y-8093984D01*
X7458277Y-8093984D02*
X7505896Y-8093984D01*
X7505896Y-8093984D02*
X7534467Y-8103508D01*
X7534467Y-8103508D02*
X7553515Y-8122555D01*
X7553515Y-8122555D02*
X7563039Y-8141603D01*
X7563039Y-8141603D02*
X7572562Y-8179698D01*
X7572562Y-8179698D02*
X7572562Y-8208269D01*
X7572562Y-8208269D02*
X7563039Y-8246365D01*
X7563039Y-8246365D02*
X7553515Y-8265412D01*
X7553515Y-8265412D02*
X7534467Y-8284460D01*
X7534467Y-8284460D02*
X7505896Y-8293984D01*
X7505896Y-8293984D02*
X7458277Y-8293984D01*
X7658277Y-8293984D02*
X7658277Y-8160650D01*
X7658277Y-8198746D02*
X7667801Y-8179698D01*
X7667801Y-8179698D02*
X7677324Y-8170174D01*
X7677324Y-8170174D02*
X7696372Y-8160650D01*
X7696372Y-8160650D02*
X7715420Y-8160650D01*
X7782086Y-8293984D02*
X7782086Y-8160650D01*
X7782086Y-8093984D02*
X7772562Y-8103508D01*
X7772562Y-8103508D02*
X7782086Y-8113031D01*
X7782086Y-8113031D02*
X7791610Y-8103508D01*
X7791610Y-8103508D02*
X7782086Y-8093984D01*
X7782086Y-8093984D02*
X7782086Y-8113031D01*
X7905896Y-8293984D02*
X7886848Y-8284460D01*
X7886848Y-8284460D02*
X7877324Y-8265412D01*
X7877324Y-8265412D02*
X7877324Y-8093984D01*
X8010658Y-8293984D02*
X7991610Y-8284460D01*
X7991610Y-8284460D02*
X7982086Y-8265412D01*
X7982086Y-8265412D02*
X7982086Y-8093984D01*
X8239229Y-8293984D02*
X8239229Y-8093984D01*
X8239229Y-8093984D02*
X8305896Y-8236841D01*
X8305896Y-8236841D02*
X8372562Y-8093984D01*
X8372562Y-8093984D02*
X8372562Y-8293984D01*
X8553515Y-8293984D02*
X8553515Y-8189222D01*
X8553515Y-8189222D02*
X8543991Y-8170174D01*
X8543991Y-8170174D02*
X8524944Y-8160650D01*
X8524944Y-8160650D02*
X8486848Y-8160650D01*
X8486848Y-8160650D02*
X8467801Y-8170174D01*
X8553515Y-8284460D02*
X8534467Y-8293984D01*
X8534467Y-8293984D02*
X8486848Y-8293984D01*
X8486848Y-8293984D02*
X8467801Y-8284460D01*
X8467801Y-8284460D02*
X8458277Y-8265412D01*
X8458277Y-8265412D02*
X8458277Y-8246365D01*
X8458277Y-8246365D02*
X8467801Y-8227317D01*
X8467801Y-8227317D02*
X8486848Y-8217793D01*
X8486848Y-8217793D02*
X8534467Y-8217793D01*
X8534467Y-8217793D02*
X8553515Y-8208269D01*
X8648753Y-8160650D02*
X8648753Y-8360650D01*
X8648753Y-8170174D02*
X8667801Y-8160650D01*
X8667801Y-8160650D02*
X8705896Y-8160650D01*
X8705896Y-8160650D02*
X8724944Y-8170174D01*
X8724944Y-8170174D02*
X8734467Y-8179698D01*
X8734467Y-8179698D02*
X8743991Y-8198746D01*
X8743991Y-8198746D02*
X8743991Y-8255888D01*
X8743991Y-8255888D02*
X8734467Y-8274936D01*
X8734467Y-8274936D02*
X8724944Y-8284460D01*
X8724944Y-8284460D02*
X8705896Y-8293984D01*
X8705896Y-8293984D02*
X8667801Y-8293984D01*
X8667801Y-8293984D02*
X8648753Y-8284460D01*
X8829705Y-8274936D02*
X8839229Y-8284460D01*
X8839229Y-8284460D02*
X8829705Y-8293984D01*
X8829705Y-8293984D02*
X8820182Y-8284460D01*
X8820182Y-8284460D02*
X8829705Y-8274936D01*
X8829705Y-8274936D02*
X8829705Y-8293984D01*
X8829705Y-8170174D02*
X8839229Y-8179698D01*
X8839229Y-8179698D02*
X8829705Y-8189222D01*
X8829705Y-8189222D02*
X8820182Y-8179698D01*
X8820182Y-8179698D02*
X8829705Y-8170174D01*
X8829705Y-8170174D02*
X8829705Y-8189222D01*
M02*
