%TF.GenerationSoftware,KiCad,Pcbnew,8.0.6-8.0.6-0~ubuntu24.04.1*%
%TF.CreationDate,2024-10-21T11:40:19+11:00*%
%TF.ProjectId,PCB-Receiver,5043422d-5265-4636-9569-7665722e6b69,rev?*%
%TF.SameCoordinates,Original*%
%TF.FileFunction,Copper,L1,Top*%
%TF.FilePolarity,Positive*%
%FSLAX46Y46*%
G04 Gerber Fmt 4.6, Leading zero omitted, Abs format (unit mm)*
G04 Created by KiCad (PCBNEW 8.0.6-8.0.6-0~ubuntu24.04.1) date 2024-10-21 11:40:19*
%MOMM*%
%LPD*%
G01*
G04 APERTURE LIST*
G04 Aperture macros list*
%AMRoundRect*
0 Rectangle with rounded corners*
0 $1 Rounding radius*
0 $2 $3 $4 $5 $6 $7 $8 $9 X,Y pos of 4 corners*
0 Add a 4 corners polygon primitive as box body*
4,1,4,$2,$3,$4,$5,$6,$7,$8,$9,$2,$3,0*
0 Add four circle primitives for the rounded corners*
1,1,$1+$1,$2,$3*
1,1,$1+$1,$4,$5*
1,1,$1+$1,$6,$7*
1,1,$1+$1,$8,$9*
0 Add four rect primitives between the rounded corners*
20,1,$1+$1,$2,$3,$4,$5,0*
20,1,$1+$1,$4,$5,$6,$7,0*
20,1,$1+$1,$6,$7,$8,$9,0*
20,1,$1+$1,$8,$9,$2,$3,0*%
G04 Aperture macros list end*
%TA.AperFunction,SMDPad,CuDef*%
%ADD10RoundRect,0.250000X-0.475000X0.250000X-0.475000X-0.250000X0.475000X-0.250000X0.475000X0.250000X0*%
%TD*%
%TA.AperFunction,SMDPad,CuDef*%
%ADD11RoundRect,0.250000X0.475000X-0.250000X0.475000X0.250000X-0.475000X0.250000X-0.475000X-0.250000X0*%
%TD*%
%TA.AperFunction,ComponentPad*%
%ADD12R,2.600000X2.600000*%
%TD*%
%TA.AperFunction,ComponentPad*%
%ADD13C,2.600000*%
%TD*%
%TA.AperFunction,SMDPad,CuDef*%
%ADD14RoundRect,0.150000X0.150000X-0.587500X0.150000X0.587500X-0.150000X0.587500X-0.150000X-0.587500X0*%
%TD*%
%TA.AperFunction,SMDPad,CuDef*%
%ADD15RoundRect,0.200000X0.200000X0.275000X-0.200000X0.275000X-0.200000X-0.275000X0.200000X-0.275000X0*%
%TD*%
%TA.AperFunction,SMDPad,CuDef*%
%ADD16RoundRect,0.250000X1.000000X0.650000X-1.000000X0.650000X-1.000000X-0.650000X1.000000X-0.650000X0*%
%TD*%
%TA.AperFunction,ComponentPad*%
%ADD17O,2.300000X1.500000*%
%TD*%
%TA.AperFunction,ComponentPad*%
%ADD18R,2.300000X1.500000*%
%TD*%
%TA.AperFunction,SMDPad,CuDef*%
%ADD19RoundRect,0.200000X-0.200000X-0.275000X0.200000X-0.275000X0.200000X0.275000X-0.200000X0.275000X0*%
%TD*%
%TA.AperFunction,SMDPad,CuDef*%
%ADD20R,1.300000X1.550000*%
%TD*%
%TA.AperFunction,SMDPad,CuDef*%
%ADD21RoundRect,0.243750X0.243750X0.456250X-0.243750X0.456250X-0.243750X-0.456250X0.243750X-0.456250X0*%
%TD*%
%TA.AperFunction,ViaPad*%
%ADD22C,0.600000*%
%TD*%
%TA.AperFunction,Conductor*%
%ADD23C,0.200000*%
%TD*%
G04 APERTURE END LIST*
D10*
%TO.P,C2,1*%
%TO.N,+5V*%
X89000000Y-69550000D03*
%TO.P,C2,2*%
%TO.N,GND*%
X89000000Y-71450000D03*
%TD*%
D11*
%TO.P,C1,1*%
%TO.N,Net-(D1-K)*%
X89000000Y-75950000D03*
%TO.P,C1,2*%
%TO.N,GND*%
X89000000Y-74050000D03*
%TD*%
D12*
%TO.P,J5,1,Pin_1*%
%TO.N,GND*%
X95305000Y-51970000D03*
D13*
%TO.P,J5,2,Pin_2*%
%TO.N,/DOWN*%
X95305000Y-46970000D03*
%TD*%
D12*
%TO.P,J3,1,Pin_1*%
%TO.N,+12V*%
X76750000Y-32000000D03*
D13*
%TO.P,J3,2,Pin_2*%
%TO.N,/UP*%
X76750000Y-37000000D03*
%TO.P,J3,3,Pin_3*%
%TO.N,/STOP*%
X76750000Y-42000000D03*
%TD*%
D12*
%TO.P,J1,1,Pin_1*%
%TO.N,/STOP*%
X95305000Y-41970000D03*
D13*
%TO.P,J1,2,Pin_2*%
%TO.N,/UP*%
X95305000Y-36970000D03*
%TO.P,J1,3,Pin_3*%
%TO.N,+12V*%
X95305000Y-31970000D03*
%TD*%
D12*
%TO.P,J2,1,Pin_1*%
%TO.N,/DOWN*%
X76695000Y-47000000D03*
D13*
%TO.P,J2,2,Pin_2*%
%TO.N,GND*%
X76695000Y-52000000D03*
%TD*%
D14*
%TO.P,Q3,1,G*%
%TO.N,Net-(Q3-G)*%
X90000000Y-61000000D03*
%TO.P,Q3,2,S*%
%TO.N,GND*%
X91900000Y-61000000D03*
%TO.P,Q3,3,D*%
%TO.N,/STOP*%
X90950000Y-59125000D03*
%TD*%
D15*
%TO.P,R1,1*%
%TO.N,/CTRL_UP*%
X86775000Y-63062500D03*
%TO.P,R1,2*%
%TO.N,Net-(Q1-G)*%
X85125000Y-63062500D03*
%TD*%
%TO.P,R2,1*%
%TO.N,GND*%
X86775000Y-65062500D03*
%TO.P,R2,2*%
%TO.N,Net-(Q1-G)*%
X85125000Y-65062500D03*
%TD*%
D16*
%TO.P,D1,1,K*%
%TO.N,Net-(D1-K)*%
X88000000Y-56250000D03*
%TO.P,D1,2,A*%
%TO.N,+12V*%
X84000000Y-56250000D03*
%TD*%
D17*
%TO.P,U2,3,VO*%
%TO.N,+5V*%
X97207500Y-70367000D03*
%TO.P,U2,2,GND*%
%TO.N,GND*%
X97207500Y-72907000D03*
D18*
%TO.P,U2,1,VI*%
%TO.N,Net-(D1-K)*%
X97207500Y-75447000D03*
%TD*%
D15*
%TO.P,R5,1*%
%TO.N,/CTRL_STOP*%
X91775000Y-63062500D03*
%TO.P,R5,2*%
%TO.N,Net-(Q3-G)*%
X90125000Y-63062500D03*
%TD*%
%TO.P,R3,1*%
%TO.N,/CTRL_DOWN*%
X96950000Y-63062500D03*
%TO.P,R3,2*%
%TO.N,Net-(Q2-G)*%
X95300000Y-63062500D03*
%TD*%
D19*
%TO.P,R7,1*%
%TO.N,Net-(D2-K)*%
X79175000Y-76000000D03*
%TO.P,R7,2*%
%TO.N,/LED_ACT*%
X80825000Y-76000000D03*
%TD*%
D14*
%TO.P,Q1,1,G*%
%TO.N,Net-(Q1-G)*%
X85000000Y-61000000D03*
%TO.P,Q1,2,S*%
%TO.N,GND*%
X86900000Y-61000000D03*
%TO.P,Q1,3,D*%
%TO.N,/UP*%
X85950000Y-59125000D03*
%TD*%
D15*
%TO.P,R6,1*%
%TO.N,GND*%
X91775000Y-65062500D03*
%TO.P,R6,2*%
%TO.N,Net-(Q3-G)*%
X90125000Y-65062500D03*
%TD*%
D20*
%TO.P,SW1,1,1*%
%TO.N,/CODE*%
X75750000Y-65975000D03*
X75750000Y-58025000D03*
%TO.P,SW1,2,2*%
%TO.N,GND*%
X80250000Y-65975000D03*
X80250000Y-58025000D03*
%TD*%
D19*
%TO.P,R8,1*%
%TO.N,Net-(D3-K)*%
X79175000Y-69750000D03*
%TO.P,R8,2*%
%TO.N,/LED_STATUS*%
X80825000Y-69750000D03*
%TD*%
D14*
%TO.P,Q2,1,G*%
%TO.N,Net-(Q2-G)*%
X95175000Y-61000000D03*
%TO.P,Q2,2,S*%
%TO.N,GND*%
X97075000Y-61000000D03*
%TO.P,Q2,3,D*%
%TO.N,/DOWN*%
X96125000Y-59125000D03*
%TD*%
D21*
%TO.P,D2,1,K*%
%TO.N,Net-(D2-K)*%
X76937500Y-76000000D03*
%TO.P,D2,2,A*%
%TO.N,+3V3*%
X75062500Y-76000000D03*
%TD*%
D15*
%TO.P,R4,1*%
%TO.N,GND*%
X96950000Y-65062500D03*
%TO.P,R4,2*%
%TO.N,Net-(Q2-G)*%
X95300000Y-65062500D03*
%TD*%
D21*
%TO.P,D3,1,K*%
%TO.N,Net-(D3-K)*%
X76937500Y-69750000D03*
%TO.P,D3,2,A*%
%TO.N,+3V3*%
X75062500Y-69750000D03*
%TD*%
D22*
%TO.N,GND*%
X73750000Y-78250000D03*
%TO.N,/CODE*%
X76930900Y-57875000D03*
%TO.N,/LED_STATUS*%
X81151300Y-68692500D03*
%TO.N,/LED_ACT*%
X84793000Y-66857200D03*
%TO.N,/CTRL_STOP*%
X90950000Y-66259100D03*
%TO.N,/CTRL_DOWN*%
X96950000Y-64062500D03*
%TO.N,/CTRL_UP*%
X86775000Y-64069600D03*
%TO.N,+3V3*%
X81250000Y-74250000D03*
%TD*%
D23*
%TO.N,GND*%
X97207500Y-72907000D02*
X97807250Y-72907000D01*
X97807250Y-72907000D02*
X99000000Y-74099750D01*
X99000000Y-77000000D02*
X97750000Y-78250000D01*
X99000000Y-74099750D02*
X99000000Y-77000000D01*
X97750000Y-78250000D02*
X73750000Y-78250000D01*
%TO.N,Net-(D1-K)*%
X89169700Y-75780300D02*
X87030300Y-75780300D01*
X87030300Y-75780300D02*
X86000000Y-74750000D01*
X86000000Y-74750000D02*
X86000000Y-60521948D01*
X86000000Y-60521948D02*
X88000000Y-58521948D01*
X88000000Y-58521948D02*
X88000000Y-56250000D01*
X97207500Y-75447000D02*
X96654500Y-76000000D01*
X96654500Y-76000000D02*
X89389400Y-76000000D01*
X89389400Y-76000000D02*
X89169700Y-75780300D01*
%TO.N,+3V3*%
X81250000Y-74250000D02*
X76812500Y-74250000D01*
X76812500Y-74250000D02*
X76362500Y-74700000D01*
%TO.N,+5V*%
X89817000Y-70367000D02*
X89000000Y-69550000D01*
X97207500Y-70367000D02*
X89817000Y-70367000D01*
%TO.N,/CODE*%
X75750000Y-58025000D02*
X75750000Y-65975000D01*
X75750000Y-58025000D02*
X76701700Y-58025000D01*
X76851700Y-57875000D02*
X76701700Y-58025000D01*
X76930900Y-57875000D02*
X76851700Y-57875000D01*
%TO.N,/LED_STATUS*%
X80825000Y-69018800D02*
X80825000Y-69750000D01*
X81151300Y-68692500D02*
X80825000Y-69018800D01*
%TO.N,/LED_ACT*%
X84793000Y-72032000D02*
X80825000Y-76000000D01*
X84793000Y-66857200D02*
X84793000Y-72032000D01*
%TO.N,/CTRL_STOP*%
X90950000Y-63887500D02*
X91775000Y-63062500D01*
X90950000Y-66259100D02*
X90950000Y-63887500D01*
%TO.N,/CTRL_DOWN*%
X96950000Y-63062500D02*
X96950000Y-64062500D01*
%TO.N,/CTRL_UP*%
X86775000Y-63062500D02*
X86775000Y-64069600D01*
%TO.N,Net-(Q3-G)*%
X90125000Y-65062500D02*
X90125000Y-63062500D01*
X90125000Y-61125000D02*
X90000000Y-61000000D01*
X90125000Y-63062500D02*
X90125000Y-61125000D01*
%TO.N,Net-(Q2-G)*%
X95300000Y-65062500D02*
X95300000Y-63062500D01*
X95175000Y-62937500D02*
X95175000Y-61000000D01*
X95300000Y-63062500D02*
X95175000Y-62937500D01*
%TO.N,Net-(Q1-G)*%
X85125000Y-65062500D02*
X85125000Y-63062500D01*
X85125000Y-61125000D02*
X85000000Y-61000000D01*
X85125000Y-63062500D02*
X85125000Y-61125000D01*
%TO.N,/STOP*%
X90950000Y-47926700D02*
X95305000Y-43571700D01*
X90950000Y-59125000D02*
X90950000Y-47926700D01*
X95305000Y-41970000D02*
X95305000Y-43571700D01*
%TO.N,/DOWN*%
X96906700Y-48571700D02*
X95305000Y-46970000D01*
X96906700Y-58343300D02*
X96906700Y-48571700D01*
X96125000Y-59125000D02*
X96906700Y-58343300D01*
%TO.N,GND*%
X80250000Y-58025000D02*
X80250000Y-65975000D01*
X80250000Y-55555000D02*
X80250000Y-58025000D01*
X76695000Y-52000000D02*
X80250000Y-55555000D01*
X92543200Y-61643200D02*
X91900000Y-61000000D01*
X92543200Y-64294300D02*
X92543200Y-61643200D01*
X91775000Y-65062500D02*
X92543200Y-64294300D01*
X95305000Y-51970000D02*
X95305000Y-53571700D01*
X97207500Y-72907000D02*
X95755800Y-72907000D01*
X89000000Y-72907000D02*
X95755800Y-72907000D01*
X89000000Y-74050000D02*
X89000000Y-72907000D01*
X87533500Y-64304000D02*
X86775000Y-65062500D01*
X87533500Y-61000000D02*
X87533500Y-64304000D01*
X88613700Y-59919800D02*
X87533500Y-61000000D01*
X90307300Y-59919800D02*
X88613700Y-59919800D01*
X91387500Y-61000000D02*
X90307300Y-59919800D01*
X91900000Y-61000000D02*
X91387500Y-61000000D01*
X87533500Y-61000000D02*
X86900000Y-61000000D01*
X89000000Y-72907000D02*
X89000000Y-71450000D01*
X86775000Y-69225000D02*
X86775000Y-65062500D01*
X89000000Y-71450000D02*
X86775000Y-69225000D01*
X93145100Y-59754900D02*
X95305000Y-59754900D01*
X91900000Y-61000000D02*
X93145100Y-59754900D01*
X95305000Y-59754900D02*
X95305000Y-53571700D01*
X96241500Y-61381300D02*
X96622800Y-61000000D01*
X96241500Y-64354000D02*
X96241500Y-61381300D01*
X96950000Y-65062500D02*
X96241500Y-64354000D01*
X95377700Y-59754900D02*
X96622800Y-61000000D01*
X95305000Y-59754900D02*
X95377700Y-59754900D01*
X96622800Y-61000000D02*
X97075000Y-61000000D01*
%TO.N,/UP*%
X85950000Y-46325000D02*
X95305000Y-36970000D01*
X85950000Y-59125000D02*
X85950000Y-46325000D01*
%TO.N,Net-(D3-K)*%
X76937500Y-69750000D02*
X79175000Y-69750000D01*
%TO.N,+3V3*%
X75062500Y-73400000D02*
X76362500Y-74700000D01*
X75062500Y-69750000D02*
X75062500Y-73400000D01*
X76362500Y-74700000D02*
X75062500Y-76000000D01*
%TO.N,Net-(D2-K)*%
X76937500Y-76000000D02*
X79175000Y-76000000D01*
%TO.N,Net-(D1-K)*%
X89169700Y-75780300D02*
X89000000Y-75950000D01*
%TO.N,+12V*%
X76750000Y-32000000D02*
X76750000Y-33601700D01*
X92881700Y-31970000D02*
X84000000Y-40851700D01*
X95305000Y-31970000D02*
X92881700Y-31970000D01*
X84000000Y-56250000D02*
X84000000Y-40851700D01*
X84000000Y-40851700D02*
X76750000Y-33601700D01*
%TD*%
M02*
