%TF.GenerationSoftware,KiCad,Pcbnew,8.0.6-8.0.6-0~ubuntu24.04.1*%
%TF.CreationDate,2024-10-21T11:40:19+11:00*%
%TF.ProjectId,PCB-Receiver,5043422d-5265-4636-9569-7665722e6b69,rev?*%
%TF.SameCoordinates,Original*%
%TF.FileFunction,Copper,L2,Bot*%
%TF.FilePolarity,Positive*%
%FSLAX46Y46*%
G04 Gerber Fmt 4.6, Leading zero omitted, Abs format (unit mm)*
G04 Created by KiCad (PCBNEW 8.0.6-8.0.6-0~ubuntu24.04.1) date 2024-10-21 11:40:19*
%MOMM*%
%LPD*%
G01*
G04 APERTURE LIST*
%TA.AperFunction,SMDPad,CuDef*%
%ADD10R,2.000000X3.000000*%
%TD*%
%TA.AperFunction,SMDPad,CuDef*%
%ADD11C,1.500000*%
%TD*%
%TA.AperFunction,SMDPad,CuDef*%
%ADD12R,1.300000X2.300000*%
%TD*%
%TA.AperFunction,SMDPad,CuDef*%
%ADD13R,3.500000X3.500000*%
%TD*%
%TA.AperFunction,ComponentPad*%
%ADD14R,2.600000X2.600000*%
%TD*%
%TA.AperFunction,ComponentPad*%
%ADD15C,2.600000*%
%TD*%
%TA.AperFunction,ComponentPad*%
%ADD16O,2.300000X1.500000*%
%TD*%
%TA.AperFunction,ComponentPad*%
%ADD17R,2.300000X1.500000*%
%TD*%
%TA.AperFunction,ViaPad*%
%ADD18C,0.600000*%
%TD*%
%TA.AperFunction,Conductor*%
%ADD19C,0.200000*%
%TD*%
G04 APERTURE END LIST*
D10*
%TO.P,U3,1,PA02_A0_D0*%
%TO.N,unconnected-(U3-PA02_A0_D0-Pad1)*%
X76300000Y-60000000D03*
%TO.P,U3,2,PA4_A1_D1*%
%TO.N,unconnected-(U3-PA4_A1_D1-Pad2)*%
X78840000Y-60000000D03*
%TO.P,U3,3,PA10_A2_D2*%
%TO.N,unconnected-(U3-PA10_A2_D2-Pad3)*%
X81380000Y-60000000D03*
%TO.P,U3,4,PA11_A3_D3*%
%TO.N,unconnected-(U3-PA11_A3_D3-Pad4)*%
X83920000Y-60000000D03*
%TO.P,U3,5,PA8_A4_D4_SDA*%
%TO.N,/LED_STATUS*%
X86460000Y-60000000D03*
%TO.P,U3,6,PA9_A5_D5_SCL*%
%TO.N,/LED_ACT*%
X89000000Y-60000000D03*
%TO.P,U3,7,PB08_A6_D6_TX*%
%TO.N,/CODE*%
X91540000Y-60000000D03*
%TO.P,U3,8,PB09_A7_D7_RX*%
%TO.N,/CTRL_DOWN*%
X91540000Y-77000000D03*
%TO.P,U3,9,PA7_A8_D8_SCK*%
%TO.N,/CTRL_STOP*%
X89000000Y-77000000D03*
%TO.P,U3,10,PA5_A9_D9_MISO*%
%TO.N,/CTRL_UP*%
X86460000Y-77000000D03*
%TO.P,U3,11,PA6_A10_D10_MOSI*%
%TO.N,unconnected-(U3-PA6_A10_D10_MOSI-Pad11)*%
X83920000Y-77000000D03*
%TO.P,U3,12,3V3*%
%TO.N,+3V3*%
X81380000Y-77000000D03*
%TO.P,U3,13,GND*%
%TO.N,GND*%
X78840000Y-77000000D03*
%TO.P,U3,14,5V*%
%TO.N,+5V*%
X76300000Y-77000000D03*
D11*
%TO.P,U3,15,5V*%
%TO.N,unconnected-(U3-5V-Pad15)*%
X75340000Y-67230000D03*
%TO.P,U3,16,GND*%
%TO.N,GND*%
X75340000Y-69770000D03*
%TO.P,U3,17,PA31_SWDIO*%
%TO.N,unconnected-(U3-PA31_SWDIO-Pad17)*%
X77880000Y-67230000D03*
%TO.P,U3,18,PA30_SWCLK*%
%TO.N,unconnected-(U3-PA30_SWCLK-Pad18)*%
X77880000Y-69770000D03*
%TO.P,U3,19,RESET*%
%TO.N,unconnected-(U3-RESET-Pad19)*%
X80420000Y-67230000D03*
%TO.P,U3,20,GND*%
%TO.N,GND*%
X80420000Y-69770000D03*
D12*
%TO.P,U3,21*%
%TO.N,N/C*%
X81620000Y-64000000D03*
%TO.P,U3,22*%
X83520000Y-64000000D03*
D13*
%TO.P,U3,23*%
X84520000Y-70600000D03*
%TD*%
D14*
%TO.P,J5,1,Pin_1*%
%TO.N,GND*%
X95305000Y-51970000D03*
D15*
%TO.P,J5,2,Pin_2*%
%TO.N,/DOWN*%
X95305000Y-46970000D03*
%TD*%
D14*
%TO.P,J3,1,Pin_1*%
%TO.N,+12V*%
X76750000Y-32000000D03*
D15*
%TO.P,J3,2,Pin_2*%
%TO.N,/UP*%
X76750000Y-37000000D03*
%TO.P,J3,3,Pin_3*%
%TO.N,/STOP*%
X76750000Y-42000000D03*
%TD*%
D14*
%TO.P,J1,1,Pin_1*%
%TO.N,/STOP*%
X95305000Y-41970000D03*
D15*
%TO.P,J1,2,Pin_2*%
%TO.N,/UP*%
X95305000Y-36970000D03*
%TO.P,J1,3,Pin_3*%
%TO.N,+12V*%
X95305000Y-31970000D03*
%TD*%
D14*
%TO.P,J2,1,Pin_1*%
%TO.N,/DOWN*%
X76695000Y-47000000D03*
D15*
%TO.P,J2,2,Pin_2*%
%TO.N,GND*%
X76695000Y-52000000D03*
%TD*%
D16*
%TO.P,U2,3,VO*%
%TO.N,+5V*%
X97207500Y-70367000D03*
%TO.P,U2,2,GND*%
%TO.N,GND*%
X97207500Y-72907000D03*
D17*
%TO.P,U2,1,VI*%
%TO.N,Net-(D1-K)*%
X97207500Y-75447000D03*
%TD*%
D18*
%TO.N,GND*%
X73750000Y-78250000D03*
%TO.N,/CODE*%
X76930900Y-57875000D03*
%TO.N,/LED_STATUS*%
X81151300Y-68692500D03*
%TO.N,/LED_ACT*%
X84793000Y-66857200D03*
%TO.N,/CTRL_STOP*%
X90950000Y-66259100D03*
%TO.N,/CTRL_DOWN*%
X96950000Y-64062500D03*
%TO.N,/CTRL_UP*%
X86775000Y-64069600D03*
%TO.N,+3V3*%
X81250000Y-74250000D03*
%TD*%
D19*
%TO.N,+5V*%
X76300000Y-77000000D02*
X76300000Y-79000000D01*
X76300000Y-79000000D02*
X93000000Y-79000000D01*
X93000000Y-79000000D02*
X93750000Y-78250000D01*
X96633000Y-70367000D02*
X97207500Y-70367000D01*
X93750000Y-78250000D02*
X93750000Y-73250000D01*
X93750000Y-73250000D02*
X96633000Y-70367000D01*
%TO.N,+3V3*%
X81250000Y-74250000D02*
X81250000Y-75000000D01*
X81250000Y-75000000D02*
X81380000Y-75130000D01*
X81380000Y-75130000D02*
X81380000Y-77000000D01*
%TO.N,/CODE*%
X77254200Y-58198300D02*
X76930900Y-57875000D01*
X91540000Y-58198300D02*
X77254200Y-58198300D01*
X91540000Y-60000000D02*
X91540000Y-58198300D01*
%TO.N,/LED_STATUS*%
X85579800Y-64264000D02*
X81151300Y-68692500D01*
X85579800Y-62681900D02*
X85579800Y-64264000D01*
X86460000Y-61801700D02*
X85579800Y-62681900D01*
X86460000Y-60000000D02*
X86460000Y-61801700D01*
%TO.N,/LED_ACT*%
X89000000Y-60000000D02*
X89000000Y-61801700D01*
X88149600Y-61801700D02*
X89000000Y-61801700D01*
X85981500Y-63969800D02*
X88149600Y-61801700D01*
X85981500Y-65668700D02*
X85981500Y-63969800D01*
X84793000Y-66857200D02*
X85981500Y-65668700D01*
%TO.N,/CTRL_STOP*%
X89000000Y-68209100D02*
X90950000Y-66259100D01*
X89000000Y-77000000D02*
X89000000Y-68209100D01*
%TO.N,/CTRL_DOWN*%
X91540000Y-69472500D02*
X96950000Y-64062500D01*
X91540000Y-77000000D02*
X91540000Y-69472500D01*
%TO.N,/CTRL_UP*%
X86460000Y-77000000D02*
X86460000Y-75198300D01*
X86775000Y-74883300D02*
X86775000Y-64069600D01*
X86460000Y-75198300D02*
X86775000Y-74883300D01*
%TO.N,/STOP*%
X76780000Y-41970000D02*
X76750000Y-42000000D01*
X95305000Y-41970000D02*
X76780000Y-41970000D01*
%TO.N,/DOWN*%
X78326700Y-46970000D02*
X78296700Y-47000000D01*
X95305000Y-46970000D02*
X78326700Y-46970000D01*
X76695000Y-47000000D02*
X78296700Y-47000000D01*
%TO.N,GND*%
X95305000Y-51970000D02*
X93703300Y-51970000D01*
X93673300Y-52000000D02*
X93703300Y-51970000D01*
X76695000Y-52000000D02*
X93673300Y-52000000D01*
%TO.N,/UP*%
X76780000Y-36970000D02*
X76750000Y-37000000D01*
X95305000Y-36970000D02*
X76780000Y-36970000D01*
%TD*%
%TA.AperFunction,Conductor*%
%TO.N,GND*%
G36*
X99842539Y-29520185D02*
G01*
X99888294Y-29572989D01*
X99899500Y-29624500D01*
X99899500Y-79175500D01*
X99879815Y-79242539D01*
X99827011Y-79288294D01*
X99775500Y-79299500D01*
X93849097Y-79299500D01*
X93782058Y-79279815D01*
X93736303Y-79227011D01*
X93726359Y-79157853D01*
X93755384Y-79094297D01*
X93761416Y-79087819D01*
X93991690Y-78857544D01*
X94118713Y-78730521D01*
X94118716Y-78730520D01*
X94230520Y-78618716D01*
X94280639Y-78531904D01*
X94309577Y-78481785D01*
X94350500Y-78329057D01*
X94350500Y-78170943D01*
X94350500Y-73550097D01*
X94370185Y-73483058D01*
X94386819Y-73462416D01*
X94881141Y-72968094D01*
X95393124Y-72456110D01*
X95454445Y-72422627D01*
X95524137Y-72427611D01*
X95580070Y-72469483D01*
X95604487Y-72534947D01*
X95598734Y-72582110D01*
X95588282Y-72614277D01*
X95588281Y-72614281D01*
X95581516Y-72657000D01*
X96774488Y-72657000D01*
X96741575Y-72714007D01*
X96707500Y-72841174D01*
X96707500Y-72972826D01*
X96741575Y-73099993D01*
X96774488Y-73157000D01*
X95581516Y-73157000D01*
X95588281Y-73199716D01*
X95649081Y-73386837D01*
X95738404Y-73562143D01*
X95854055Y-73721321D01*
X95993177Y-73860443D01*
X96146971Y-73972182D01*
X96189636Y-74027512D01*
X96195615Y-74097126D01*
X96163009Y-74158921D01*
X96102170Y-74193278D01*
X96074087Y-74196500D01*
X96009630Y-74196500D01*
X96009623Y-74196501D01*
X95950016Y-74202908D01*
X95815171Y-74253202D01*
X95815164Y-74253206D01*
X95699955Y-74339452D01*
X95699952Y-74339455D01*
X95613706Y-74454664D01*
X95613702Y-74454671D01*
X95563408Y-74589517D01*
X95557001Y-74649116D01*
X95557001Y-74649123D01*
X95557000Y-74649135D01*
X95557000Y-76244870D01*
X95557001Y-76244876D01*
X95563408Y-76304483D01*
X95613702Y-76439328D01*
X95613706Y-76439335D01*
X95699952Y-76554544D01*
X95699955Y-76554547D01*
X95815164Y-76640793D01*
X95815171Y-76640797D01*
X95950017Y-76691091D01*
X95950016Y-76691091D01*
X95956944Y-76691835D01*
X96009627Y-76697500D01*
X98405372Y-76697499D01*
X98464983Y-76691091D01*
X98599831Y-76640796D01*
X98715046Y-76554546D01*
X98801296Y-76439331D01*
X98851591Y-76304483D01*
X98858000Y-76244873D01*
X98857999Y-74649128D01*
X98851591Y-74589517D01*
X98849235Y-74583201D01*
X98801297Y-74454671D01*
X98801293Y-74454664D01*
X98715047Y-74339455D01*
X98715044Y-74339452D01*
X98599835Y-74253206D01*
X98599828Y-74253202D01*
X98464982Y-74202908D01*
X98464983Y-74202908D01*
X98405383Y-74196501D01*
X98405381Y-74196500D01*
X98405373Y-74196500D01*
X98405365Y-74196500D01*
X98340915Y-74196500D01*
X98273876Y-74176815D01*
X98228121Y-74124011D01*
X98218177Y-74054853D01*
X98247202Y-73991297D01*
X98268029Y-73972182D01*
X98421821Y-73860443D01*
X98421822Y-73860443D01*
X98560944Y-73721321D01*
X98676595Y-73562143D01*
X98765918Y-73386837D01*
X98826718Y-73199716D01*
X98833484Y-73157000D01*
X97640512Y-73157000D01*
X97673425Y-73099993D01*
X97707500Y-72972826D01*
X97707500Y-72841174D01*
X97673425Y-72714007D01*
X97640512Y-72657000D01*
X98833484Y-72657000D01*
X98826718Y-72614283D01*
X98765918Y-72427162D01*
X98676595Y-72251856D01*
X98560944Y-72092678D01*
X98421821Y-71953555D01*
X98262643Y-71837904D01*
X98085735Y-71747765D01*
X98034939Y-71699790D01*
X98018144Y-71631969D01*
X98040681Y-71565835D01*
X98085736Y-71526795D01*
X98087522Y-71525884D01*
X98087525Y-71525884D01*
X98262905Y-71436524D01*
X98422146Y-71320828D01*
X98561328Y-71181646D01*
X98677024Y-71022405D01*
X98766384Y-70847025D01*
X98827209Y-70659826D01*
X98833376Y-70620890D01*
X98858000Y-70465422D01*
X98858000Y-70268577D01*
X98827209Y-70074173D01*
X98766382Y-69886970D01*
X98708105Y-69772596D01*
X98677024Y-69711595D01*
X98561328Y-69552354D01*
X98422146Y-69413172D01*
X98262905Y-69297476D01*
X98256426Y-69294175D01*
X98087529Y-69208117D01*
X97900326Y-69147290D01*
X97705922Y-69116500D01*
X97705917Y-69116500D01*
X96709083Y-69116500D01*
X96709078Y-69116500D01*
X96514673Y-69147290D01*
X96327470Y-69208117D01*
X96152094Y-69297476D01*
X96084461Y-69346615D01*
X95992854Y-69413172D01*
X95992852Y-69413174D01*
X95992851Y-69413174D01*
X95853674Y-69552351D01*
X95853674Y-69552352D01*
X95853672Y-69552354D01*
X95803985Y-69620741D01*
X95737976Y-69711594D01*
X95648617Y-69886970D01*
X95587790Y-70074173D01*
X95557000Y-70268577D01*
X95557000Y-70465421D01*
X95564664Y-70513811D01*
X95555709Y-70583105D01*
X95529872Y-70620890D01*
X93381286Y-72769478D01*
X93269481Y-72881282D01*
X93269479Y-72881285D01*
X93219361Y-72968094D01*
X93219359Y-72968096D01*
X93190425Y-73018209D01*
X93190424Y-73018210D01*
X93190423Y-73018215D01*
X93149499Y-73170943D01*
X93149499Y-73170945D01*
X93149499Y-73339046D01*
X93149500Y-73339059D01*
X93149500Y-75106464D01*
X93129815Y-75173503D01*
X93077011Y-75219258D01*
X93007853Y-75229202D01*
X92944297Y-75200177D01*
X92926234Y-75180776D01*
X92920202Y-75172719D01*
X92897546Y-75142454D01*
X92897544Y-75142453D01*
X92897544Y-75142452D01*
X92782335Y-75056206D01*
X92782328Y-75056202D01*
X92647482Y-75005908D01*
X92647483Y-75005908D01*
X92587883Y-74999501D01*
X92587881Y-74999500D01*
X92587873Y-74999500D01*
X92587865Y-74999500D01*
X92264500Y-74999500D01*
X92197461Y-74979815D01*
X92151706Y-74927011D01*
X92140500Y-74875500D01*
X92140500Y-69772596D01*
X92160185Y-69705557D01*
X92176814Y-69684920D01*
X96968535Y-64893198D01*
X97029856Y-64859715D01*
X97042311Y-64857663D01*
X97129255Y-64847868D01*
X97299522Y-64788289D01*
X97452262Y-64692316D01*
X97579816Y-64564762D01*
X97675789Y-64412022D01*
X97735368Y-64241755D01*
X97746172Y-64145868D01*
X97755565Y-64062503D01*
X97755565Y-64062496D01*
X97735369Y-63883250D01*
X97735368Y-63883245D01*
X97678273Y-63720078D01*
X97675789Y-63712978D01*
X97579816Y-63560238D01*
X97452262Y-63432684D01*
X97299523Y-63336711D01*
X97129254Y-63277131D01*
X97129249Y-63277130D01*
X96950004Y-63256935D01*
X96949996Y-63256935D01*
X96770750Y-63277130D01*
X96770745Y-63277131D01*
X96600476Y-63336711D01*
X96447737Y-63432684D01*
X96320184Y-63560237D01*
X96224210Y-63712978D01*
X96164630Y-63883250D01*
X96154837Y-63970168D01*
X96127770Y-64034582D01*
X96119298Y-64043965D01*
X91171286Y-68991978D01*
X91059481Y-69103782D01*
X91059479Y-69103785D01*
X91019509Y-69173017D01*
X91019508Y-69173018D01*
X91006954Y-69194762D01*
X90980423Y-69240715D01*
X90939499Y-69393443D01*
X90939499Y-69393445D01*
X90939499Y-69561546D01*
X90939500Y-69561559D01*
X90939500Y-74875500D01*
X90919815Y-74942539D01*
X90867011Y-74988294D01*
X90815500Y-74999500D01*
X90492130Y-74999500D01*
X90492123Y-74999501D01*
X90432516Y-75005908D01*
X90313333Y-75050361D01*
X90243641Y-75055345D01*
X90226667Y-75050361D01*
X90107482Y-75005908D01*
X90107483Y-75005908D01*
X90047883Y-74999501D01*
X90047881Y-74999500D01*
X90047873Y-74999500D01*
X90047865Y-74999500D01*
X89724500Y-74999500D01*
X89657461Y-74979815D01*
X89611706Y-74927011D01*
X89600500Y-74875500D01*
X89600500Y-68509196D01*
X89620185Y-68442157D01*
X89636814Y-68421520D01*
X90968535Y-67089798D01*
X91029856Y-67056315D01*
X91042311Y-67054263D01*
X91129255Y-67044468D01*
X91299522Y-66984889D01*
X91452262Y-66888916D01*
X91579816Y-66761362D01*
X91675789Y-66608622D01*
X91735368Y-66438355D01*
X91737084Y-66423124D01*
X91755565Y-66259103D01*
X91755565Y-66259096D01*
X91735369Y-66079850D01*
X91735368Y-66079845D01*
X91675788Y-65909576D01*
X91579815Y-65756837D01*
X91452262Y-65629284D01*
X91299523Y-65533311D01*
X91129254Y-65473731D01*
X91129249Y-65473730D01*
X90950004Y-65453535D01*
X90949996Y-65453535D01*
X90770750Y-65473730D01*
X90770745Y-65473731D01*
X90600476Y-65533311D01*
X90447737Y-65629284D01*
X90320184Y-65756837D01*
X90224210Y-65909578D01*
X90164630Y-66079850D01*
X90154837Y-66166768D01*
X90127770Y-66231182D01*
X90119298Y-66240565D01*
X88631286Y-67728578D01*
X88519481Y-67840382D01*
X88519479Y-67840385D01*
X88469361Y-67927194D01*
X88469359Y-67927196D01*
X88440425Y-67977309D01*
X88440424Y-67977310D01*
X88440423Y-67977315D01*
X88399499Y-68130043D01*
X88399499Y-68130045D01*
X88399499Y-68298146D01*
X88399500Y-68298159D01*
X88399500Y-74875500D01*
X88379815Y-74942539D01*
X88327011Y-74988294D01*
X88275500Y-74999500D01*
X87952130Y-74999500D01*
X87952123Y-74999501D01*
X87892516Y-75005908D01*
X87773333Y-75050361D01*
X87703641Y-75055345D01*
X87686667Y-75050361D01*
X87567482Y-75005908D01*
X87567483Y-75005908D01*
X87507883Y-74999501D01*
X87507881Y-74999500D01*
X87507873Y-74999500D01*
X87507865Y-74999500D01*
X87499500Y-74999500D01*
X87432461Y-74979815D01*
X87386706Y-74927011D01*
X87375500Y-74875500D01*
X87375500Y-64652012D01*
X87395185Y-64584973D01*
X87402555Y-64574697D01*
X87404810Y-64571867D01*
X87404816Y-64571862D01*
X87500789Y-64419122D01*
X87560368Y-64248855D01*
X87571972Y-64145868D01*
X87580565Y-64069603D01*
X87580565Y-64069596D01*
X87560369Y-63890350D01*
X87560368Y-63890345D01*
X87500788Y-63720076D01*
X87404815Y-63567337D01*
X87400475Y-63561895D01*
X87402020Y-63560662D01*
X87373202Y-63507886D01*
X87378186Y-63438194D01*
X87406687Y-63393847D01*
X88362016Y-62438519D01*
X88423339Y-62405034D01*
X88449697Y-62402200D01*
X89079055Y-62402200D01*
X89079057Y-62402200D01*
X89231784Y-62361277D01*
X89368716Y-62282220D01*
X89480520Y-62170416D01*
X89542825Y-62062498D01*
X89593391Y-62014284D01*
X89650212Y-62000499D01*
X90047871Y-62000499D01*
X90047872Y-62000499D01*
X90107483Y-61994091D01*
X90226667Y-61949637D01*
X90296358Y-61944654D01*
X90313329Y-61949636D01*
X90432517Y-61994091D01*
X90432516Y-61994091D01*
X90439444Y-61994835D01*
X90492127Y-62000500D01*
X92587872Y-62000499D01*
X92647483Y-61994091D01*
X92782331Y-61943796D01*
X92897546Y-61857546D01*
X92983796Y-61742331D01*
X93034091Y-61607483D01*
X93040500Y-61547873D01*
X93040499Y-58452128D01*
X93034091Y-58392517D01*
X92983796Y-58257669D01*
X92983795Y-58257668D01*
X92983793Y-58257664D01*
X92897547Y-58142455D01*
X92897544Y-58142452D01*
X92782335Y-58056206D01*
X92782328Y-58056202D01*
X92647482Y-58005908D01*
X92647483Y-58005908D01*
X92587883Y-57999501D01*
X92587881Y-57999500D01*
X92587873Y-57999500D01*
X92587865Y-57999500D01*
X92190212Y-57999500D01*
X92123173Y-57979815D01*
X92082825Y-57937499D01*
X92020524Y-57829590D01*
X92020518Y-57829582D01*
X91908717Y-57717781D01*
X91908709Y-57717775D01*
X91771790Y-57638726D01*
X91771786Y-57638724D01*
X91771784Y-57638723D01*
X91619057Y-57597800D01*
X91619056Y-57597800D01*
X77769432Y-57597800D01*
X77702393Y-57578115D01*
X77660815Y-57531109D01*
X77660394Y-57531374D01*
X77658787Y-57528816D01*
X77657710Y-57527599D01*
X77656690Y-57525482D01*
X77656689Y-57525478D01*
X77560716Y-57372738D01*
X77433162Y-57245184D01*
X77280423Y-57149211D01*
X77110154Y-57089631D01*
X77110149Y-57089630D01*
X76930904Y-57069435D01*
X76930896Y-57069435D01*
X76751650Y-57089630D01*
X76751645Y-57089631D01*
X76581376Y-57149211D01*
X76428637Y-57245184D01*
X76301084Y-57372737D01*
X76205111Y-57525476D01*
X76145531Y-57695745D01*
X76145530Y-57695750D01*
X76125335Y-57874996D01*
X76125335Y-57875500D01*
X76125242Y-57875813D01*
X76124555Y-57881919D01*
X76123485Y-57881798D01*
X76105650Y-57942539D01*
X76052846Y-57988294D01*
X76001335Y-57999500D01*
X75252129Y-57999500D01*
X75252123Y-57999501D01*
X75192516Y-58005908D01*
X75057671Y-58056202D01*
X75057664Y-58056206D01*
X74942455Y-58142452D01*
X74942452Y-58142455D01*
X74856206Y-58257664D01*
X74856202Y-58257671D01*
X74805908Y-58392517D01*
X74799501Y-58452116D01*
X74799501Y-58452123D01*
X74799500Y-58452135D01*
X74799500Y-61547870D01*
X74799501Y-61547876D01*
X74805908Y-61607483D01*
X74856202Y-61742328D01*
X74856206Y-61742335D01*
X74942452Y-61857544D01*
X74942455Y-61857547D01*
X75057664Y-61943793D01*
X75057671Y-61943797D01*
X75192517Y-61994091D01*
X75192516Y-61994091D01*
X75199444Y-61994835D01*
X75252127Y-62000500D01*
X77347872Y-62000499D01*
X77407483Y-61994091D01*
X77526667Y-61949637D01*
X77596358Y-61944654D01*
X77613329Y-61949636D01*
X77732517Y-61994091D01*
X77732516Y-61994091D01*
X77739444Y-61994835D01*
X77792127Y-62000500D01*
X79887872Y-62000499D01*
X79947483Y-61994091D01*
X80066667Y-61949637D01*
X80136358Y-61944654D01*
X80153329Y-61949636D01*
X80272517Y-61994091D01*
X80272516Y-61994091D01*
X80279444Y-61994835D01*
X80332127Y-62000500D01*
X82427872Y-62000499D01*
X82487483Y-61994091D01*
X82606667Y-61949637D01*
X82676358Y-61944654D01*
X82693329Y-61949636D01*
X82812517Y-61994091D01*
X82812516Y-61994091D01*
X82819444Y-61994835D01*
X82872127Y-62000500D01*
X84967872Y-62000499D01*
X85027483Y-61994091D01*
X85116816Y-61960771D01*
X85186505Y-61955788D01*
X85247828Y-61989272D01*
X85281313Y-62050595D01*
X85276329Y-62120287D01*
X85247829Y-62164634D01*
X85211087Y-62201377D01*
X85211086Y-62201378D01*
X85099281Y-62313182D01*
X85099277Y-62313187D01*
X85078314Y-62349499D01*
X85078313Y-62349501D01*
X85020223Y-62450115D01*
X84979299Y-62602843D01*
X84979299Y-62602845D01*
X84979299Y-62770946D01*
X84979300Y-62770959D01*
X84979300Y-63963901D01*
X84959615Y-64030940D01*
X84942981Y-64051582D01*
X84882180Y-64112383D01*
X84820857Y-64145868D01*
X84751165Y-64140884D01*
X84695232Y-64099012D01*
X84670815Y-64033548D01*
X84670499Y-64024702D01*
X84670499Y-62802129D01*
X84670498Y-62802123D01*
X84670497Y-62802116D01*
X84664091Y-62742517D01*
X84613796Y-62607669D01*
X84613795Y-62607668D01*
X84613793Y-62607664D01*
X84527547Y-62492455D01*
X84527544Y-62492452D01*
X84412335Y-62406206D01*
X84412328Y-62406202D01*
X84277482Y-62355908D01*
X84277483Y-62355908D01*
X84217883Y-62349501D01*
X84217881Y-62349500D01*
X84217873Y-62349500D01*
X84217864Y-62349500D01*
X82822129Y-62349500D01*
X82822123Y-62349501D01*
X82762516Y-62355908D01*
X82619359Y-62409303D01*
X82618714Y-62407575D01*
X82561147Y-62420095D01*
X82521011Y-62408310D01*
X82520641Y-62409303D01*
X82377482Y-62355908D01*
X82377483Y-62355908D01*
X82317883Y-62349501D01*
X82317881Y-62349500D01*
X82317873Y-62349500D01*
X82317864Y-62349500D01*
X80922129Y-62349500D01*
X80922123Y-62349501D01*
X80862516Y-62355908D01*
X80727671Y-62406202D01*
X80727664Y-62406206D01*
X80612455Y-62492452D01*
X80612452Y-62492455D01*
X80526206Y-62607664D01*
X80526202Y-62607671D01*
X80475908Y-62742517D01*
X80469501Y-62802116D01*
X80469501Y-62802123D01*
X80469500Y-62802135D01*
X80469500Y-65197870D01*
X80469501Y-65197876D01*
X80475908Y-65257483D01*
X80526202Y-65392328D01*
X80526206Y-65392335D01*
X80612452Y-65507544D01*
X80612455Y-65507547D01*
X80727664Y-65593793D01*
X80727671Y-65593797D01*
X80862517Y-65644091D01*
X80862516Y-65644091D01*
X80869444Y-65644835D01*
X80922127Y-65650500D01*
X82317872Y-65650499D01*
X82377483Y-65644091D01*
X82512331Y-65593796D01*
X82512333Y-65593794D01*
X82520640Y-65590696D01*
X82521285Y-65592426D01*
X82578837Y-65579902D01*
X82618988Y-65591691D01*
X82619360Y-65590696D01*
X82627666Y-65593794D01*
X82627669Y-65593796D01*
X82762517Y-65644091D01*
X82822127Y-65650500D01*
X83044701Y-65650499D01*
X83111740Y-65670183D01*
X83157495Y-65722987D01*
X83167439Y-65792145D01*
X83138414Y-65855701D01*
X83132382Y-65862180D01*
X81870493Y-67124070D01*
X81809170Y-67157555D01*
X81739478Y-67152571D01*
X81683545Y-67110699D01*
X81659284Y-67047196D01*
X81658344Y-67036450D01*
X81656207Y-67012023D01*
X81599575Y-66800670D01*
X81507102Y-66602362D01*
X81507100Y-66602359D01*
X81507099Y-66602357D01*
X81381599Y-66423124D01*
X81381596Y-66423121D01*
X81226877Y-66268402D01*
X81047639Y-66142898D01*
X81047640Y-66142898D01*
X81047638Y-66142897D01*
X80893204Y-66070884D01*
X80849330Y-66050425D01*
X80849326Y-66050424D01*
X80849322Y-66050422D01*
X80637977Y-65993793D01*
X80420002Y-65974723D01*
X80419998Y-65974723D01*
X80274682Y-65987436D01*
X80202023Y-65993793D01*
X80202020Y-65993793D01*
X79990677Y-66050422D01*
X79990668Y-66050426D01*
X79792361Y-66142898D01*
X79792357Y-66142900D01*
X79613121Y-66268402D01*
X79458402Y-66423121D01*
X79332900Y-66602357D01*
X79332898Y-66602361D01*
X79262382Y-66753583D01*
X79216209Y-66806022D01*
X79149016Y-66825174D01*
X79082135Y-66804958D01*
X79037618Y-66753583D01*
X78973205Y-66615450D01*
X78967102Y-66602362D01*
X78967100Y-66602359D01*
X78967099Y-66602357D01*
X78841599Y-66423124D01*
X78841596Y-66423121D01*
X78686877Y-66268402D01*
X78507639Y-66142898D01*
X78507640Y-66142898D01*
X78507638Y-66142897D01*
X78353204Y-66070884D01*
X78309330Y-66050425D01*
X78309326Y-66050424D01*
X78309322Y-66050422D01*
X78097977Y-65993793D01*
X77880002Y-65974723D01*
X77879998Y-65974723D01*
X77734682Y-65987436D01*
X77662023Y-65993793D01*
X77662020Y-65993793D01*
X77450677Y-66050422D01*
X77450668Y-66050426D01*
X77252361Y-66142898D01*
X77252357Y-66142900D01*
X77073121Y-66268402D01*
X76918402Y-66423121D01*
X76792900Y-66602357D01*
X76792898Y-66602361D01*
X76722382Y-66753583D01*
X76676209Y-66806022D01*
X76609016Y-66825174D01*
X76542135Y-66804958D01*
X76497618Y-66753583D01*
X76433205Y-66615450D01*
X76427102Y-66602362D01*
X76427100Y-66602359D01*
X76427099Y-66602357D01*
X76301599Y-66423124D01*
X76301596Y-66423121D01*
X76146877Y-66268402D01*
X75967639Y-66142898D01*
X75967640Y-66142898D01*
X75967638Y-66142897D01*
X75813204Y-66070884D01*
X75769330Y-66050425D01*
X75769326Y-66050424D01*
X75769322Y-66050422D01*
X75557977Y-65993793D01*
X75340002Y-65974723D01*
X75339998Y-65974723D01*
X75194682Y-65987436D01*
X75122023Y-65993793D01*
X75122020Y-65993793D01*
X74910677Y-66050422D01*
X74910668Y-66050426D01*
X74712361Y-66142898D01*
X74712357Y-66142900D01*
X74533121Y-66268402D01*
X74378402Y-66423121D01*
X74252900Y-66602357D01*
X74252898Y-66602361D01*
X74160426Y-66800668D01*
X74160422Y-66800677D01*
X74103793Y-67012020D01*
X74103793Y-67012024D01*
X74084723Y-67229997D01*
X74084723Y-67230002D01*
X74103793Y-67447975D01*
X74103793Y-67447979D01*
X74160422Y-67659322D01*
X74160424Y-67659326D01*
X74160425Y-67659330D01*
X74162027Y-67662765D01*
X74252897Y-67857638D01*
X74252898Y-67857639D01*
X74378402Y-68036877D01*
X74533123Y-68191598D01*
X74685289Y-68298146D01*
X74712361Y-68317102D01*
X74864175Y-68387894D01*
X74916614Y-68434066D01*
X74935766Y-68501260D01*
X74915550Y-68568141D01*
X74864175Y-68612658D01*
X74712613Y-68683333D01*
X74650428Y-68726874D01*
X75340000Y-69416446D01*
X75340001Y-69416446D01*
X76029571Y-68726874D01*
X75967387Y-68683333D01*
X75815824Y-68612658D01*
X75763385Y-68566486D01*
X75744233Y-68499292D01*
X75764449Y-68432411D01*
X75815822Y-68387895D01*
X75967639Y-68317102D01*
X76146877Y-68191598D01*
X76301598Y-68036877D01*
X76427102Y-67857639D01*
X76497618Y-67706414D01*
X76543790Y-67653977D01*
X76610984Y-67634825D01*
X76677865Y-67655041D01*
X76722381Y-67706414D01*
X76792898Y-67857639D01*
X76918402Y-68036877D01*
X77073123Y-68191598D01*
X77225289Y-68298146D01*
X77252361Y-68317102D01*
X77403583Y-68387618D01*
X77456022Y-68433790D01*
X77475174Y-68500984D01*
X77454958Y-68567865D01*
X77403583Y-68612382D01*
X77252361Y-68682898D01*
X77252357Y-68682900D01*
X77073121Y-68808402D01*
X76918402Y-68963121D01*
X76792900Y-69142357D01*
X76792900Y-69142358D01*
X76792898Y-69142361D01*
X76792898Y-69142362D01*
X76790600Y-69147290D01*
X76722105Y-69294176D01*
X76675932Y-69346615D01*
X76608738Y-69365766D01*
X76541857Y-69345550D01*
X76497341Y-69294175D01*
X76426667Y-69142614D01*
X76426666Y-69142612D01*
X76383124Y-69080428D01*
X76383124Y-69080427D01*
X75693553Y-69769999D01*
X75693553Y-69770000D01*
X76383124Y-70459570D01*
X76426666Y-70397388D01*
X76497340Y-70245825D01*
X76543512Y-70193386D01*
X76610706Y-70174233D01*
X76677587Y-70194448D01*
X76722105Y-70245824D01*
X76792897Y-70397638D01*
X76792898Y-70397639D01*
X76918402Y-70576877D01*
X77073123Y-70731598D01*
X77252361Y-70857102D01*
X77450670Y-70949575D01*
X77662023Y-71006207D01*
X77844926Y-71022208D01*
X77879998Y-71025277D01*
X77880000Y-71025277D01*
X77880002Y-71025277D01*
X77912828Y-71022405D01*
X78097977Y-71006207D01*
X78309330Y-70949575D01*
X78507639Y-70857102D01*
X78570446Y-70813124D01*
X79730427Y-70813124D01*
X79792612Y-70856666D01*
X79990840Y-70949101D01*
X79990849Y-70949105D01*
X80202105Y-71005710D01*
X80202115Y-71005712D01*
X80419999Y-71024775D01*
X80420001Y-71024775D01*
X80637884Y-71005712D01*
X80637894Y-71005710D01*
X80849150Y-70949105D01*
X80849164Y-70949100D01*
X81047383Y-70856669D01*
X81047385Y-70856668D01*
X81109571Y-70813124D01*
X80420001Y-70123553D01*
X80420000Y-70123553D01*
X79730427Y-70813124D01*
X78570446Y-70813124D01*
X78686877Y-70731598D01*
X78841598Y-70576877D01*
X78967102Y-70397639D01*
X79037895Y-70245822D01*
X79084066Y-70193385D01*
X79151260Y-70174233D01*
X79218141Y-70194449D01*
X79262658Y-70245824D01*
X79333333Y-70397387D01*
X79376874Y-70459571D01*
X80066446Y-69770000D01*
X79376874Y-69080428D01*
X79333333Y-69142613D01*
X79262658Y-69294175D01*
X79216485Y-69346614D01*
X79149292Y-69365766D01*
X79082411Y-69345550D01*
X79037894Y-69294175D01*
X78997764Y-69208117D01*
X78967102Y-69142362D01*
X78967099Y-69142358D01*
X78967099Y-69142357D01*
X78841599Y-68963124D01*
X78841596Y-68963121D01*
X78686877Y-68808402D01*
X78507639Y-68682898D01*
X78356414Y-68612381D01*
X78303977Y-68566210D01*
X78284825Y-68499016D01*
X78305041Y-68432135D01*
X78356414Y-68387618D01*
X78507639Y-68317102D01*
X78686877Y-68191598D01*
X78841598Y-68036877D01*
X78967102Y-67857639D01*
X79037618Y-67706414D01*
X79083790Y-67653977D01*
X79150984Y-67634825D01*
X79217865Y-67655041D01*
X79262381Y-67706414D01*
X79332898Y-67857639D01*
X79458402Y-68036877D01*
X79613123Y-68191598D01*
X79765289Y-68298146D01*
X79792361Y-68317102D01*
X79944175Y-68387894D01*
X79996614Y-68434066D01*
X80015766Y-68501260D01*
X79995550Y-68568141D01*
X79944175Y-68612658D01*
X79792613Y-68683333D01*
X79730427Y-68726874D01*
X80420000Y-69416447D01*
X81463124Y-70459570D01*
X81506668Y-70397385D01*
X81506669Y-70397383D01*
X81599100Y-70199164D01*
X81599105Y-70199150D01*
X81655710Y-69987894D01*
X81655712Y-69987884D01*
X81674775Y-69770000D01*
X81674775Y-69769999D01*
X81655712Y-69552115D01*
X81655711Y-69552109D01*
X81625225Y-69438334D01*
X81626888Y-69368484D01*
X81657319Y-69318559D01*
X81681703Y-69294175D01*
X81781116Y-69194762D01*
X81877089Y-69042022D01*
X81936668Y-68871755D01*
X81946461Y-68784829D01*
X81973526Y-68720418D01*
X81981990Y-68711043D01*
X82067812Y-68625221D01*
X82129133Y-68591738D01*
X82198825Y-68596722D01*
X82254758Y-68638594D01*
X82279175Y-68704058D01*
X82276701Y-68734800D01*
X82276738Y-68734804D01*
X82276592Y-68736156D01*
X82276170Y-68741409D01*
X82275909Y-68742513D01*
X82269501Y-68802116D01*
X82269500Y-68802135D01*
X82269500Y-72397870D01*
X82269501Y-72397876D01*
X82275908Y-72457483D01*
X82326202Y-72592328D01*
X82326206Y-72592335D01*
X82412452Y-72707544D01*
X82412455Y-72707547D01*
X82527664Y-72793793D01*
X82527671Y-72793797D01*
X82662517Y-72844091D01*
X82662516Y-72844091D01*
X82669444Y-72844835D01*
X82722127Y-72850500D01*
X86050500Y-72850499D01*
X86117539Y-72870184D01*
X86163294Y-72922988D01*
X86174500Y-72974499D01*
X86174500Y-74583201D01*
X86154815Y-74650240D01*
X86138181Y-74670882D01*
X86091286Y-74717777D01*
X86091284Y-74717780D01*
X85979481Y-74829582D01*
X85979479Y-74829584D01*
X85959095Y-74864891D01*
X85950479Y-74879816D01*
X85926737Y-74920939D01*
X85917175Y-74937500D01*
X85866608Y-74985716D01*
X85809788Y-74999500D01*
X85412129Y-74999500D01*
X85412123Y-74999501D01*
X85352516Y-75005908D01*
X85233333Y-75050361D01*
X85163641Y-75055345D01*
X85146667Y-75050361D01*
X85027482Y-75005908D01*
X85027483Y-75005908D01*
X84967883Y-74999501D01*
X84967881Y-74999500D01*
X84967873Y-74999500D01*
X84967864Y-74999500D01*
X82872129Y-74999500D01*
X82872123Y-74999501D01*
X82812516Y-75005908D01*
X82693333Y-75050361D01*
X82623641Y-75055345D01*
X82606667Y-75050361D01*
X82487482Y-75005908D01*
X82487483Y-75005908D01*
X82427883Y-74999501D01*
X82427881Y-74999500D01*
X82427873Y-74999500D01*
X82427865Y-74999500D01*
X82061864Y-74999500D01*
X81994825Y-74979815D01*
X81949070Y-74927011D01*
X81942089Y-74907592D01*
X81939577Y-74898217D01*
X81939575Y-74898213D01*
X81904403Y-74837293D01*
X81887930Y-74769393D01*
X81906795Y-74709324D01*
X81975789Y-74599522D01*
X82035368Y-74429255D01*
X82045486Y-74339454D01*
X82055565Y-74250003D01*
X82055565Y-74249996D01*
X82035369Y-74070750D01*
X82035368Y-74070745D01*
X81975788Y-73900476D01*
X81879815Y-73747737D01*
X81752262Y-73620184D01*
X81599523Y-73524211D01*
X81429254Y-73464631D01*
X81429249Y-73464630D01*
X81250004Y-73444435D01*
X81249996Y-73444435D01*
X81070750Y-73464630D01*
X81070745Y-73464631D01*
X80900476Y-73524211D01*
X80747737Y-73620184D01*
X80620184Y-73747737D01*
X80524211Y-73900476D01*
X80464631Y-74070745D01*
X80464630Y-74070750D01*
X80444435Y-74249996D01*
X80444435Y-74250003D01*
X80464630Y-74429249D01*
X80464631Y-74429254D01*
X80524211Y-74599523D01*
X80620185Y-74752263D01*
X80622445Y-74755097D01*
X80623334Y-74757275D01*
X80623889Y-74758158D01*
X80623734Y-74758255D01*
X80648855Y-74819783D01*
X80649500Y-74832412D01*
X80649500Y-74875500D01*
X80629815Y-74942539D01*
X80577011Y-74988294D01*
X80525501Y-74999500D01*
X80332130Y-74999500D01*
X80332123Y-74999501D01*
X80272515Y-75005909D01*
X80152617Y-75050627D01*
X80082925Y-75055611D01*
X80065953Y-75050627D01*
X79947382Y-75006403D01*
X79947372Y-75006401D01*
X79887844Y-75000000D01*
X79090000Y-75000000D01*
X79090000Y-77126000D01*
X79070315Y-77193039D01*
X79017511Y-77238794D01*
X78966000Y-77250000D01*
X78714000Y-77250000D01*
X78646961Y-77230315D01*
X78601206Y-77177511D01*
X78590000Y-77126000D01*
X78590000Y-75000000D01*
X77792155Y-75000000D01*
X77732627Y-75006401D01*
X77732619Y-75006403D01*
X77614046Y-75050628D01*
X77544354Y-75055612D01*
X77527384Y-75050629D01*
X77457356Y-75024510D01*
X77407481Y-75005908D01*
X77407483Y-75005908D01*
X77347883Y-74999501D01*
X77347881Y-74999500D01*
X77347873Y-74999500D01*
X77347864Y-74999500D01*
X75252129Y-74999500D01*
X75252123Y-74999501D01*
X75192516Y-75005908D01*
X75057671Y-75056202D01*
X75057664Y-75056206D01*
X74942455Y-75142452D01*
X74942452Y-75142455D01*
X74856206Y-75257664D01*
X74856202Y-75257671D01*
X74805908Y-75392517D01*
X74799501Y-75452116D01*
X74799500Y-75452135D01*
X74799500Y-78547870D01*
X74799501Y-78547876D01*
X74805908Y-78607483D01*
X74856202Y-78742328D01*
X74856206Y-78742335D01*
X74942452Y-78857544D01*
X74942455Y-78857547D01*
X75057664Y-78943793D01*
X75057671Y-78943797D01*
X75102618Y-78960561D01*
X75192517Y-78994091D01*
X75252127Y-79000500D01*
X75583302Y-79000499D01*
X75650341Y-79020183D01*
X75696096Y-79072987D01*
X75703075Y-79092400D01*
X75716742Y-79143408D01*
X75715080Y-79213256D01*
X75675918Y-79271118D01*
X75611690Y-79298623D01*
X75596968Y-79299500D01*
X72624500Y-79299500D01*
X72557461Y-79279815D01*
X72511706Y-79227011D01*
X72500500Y-79175500D01*
X72500500Y-70813124D01*
X74650427Y-70813124D01*
X74712612Y-70856666D01*
X74910840Y-70949101D01*
X74910849Y-70949105D01*
X75122105Y-71005710D01*
X75122115Y-71005712D01*
X75339999Y-71024775D01*
X75340001Y-71024775D01*
X75557884Y-71005712D01*
X75557894Y-71005710D01*
X75769150Y-70949105D01*
X75769164Y-70949100D01*
X75967383Y-70856669D01*
X75967385Y-70856668D01*
X76029571Y-70813124D01*
X75340001Y-70123553D01*
X75340000Y-70123553D01*
X74650427Y-70813124D01*
X72500500Y-70813124D01*
X72500500Y-69769999D01*
X74085225Y-69769999D01*
X74085225Y-69770000D01*
X74104287Y-69987884D01*
X74104289Y-69987894D01*
X74160894Y-70199150D01*
X74160898Y-70199159D01*
X74253333Y-70397387D01*
X74296874Y-70459571D01*
X74986446Y-69770000D01*
X74296874Y-69080428D01*
X74253333Y-69142613D01*
X74160898Y-69340840D01*
X74160894Y-69340849D01*
X74104289Y-69552105D01*
X74104287Y-69552115D01*
X74085225Y-69769999D01*
X72500500Y-69769999D01*
X72500500Y-51999995D01*
X74889953Y-51999995D01*
X74889953Y-52000004D01*
X74910113Y-52269026D01*
X74910113Y-52269028D01*
X74970142Y-52532033D01*
X74970148Y-52532052D01*
X75068709Y-52783181D01*
X75068708Y-52783181D01*
X75203602Y-53016822D01*
X75257294Y-53084151D01*
X75257295Y-53084151D01*
X76093958Y-52247488D01*
X76118978Y-52307890D01*
X76190112Y-52414351D01*
X76280649Y-52504888D01*
X76387110Y-52576022D01*
X76447510Y-52601041D01*
X75609848Y-53438702D01*
X75792483Y-53563220D01*
X75792485Y-53563221D01*
X76035539Y-53680269D01*
X76035537Y-53680269D01*
X76293337Y-53759790D01*
X76293343Y-53759792D01*
X76560101Y-53799999D01*
X76560110Y-53800000D01*
X76829890Y-53800000D01*
X76829898Y-53799999D01*
X77096656Y-53759792D01*
X77096662Y-53759790D01*
X77354461Y-53680269D01*
X77597521Y-53563218D01*
X77780150Y-53438702D01*
X76942488Y-52601041D01*
X77002890Y-52576022D01*
X77109351Y-52504888D01*
X77199888Y-52414351D01*
X77271022Y-52307890D01*
X77296041Y-52247488D01*
X78132703Y-53084151D01*
X78132704Y-53084150D01*
X78186393Y-53016828D01*
X78186400Y-53016817D01*
X78321290Y-52783181D01*
X78419851Y-52532052D01*
X78419857Y-52532033D01*
X78479886Y-52269028D01*
X78479886Y-52269026D01*
X78500047Y-52000004D01*
X78500047Y-51999995D01*
X78479886Y-51730973D01*
X78479886Y-51730971D01*
X78419857Y-51467966D01*
X78419851Y-51467947D01*
X78321290Y-51216818D01*
X78321291Y-51216818D01*
X78186397Y-50983177D01*
X78132704Y-50915847D01*
X77296041Y-51752510D01*
X77271022Y-51692110D01*
X77199888Y-51585649D01*
X77109351Y-51495112D01*
X77002890Y-51423978D01*
X76942488Y-51398958D01*
X77719291Y-50622155D01*
X93505000Y-50622155D01*
X93505000Y-51720000D01*
X94704999Y-51720000D01*
X94679979Y-51780402D01*
X94655000Y-51905981D01*
X94655000Y-52034019D01*
X94679979Y-52159598D01*
X94704999Y-52220000D01*
X93505000Y-52220000D01*
X93505000Y-53317844D01*
X93511401Y-53377372D01*
X93511403Y-53377379D01*
X93561645Y-53512086D01*
X93561649Y-53512093D01*
X93647809Y-53627187D01*
X93647812Y-53627190D01*
X93762906Y-53713350D01*
X93762913Y-53713354D01*
X93897620Y-53763596D01*
X93897627Y-53763598D01*
X93957155Y-53769999D01*
X93957172Y-53770000D01*
X95055000Y-53770000D01*
X95055000Y-52570001D01*
X95115402Y-52595021D01*
X95240981Y-52620000D01*
X95369019Y-52620000D01*
X95494598Y-52595021D01*
X95555000Y-52570001D01*
X95555000Y-53770000D01*
X96652828Y-53770000D01*
X96652844Y-53769999D01*
X96712372Y-53763598D01*
X96712379Y-53763596D01*
X96847086Y-53713354D01*
X96847093Y-53713350D01*
X96962187Y-53627190D01*
X96962190Y-53627187D01*
X97048350Y-53512093D01*
X97048354Y-53512086D01*
X97098596Y-53377379D01*
X97098598Y-53377372D01*
X97104999Y-53317844D01*
X97105000Y-53317827D01*
X97105000Y-52220000D01*
X95905001Y-52220000D01*
X95930021Y-52159598D01*
X95955000Y-52034019D01*
X95955000Y-51905981D01*
X95930021Y-51780402D01*
X95905001Y-51720000D01*
X97105000Y-51720000D01*
X97105000Y-50622172D01*
X97104999Y-50622155D01*
X97098598Y-50562627D01*
X97098596Y-50562620D01*
X97048354Y-50427913D01*
X97048350Y-50427906D01*
X96962190Y-50312812D01*
X96962187Y-50312809D01*
X96847093Y-50226649D01*
X96847086Y-50226645D01*
X96712379Y-50176403D01*
X96712372Y-50176401D01*
X96652844Y-50170000D01*
X95555000Y-50170000D01*
X95555000Y-51369998D01*
X95494598Y-51344979D01*
X95369019Y-51320000D01*
X95240981Y-51320000D01*
X95115402Y-51344979D01*
X95055000Y-51369998D01*
X95055000Y-50170000D01*
X93957155Y-50170000D01*
X93897627Y-50176401D01*
X93897620Y-50176403D01*
X93762913Y-50226645D01*
X93762906Y-50226649D01*
X93647812Y-50312809D01*
X93647809Y-50312812D01*
X93561649Y-50427906D01*
X93561645Y-50427913D01*
X93511403Y-50562620D01*
X93511401Y-50562627D01*
X93505000Y-50622155D01*
X77719291Y-50622155D01*
X77780150Y-50561296D01*
X77597517Y-50436779D01*
X77597516Y-50436778D01*
X77354460Y-50319730D01*
X77354462Y-50319730D01*
X77096662Y-50240209D01*
X77096656Y-50240207D01*
X76829898Y-50200000D01*
X76560101Y-50200000D01*
X76293343Y-50240207D01*
X76293337Y-50240209D01*
X76035538Y-50319730D01*
X75792485Y-50436778D01*
X75792476Y-50436783D01*
X75609848Y-50561296D01*
X76447511Y-51398958D01*
X76387110Y-51423978D01*
X76280649Y-51495112D01*
X76190112Y-51585649D01*
X76118978Y-51692110D01*
X76093958Y-51752510D01*
X75257295Y-50915848D01*
X75203600Y-50983180D01*
X75068709Y-51216818D01*
X74970148Y-51467947D01*
X74970142Y-51467966D01*
X74910113Y-51730971D01*
X74910113Y-51730973D01*
X74889953Y-51999995D01*
X72500500Y-51999995D01*
X72500500Y-45652135D01*
X74894500Y-45652135D01*
X74894500Y-48347870D01*
X74894501Y-48347876D01*
X74900908Y-48407483D01*
X74951202Y-48542328D01*
X74951206Y-48542335D01*
X75037452Y-48657544D01*
X75037455Y-48657547D01*
X75152664Y-48743793D01*
X75152671Y-48743797D01*
X75287517Y-48794091D01*
X75287516Y-48794091D01*
X75294444Y-48794835D01*
X75347127Y-48800500D01*
X78042872Y-48800499D01*
X78102483Y-48794091D01*
X78237331Y-48743796D01*
X78352546Y-48657546D01*
X78438796Y-48542331D01*
X78489091Y-48407483D01*
X78495500Y-48347873D01*
X78495500Y-47694500D01*
X78515185Y-47627461D01*
X78567989Y-47581706D01*
X78619500Y-47570500D01*
X93521933Y-47570500D01*
X93588972Y-47590185D01*
X93634727Y-47642989D01*
X93637361Y-47649198D01*
X93678254Y-47753392D01*
X93678256Y-47753396D01*
X93678257Y-47753398D01*
X93813185Y-47987102D01*
X93949080Y-48157509D01*
X93981442Y-48198089D01*
X94142862Y-48347864D01*
X94179259Y-48381635D01*
X94402226Y-48533651D01*
X94645359Y-48650738D01*
X94903228Y-48730280D01*
X94903229Y-48730280D01*
X94903232Y-48730281D01*
X95170063Y-48770499D01*
X95170068Y-48770499D01*
X95170071Y-48770500D01*
X95170072Y-48770500D01*
X95439928Y-48770500D01*
X95439929Y-48770500D01*
X95439936Y-48770499D01*
X95706767Y-48730281D01*
X95706768Y-48730280D01*
X95706772Y-48730280D01*
X95964641Y-48650738D01*
X96156765Y-48558216D01*
X96207767Y-48533655D01*
X96207767Y-48533654D01*
X96207775Y-48533651D01*
X96430741Y-48381635D01*
X96628561Y-48198085D01*
X96796815Y-47987102D01*
X96931743Y-47753398D01*
X97030334Y-47502195D01*
X97090383Y-47239103D01*
X97110549Y-46970000D01*
X97090383Y-46700897D01*
X97030334Y-46437805D01*
X96931743Y-46186602D01*
X96796815Y-45952898D01*
X96628561Y-45741915D01*
X96628560Y-45741914D01*
X96628557Y-45741910D01*
X96430741Y-45558365D01*
X96283047Y-45457669D01*
X96207775Y-45406349D01*
X96207769Y-45406346D01*
X96207768Y-45406345D01*
X96207767Y-45406344D01*
X95964643Y-45289263D01*
X95964645Y-45289263D01*
X95706773Y-45209720D01*
X95706767Y-45209718D01*
X95439936Y-45169500D01*
X95439929Y-45169500D01*
X95170071Y-45169500D01*
X95170063Y-45169500D01*
X94903232Y-45209718D01*
X94903226Y-45209720D01*
X94645358Y-45289262D01*
X94402230Y-45406346D01*
X94179258Y-45558365D01*
X93981442Y-45741910D01*
X93813185Y-45952898D01*
X93678258Y-46186599D01*
X93678254Y-46186607D01*
X93637361Y-46290802D01*
X93594545Y-46346016D01*
X93528675Y-46369317D01*
X93521933Y-46369500D01*
X78619499Y-46369500D01*
X78552460Y-46349815D01*
X78506705Y-46297011D01*
X78495499Y-46245500D01*
X78495499Y-45652129D01*
X78495498Y-45652123D01*
X78495497Y-45652116D01*
X78489091Y-45592517D01*
X78438796Y-45457669D01*
X78438795Y-45457668D01*
X78438793Y-45457664D01*
X78352547Y-45342455D01*
X78352544Y-45342452D01*
X78237335Y-45256206D01*
X78237328Y-45256202D01*
X78102482Y-45205908D01*
X78102483Y-45205908D01*
X78042883Y-45199501D01*
X78042881Y-45199500D01*
X78042873Y-45199500D01*
X78042864Y-45199500D01*
X75347129Y-45199500D01*
X75347123Y-45199501D01*
X75287516Y-45205908D01*
X75152671Y-45256202D01*
X75152664Y-45256206D01*
X75037455Y-45342452D01*
X75037452Y-45342455D01*
X74951206Y-45457664D01*
X74951202Y-45457671D01*
X74900908Y-45592517D01*
X74894501Y-45652116D01*
X74894501Y-45652123D01*
X74894500Y-45652135D01*
X72500500Y-45652135D01*
X72500500Y-41999995D01*
X74944451Y-41999995D01*
X74944451Y-42000004D01*
X74964616Y-42269101D01*
X75024664Y-42532188D01*
X75024666Y-42532195D01*
X75123257Y-42783398D01*
X75258185Y-43017102D01*
X75394080Y-43187509D01*
X75426442Y-43228089D01*
X75523218Y-43317883D01*
X75624259Y-43411635D01*
X75847226Y-43563651D01*
X76090359Y-43680738D01*
X76348228Y-43760280D01*
X76348229Y-43760280D01*
X76348232Y-43760281D01*
X76615063Y-43800499D01*
X76615068Y-43800499D01*
X76615071Y-43800500D01*
X76615072Y-43800500D01*
X76884928Y-43800500D01*
X76884929Y-43800500D01*
X76884936Y-43800499D01*
X77151767Y-43760281D01*
X77151768Y-43760280D01*
X77151772Y-43760280D01*
X77409641Y-43680738D01*
X77652775Y-43563651D01*
X77875741Y-43411635D01*
X78073561Y-43228085D01*
X78241815Y-43017102D01*
X78376743Y-42783398D01*
X78429413Y-42649195D01*
X78472229Y-42593984D01*
X78538099Y-42570683D01*
X78544841Y-42570500D01*
X93380501Y-42570500D01*
X93447540Y-42590185D01*
X93493295Y-42642989D01*
X93504501Y-42694500D01*
X93504501Y-43317876D01*
X93510908Y-43377483D01*
X93561202Y-43512328D01*
X93561206Y-43512335D01*
X93647452Y-43627544D01*
X93647455Y-43627547D01*
X93762664Y-43713793D01*
X93762671Y-43713797D01*
X93897517Y-43764091D01*
X93897516Y-43764091D01*
X93904444Y-43764835D01*
X93957127Y-43770500D01*
X96652872Y-43770499D01*
X96712483Y-43764091D01*
X96847331Y-43713796D01*
X96962546Y-43627546D01*
X97048796Y-43512331D01*
X97099091Y-43377483D01*
X97105500Y-43317873D01*
X97105499Y-40622128D01*
X97099091Y-40562517D01*
X97052033Y-40436349D01*
X97048797Y-40427671D01*
X97048793Y-40427664D01*
X96962547Y-40312455D01*
X96962544Y-40312452D01*
X96847335Y-40226206D01*
X96847328Y-40226202D01*
X96712482Y-40175908D01*
X96712483Y-40175908D01*
X96652883Y-40169501D01*
X96652881Y-40169500D01*
X96652873Y-40169500D01*
X96652864Y-40169500D01*
X93957129Y-40169500D01*
X93957123Y-40169501D01*
X93897516Y-40175908D01*
X93762671Y-40226202D01*
X93762664Y-40226206D01*
X93647455Y-40312452D01*
X93647452Y-40312455D01*
X93561206Y-40427664D01*
X93561202Y-40427671D01*
X93510908Y-40562517D01*
X93504501Y-40622116D01*
X93504501Y-40622123D01*
X93504500Y-40622135D01*
X93504500Y-41245500D01*
X93484815Y-41312539D01*
X93432011Y-41358294D01*
X93380500Y-41369500D01*
X78521293Y-41369500D01*
X78454254Y-41349815D01*
X78408499Y-41297011D01*
X78405865Y-41290803D01*
X78376743Y-41216602D01*
X78241815Y-40982898D01*
X78073561Y-40771915D01*
X78073560Y-40771914D01*
X78073557Y-40771910D01*
X77875741Y-40588365D01*
X77837829Y-40562517D01*
X77652775Y-40436349D01*
X77652769Y-40436346D01*
X77652768Y-40436345D01*
X77652767Y-40436344D01*
X77409643Y-40319263D01*
X77409645Y-40319263D01*
X77151773Y-40239720D01*
X77151767Y-40239718D01*
X76884936Y-40199500D01*
X76884929Y-40199500D01*
X76615071Y-40199500D01*
X76615063Y-40199500D01*
X76348232Y-40239718D01*
X76348226Y-40239720D01*
X76090358Y-40319262D01*
X75847230Y-40436346D01*
X75624258Y-40588365D01*
X75426442Y-40771910D01*
X75258185Y-40982898D01*
X75123258Y-41216599D01*
X75123256Y-41216603D01*
X75024666Y-41467804D01*
X75024664Y-41467811D01*
X74964616Y-41730898D01*
X74944451Y-41999995D01*
X72500500Y-41999995D01*
X72500500Y-36999995D01*
X74944451Y-36999995D01*
X74944451Y-37000004D01*
X74964616Y-37269101D01*
X75024664Y-37532188D01*
X75024666Y-37532195D01*
X75111483Y-37753400D01*
X75123257Y-37783398D01*
X75258185Y-38017102D01*
X75394080Y-38187509D01*
X75426442Y-38228089D01*
X75591927Y-38381635D01*
X75624259Y-38411635D01*
X75847226Y-38563651D01*
X76090359Y-38680738D01*
X76348228Y-38760280D01*
X76348229Y-38760280D01*
X76348232Y-38760281D01*
X76615063Y-38800499D01*
X76615068Y-38800499D01*
X76615071Y-38800500D01*
X76615072Y-38800500D01*
X76884928Y-38800500D01*
X76884929Y-38800500D01*
X76884936Y-38800499D01*
X77151767Y-38760281D01*
X77151768Y-38760280D01*
X77151772Y-38760280D01*
X77409641Y-38680738D01*
X77652775Y-38563651D01*
X77875741Y-38411635D01*
X78073561Y-38228085D01*
X78241815Y-38017102D01*
X78376743Y-37783398D01*
X78429413Y-37649195D01*
X78472229Y-37593984D01*
X78538099Y-37570683D01*
X78544841Y-37570500D01*
X93521933Y-37570500D01*
X93588972Y-37590185D01*
X93634727Y-37642989D01*
X93637361Y-37649198D01*
X93678254Y-37753392D01*
X93678258Y-37753400D01*
X93706770Y-37802784D01*
X93813185Y-37987102D01*
X93949080Y-38157509D01*
X93981442Y-38198089D01*
X94168183Y-38371358D01*
X94179259Y-38381635D01*
X94402226Y-38533651D01*
X94645359Y-38650738D01*
X94903228Y-38730280D01*
X94903229Y-38730280D01*
X94903232Y-38730281D01*
X95170063Y-38770499D01*
X95170068Y-38770499D01*
X95170071Y-38770500D01*
X95170072Y-38770500D01*
X95439928Y-38770500D01*
X95439929Y-38770500D01*
X95439936Y-38770499D01*
X95706767Y-38730281D01*
X95706768Y-38730280D01*
X95706772Y-38730280D01*
X95964641Y-38650738D01*
X96207775Y-38533651D01*
X96430741Y-38381635D01*
X96628561Y-38198085D01*
X96796815Y-37987102D01*
X96931743Y-37753398D01*
X97030334Y-37502195D01*
X97090383Y-37239103D01*
X97110549Y-36970000D01*
X97090383Y-36700897D01*
X97030334Y-36437805D01*
X96931743Y-36186602D01*
X96796815Y-35952898D01*
X96628561Y-35741915D01*
X96628560Y-35741914D01*
X96628557Y-35741910D01*
X96430741Y-35558365D01*
X96207775Y-35406349D01*
X96207769Y-35406346D01*
X96207768Y-35406345D01*
X96207767Y-35406344D01*
X95964643Y-35289263D01*
X95964645Y-35289263D01*
X95706773Y-35209720D01*
X95706767Y-35209718D01*
X95439936Y-35169500D01*
X95439929Y-35169500D01*
X95170071Y-35169500D01*
X95170063Y-35169500D01*
X94903232Y-35209718D01*
X94903226Y-35209720D01*
X94645358Y-35289262D01*
X94402230Y-35406346D01*
X94179258Y-35558365D01*
X93981442Y-35741910D01*
X93813185Y-35952898D01*
X93678258Y-36186599D01*
X93678254Y-36186607D01*
X93637361Y-36290802D01*
X93594545Y-36346016D01*
X93528675Y-36369317D01*
X93521933Y-36369500D01*
X78521293Y-36369500D01*
X78454254Y-36349815D01*
X78408499Y-36297011D01*
X78405865Y-36290803D01*
X78376743Y-36216603D01*
X78376741Y-36216599D01*
X78241815Y-35982898D01*
X78073561Y-35771915D01*
X78073560Y-35771914D01*
X78073557Y-35771910D01*
X77875741Y-35588365D01*
X77831739Y-35558365D01*
X77652775Y-35436349D01*
X77652769Y-35436346D01*
X77652768Y-35436345D01*
X77652767Y-35436344D01*
X77409643Y-35319263D01*
X77409645Y-35319263D01*
X77151773Y-35239720D01*
X77151767Y-35239718D01*
X76884936Y-35199500D01*
X76884929Y-35199500D01*
X76615071Y-35199500D01*
X76615063Y-35199500D01*
X76348232Y-35239718D01*
X76348226Y-35239720D01*
X76090358Y-35319262D01*
X75847230Y-35436346D01*
X75624258Y-35588365D01*
X75426442Y-35771910D01*
X75258185Y-35982898D01*
X75123258Y-36216599D01*
X75123256Y-36216603D01*
X75024666Y-36467804D01*
X75024664Y-36467811D01*
X74964616Y-36730898D01*
X74944451Y-36999995D01*
X72500500Y-36999995D01*
X72500500Y-30652135D01*
X74949500Y-30652135D01*
X74949500Y-33347870D01*
X74949501Y-33347876D01*
X74955908Y-33407483D01*
X75006202Y-33542328D01*
X75006206Y-33542335D01*
X75092452Y-33657544D01*
X75092455Y-33657547D01*
X75207664Y-33743793D01*
X75207671Y-33743797D01*
X75342517Y-33794091D01*
X75342516Y-33794091D01*
X75349444Y-33794835D01*
X75402127Y-33800500D01*
X78097872Y-33800499D01*
X78157483Y-33794091D01*
X78292331Y-33743796D01*
X78407546Y-33657546D01*
X78493796Y-33542331D01*
X78544091Y-33407483D01*
X78550500Y-33347873D01*
X78550499Y-31969995D01*
X93499451Y-31969995D01*
X93499451Y-31970004D01*
X93519616Y-32239101D01*
X93579664Y-32502188D01*
X93579666Y-32502195D01*
X93678257Y-32753398D01*
X93813185Y-32987102D01*
X93949080Y-33157509D01*
X93981442Y-33198089D01*
X94142862Y-33347864D01*
X94179259Y-33381635D01*
X94402226Y-33533651D01*
X94645359Y-33650738D01*
X94903228Y-33730280D01*
X94903229Y-33730280D01*
X94903232Y-33730281D01*
X95170063Y-33770499D01*
X95170068Y-33770499D01*
X95170071Y-33770500D01*
X95170072Y-33770500D01*
X95439928Y-33770500D01*
X95439929Y-33770500D01*
X95439936Y-33770499D01*
X95706767Y-33730281D01*
X95706768Y-33730280D01*
X95706772Y-33730280D01*
X95964641Y-33650738D01*
X96156765Y-33558216D01*
X96207767Y-33533655D01*
X96207767Y-33533654D01*
X96207775Y-33533651D01*
X96430741Y-33381635D01*
X96628561Y-33198085D01*
X96796815Y-32987102D01*
X96931743Y-32753398D01*
X97030334Y-32502195D01*
X97090383Y-32239103D01*
X97110549Y-31970000D01*
X97090383Y-31700897D01*
X97030334Y-31437805D01*
X96931743Y-31186602D01*
X96796815Y-30952898D01*
X96628561Y-30741915D01*
X96628560Y-30741914D01*
X96628557Y-30741910D01*
X96430741Y-30558365D01*
X96283047Y-30457669D01*
X96207775Y-30406349D01*
X96207769Y-30406346D01*
X96207768Y-30406345D01*
X96207767Y-30406344D01*
X95964643Y-30289263D01*
X95964645Y-30289263D01*
X95706773Y-30209720D01*
X95706767Y-30209718D01*
X95439936Y-30169500D01*
X95439929Y-30169500D01*
X95170071Y-30169500D01*
X95170063Y-30169500D01*
X94903232Y-30209718D01*
X94903226Y-30209720D01*
X94645358Y-30289262D01*
X94402230Y-30406346D01*
X94179258Y-30558365D01*
X93981442Y-30741910D01*
X93813185Y-30952898D01*
X93678258Y-31186599D01*
X93678256Y-31186603D01*
X93579666Y-31437804D01*
X93579664Y-31437811D01*
X93519616Y-31700898D01*
X93499451Y-31969995D01*
X78550499Y-31969995D01*
X78550499Y-30652128D01*
X78544091Y-30592517D01*
X78493796Y-30457669D01*
X78493795Y-30457668D01*
X78493793Y-30457664D01*
X78407547Y-30342455D01*
X78407544Y-30342452D01*
X78292335Y-30256206D01*
X78292328Y-30256202D01*
X78157482Y-30205908D01*
X78157483Y-30205908D01*
X78097883Y-30199501D01*
X78097881Y-30199500D01*
X78097873Y-30199500D01*
X78097864Y-30199500D01*
X75402129Y-30199500D01*
X75402123Y-30199501D01*
X75342516Y-30205908D01*
X75207671Y-30256202D01*
X75207664Y-30256206D01*
X75092455Y-30342452D01*
X75092452Y-30342455D01*
X75006206Y-30457664D01*
X75006202Y-30457671D01*
X74955908Y-30592517D01*
X74949501Y-30652116D01*
X74949501Y-30652123D01*
X74949500Y-30652135D01*
X72500500Y-30652135D01*
X72500500Y-29624500D01*
X72520185Y-29557461D01*
X72572989Y-29511706D01*
X72624500Y-29500500D01*
X99775500Y-29500500D01*
X99842539Y-29520185D01*
G37*
%TD.AperFunction*%
%TD*%
M02*
