%TF.GenerationSoftware,KiCad,Pcbnew,8.0.6-8.0.6-0~ubuntu24.04.1*%
%TF.CreationDate,2024-10-21T11:40:19+11:00*%
%TF.ProjectId,PCB-Receiver,5043422d-5265-4636-9569-7665722e6b69,rev?*%
%TF.SameCoordinates,Original*%
%TF.FileFunction,Paste,Top*%
%TF.FilePolarity,Positive*%
%FSLAX46Y46*%
G04 Gerber Fmt 4.6, Leading zero omitted, Abs format (unit mm)*
G04 Created by KiCad (PCBNEW 8.0.6-8.0.6-0~ubuntu24.04.1) date 2024-10-21 11:40:19*
%MOMM*%
%LPD*%
G01*
G04 APERTURE LIST*
G04 Aperture macros list*
%AMRoundRect*
0 Rectangle with rounded corners*
0 $1 Rounding radius*
0 $2 $3 $4 $5 $6 $7 $8 $9 X,Y pos of 4 corners*
0 Add a 4 corners polygon primitive as box body*
4,1,4,$2,$3,$4,$5,$6,$7,$8,$9,$2,$3,0*
0 Add four circle primitives for the rounded corners*
1,1,$1+$1,$2,$3*
1,1,$1+$1,$4,$5*
1,1,$1+$1,$6,$7*
1,1,$1+$1,$8,$9*
0 Add four rect primitives between the rounded corners*
20,1,$1+$1,$2,$3,$4,$5,0*
20,1,$1+$1,$4,$5,$6,$7,0*
20,1,$1+$1,$6,$7,$8,$9,0*
20,1,$1+$1,$8,$9,$2,$3,0*%
G04 Aperture macros list end*
%ADD10RoundRect,0.250000X-0.475000X0.250000X-0.475000X-0.250000X0.475000X-0.250000X0.475000X0.250000X0*%
%ADD11RoundRect,0.250000X0.475000X-0.250000X0.475000X0.250000X-0.475000X0.250000X-0.475000X-0.250000X0*%
%ADD12RoundRect,0.150000X0.150000X-0.587500X0.150000X0.587500X-0.150000X0.587500X-0.150000X-0.587500X0*%
%ADD13RoundRect,0.200000X0.200000X0.275000X-0.200000X0.275000X-0.200000X-0.275000X0.200000X-0.275000X0*%
%ADD14RoundRect,0.250000X1.000000X0.650000X-1.000000X0.650000X-1.000000X-0.650000X1.000000X-0.650000X0*%
%ADD15RoundRect,0.200000X-0.200000X-0.275000X0.200000X-0.275000X0.200000X0.275000X-0.200000X0.275000X0*%
%ADD16R,1.300000X1.550000*%
%ADD17RoundRect,0.243750X0.243750X0.456250X-0.243750X0.456250X-0.243750X-0.456250X0.243750X-0.456250X0*%
G04 APERTURE END LIST*
D10*
%TO.C,C2*%
X89000000Y-69550000D03*
X89000000Y-71450000D03*
%TD*%
D11*
%TO.C,C1*%
X89000000Y-75950000D03*
X89000000Y-74050000D03*
%TD*%
D12*
%TO.C,Q3*%
X90000000Y-61000000D03*
X91900000Y-61000000D03*
X90950000Y-59125000D03*
%TD*%
D13*
%TO.C,R1*%
X86775000Y-63062500D03*
X85125000Y-63062500D03*
%TD*%
%TO.C,R2*%
X86775000Y-65062500D03*
X85125000Y-65062500D03*
%TD*%
D14*
%TO.C,D1*%
X88000000Y-56250000D03*
X84000000Y-56250000D03*
%TD*%
D13*
%TO.C,R5*%
X91775000Y-63062500D03*
X90125000Y-63062500D03*
%TD*%
%TO.C,R3*%
X96950000Y-63062500D03*
X95300000Y-63062500D03*
%TD*%
D15*
%TO.C,R7*%
X79175000Y-76000000D03*
X80825000Y-76000000D03*
%TD*%
D12*
%TO.C,Q1*%
X85000000Y-61000000D03*
X86900000Y-61000000D03*
X85950000Y-59125000D03*
%TD*%
D13*
%TO.C,R6*%
X91775000Y-65062500D03*
X90125000Y-65062500D03*
%TD*%
D16*
%TO.C,SW1*%
X75750000Y-65975000D03*
X75750000Y-58025000D03*
X80250000Y-65975000D03*
X80250000Y-58025000D03*
%TD*%
D15*
%TO.C,R8*%
X79175000Y-69750000D03*
X80825000Y-69750000D03*
%TD*%
D12*
%TO.C,Q2*%
X95175000Y-61000000D03*
X97075000Y-61000000D03*
X96125000Y-59125000D03*
%TD*%
D17*
%TO.C,D2*%
X76937500Y-76000000D03*
X75062500Y-76000000D03*
%TD*%
D13*
%TO.C,R4*%
X96950000Y-65062500D03*
X95300000Y-65062500D03*
%TD*%
D17*
%TO.C,D3*%
X76937500Y-69750000D03*
X75062500Y-69750000D03*
%TD*%
M02*
