G04 #@! TF.GenerationSoftware,KiCad,Pcbnew,8.0.5-8.0.5-0~ubuntu24.04.1*
G04 #@! TF.CreationDate,2024-10-02T13:28:42+10:00*
G04 #@! TF.ProjectId,Touch Keypad,546f7563-6820-44b6-9579-7061642e6b69,rev?*
G04 #@! TF.SameCoordinates,PXbebc200PY8b3c880*
G04 #@! TF.FileFunction,Paste,Bot*
G04 #@! TF.FilePolarity,Positive*
%FSLAX46Y46*%
G04 Gerber Fmt 4.6, Leading zero omitted, Abs format (unit mm)*
G04 Created by KiCad (PCBNEW 8.0.5-8.0.5-0~ubuntu24.04.1) date 2024-10-02 13:28:42*
%MOMM*%
%LPD*%
G01*
G04 APERTURE LIST*
G04 Aperture macros list*
%AMRoundRect*
0 Rectangle with rounded corners*
0 $1 Rounding radius*
0 $2 $3 $4 $5 $6 $7 $8 $9 X,Y pos of 4 corners*
0 Add a 4 corners polygon primitive as box body*
4,1,4,$2,$3,$4,$5,$6,$7,$8,$9,$2,$3,0*
0 Add four circle primitives for the rounded corners*
1,1,$1+$1,$2,$3*
1,1,$1+$1,$4,$5*
1,1,$1+$1,$6,$7*
1,1,$1+$1,$8,$9*
0 Add four rect primitives between the rounded corners*
20,1,$1+$1,$2,$3,$4,$5,0*
20,1,$1+$1,$4,$5,$6,$7,0*
20,1,$1+$1,$6,$7,$8,$9,0*
20,1,$1+$1,$8,$9,$2,$3,0*%
G04 Aperture macros list end*
%ADD10RoundRect,0.250000X-0.250000X-0.475000X0.250000X-0.475000X0.250000X0.475000X-0.250000X0.475000X0*%
%ADD11RoundRect,0.250000X0.262500X0.450000X-0.262500X0.450000X-0.262500X-0.450000X0.262500X-0.450000X0*%
%ADD12RoundRect,0.250000X-1.000000X-0.650000X1.000000X-0.650000X1.000000X0.650000X-1.000000X0.650000X0*%
%ADD13RoundRect,0.250000X-0.475000X0.250000X-0.475000X-0.250000X0.475000X-0.250000X0.475000X0.250000X0*%
%ADD14RoundRect,0.150000X-0.587500X-0.150000X0.587500X-0.150000X0.587500X0.150000X-0.587500X0.150000X0*%
%ADD15R,0.400000X1.200000*%
%ADD16RoundRect,0.150000X-0.150000X-0.625000X0.150000X-0.625000X0.150000X0.625000X-0.150000X0.625000X0*%
%ADD17RoundRect,0.250000X-0.350000X-0.650000X0.350000X-0.650000X0.350000X0.650000X-0.350000X0.650000X0*%
%ADD18R,2.300000X3.400000*%
%ADD19RoundRect,0.150000X0.150000X-0.512500X0.150000X0.512500X-0.150000X0.512500X-0.150000X-0.512500X0*%
%ADD20RoundRect,0.250000X0.250000X0.475000X-0.250000X0.475000X-0.250000X-0.475000X0.250000X-0.475000X0*%
%ADD21RoundRect,0.250000X0.475000X-0.250000X0.475000X0.250000X-0.475000X0.250000X-0.475000X-0.250000X0*%
%ADD22RoundRect,0.250000X-0.650000X1.000000X-0.650000X-1.000000X0.650000X-1.000000X0.650000X1.000000X0*%
%ADD23R,2.500000X2.500000*%
G04 APERTURE END LIST*
D10*
X-35700000Y32000000D03*
X-33800000Y32000000D03*
D11*
X-29475000Y8568800D03*
X-31300000Y8568800D03*
D12*
X-65500000Y15000000D03*
X-61500000Y15000000D03*
D11*
X-57587500Y19100000D03*
X-59412500Y19100000D03*
D13*
X-30887500Y16018800D03*
X-30887500Y14118800D03*
D11*
X-25975000Y20068800D03*
X-27800000Y20068800D03*
D14*
X-63375000Y19050000D03*
X-63375000Y20950000D03*
X-61500000Y20000000D03*
D11*
X-35287500Y29600000D03*
X-37112500Y29600000D03*
D15*
X-37857500Y40600000D03*
X-37222500Y40600000D03*
X-36587500Y40600000D03*
X-35952500Y40600000D03*
X-35317500Y40600000D03*
X-34682500Y40600000D03*
X-34047500Y40600000D03*
X-33412500Y40600000D03*
X-32777500Y40600000D03*
X-32142500Y40600000D03*
X-32142500Y35400000D03*
X-32777500Y35400000D03*
X-33412500Y35400000D03*
X-34047500Y35400000D03*
X-34682500Y35400000D03*
X-35317500Y35400000D03*
X-35952500Y35400000D03*
X-36587500Y35400000D03*
X-37222500Y35400000D03*
X-37857500Y35400000D03*
D12*
X-23387500Y19068800D03*
X-19387500Y19068800D03*
D16*
X-10000000Y22500000D03*
X-9000000Y22500000D03*
X-8000000Y22500000D03*
X-7000000Y22500000D03*
D17*
X-11300000Y26375000D03*
X-5700000Y26375000D03*
D18*
X-16650000Y5550000D03*
X-22350000Y5550000D03*
D19*
X-25987500Y14068800D03*
X-26937500Y14068800D03*
X-27887500Y14068800D03*
X-27887500Y16343800D03*
X-26937500Y16343800D03*
X-25987500Y16343800D03*
D20*
X-25437500Y8568800D03*
X-27337500Y8568800D03*
D11*
X-27475000Y10568800D03*
X-29300000Y10568800D03*
D21*
X-23622500Y14118800D03*
X-23622500Y16018800D03*
D11*
X-35287500Y27400000D03*
X-37112500Y27400000D03*
D10*
X-25337500Y10568800D03*
X-23437500Y10568800D03*
D22*
X-20387500Y15568800D03*
X-20387500Y11568800D03*
D23*
X-66500000Y11000000D03*
X-59500000Y11000000D03*
X-59500000Y4000000D03*
X-66500000Y4000000D03*
M02*
