%TF.GenerationSoftware,KiCad,Pcbnew,8.0.5-8.0.5-0~ubuntu24.04.1*%
%TF.CreationDate,2024-10-02T13:28:38+10:00*%
%TF.ProjectId,Touch Keypad,546f7563-6820-44b6-9579-7061642e6b69,rev?*%
%TF.SameCoordinates,PXbebc200PY8b3c880*%
%TF.FileFunction,Drillmap*%
%TF.FilePolarity,Positive*%
%FSLAX45Y45*%
G04 Gerber Fmt 4.5, Leading zero omitted, Abs format (unit mm)*
G04 Created by KiCad (PCBNEW 8.0.5-8.0.5-0~ubuntu24.04.1) date 2024-10-02 13:28:38*
%MOMM*%
%LPD*%
G01*
G04 APERTURE LIST*
%ADD10C,0.050000*%
%ADD11C,0.200000*%
%ADD12C,0.100000*%
G04 APERTURE END LIST*
D10*
X-150000Y11100000D02*
X-6800000Y11100000D01*
X0Y150000D02*
G75*
G02*
X-150000Y0I-150000J0D01*
G01*
X-6850000Y0D02*
X-150000Y0D01*
X-7000000Y10900000D02*
X-7000000Y150000D01*
X-150000Y11100000D02*
G75*
G02*
X0Y10950000I0J-150000D01*
G01*
X0Y150000D02*
X0Y10950000D01*
X-7000000Y10900000D02*
G75*
G02*
X-6800000Y11100000I200000J0D01*
G01*
X-6850000Y0D02*
G75*
G02*
X-7000000Y150000I0J150000D01*
G01*
D11*
D12*
X-4765000Y8865000D02*
X-4735000Y8835000D01*
X-4735000Y8865000D02*
X-4765000Y8835000D01*
X-4765000Y8365000D02*
X-4735000Y8335000D01*
X-4735000Y8365000D02*
X-4765000Y8335000D01*
X-4765000Y6365000D02*
X-4735000Y6335000D01*
X-4735000Y6365000D02*
X-4765000Y6335000D01*
X-4702500Y4302500D02*
X-4672500Y4272500D01*
X-4672500Y4302500D02*
X-4702500Y4272500D01*
X-4265000Y8365000D02*
X-4235000Y8335000D01*
X-4235000Y8365000D02*
X-4265000Y8335000D01*
X-4265000Y6365000D02*
X-4235000Y6335000D01*
X-4235000Y6365000D02*
X-4265000Y6335000D01*
X-3815000Y4602320D02*
X-3785000Y4572320D01*
X-3785000Y4602320D02*
X-3815000Y4572320D01*
X-3589370Y4602320D02*
X-3559370Y4572320D01*
X-3559370Y4602320D02*
X-3589370Y4572320D01*
X-3195000Y2575000D02*
X-3165000Y2545000D01*
X-3165000Y2575000D02*
X-3195000Y2545000D01*
X-2765000Y8865000D02*
X-2735000Y8835000D01*
X-2735000Y8865000D02*
X-2765000Y8835000D01*
X-2765000Y2865000D02*
X-2735000Y2835000D01*
X-2735000Y2865000D02*
X-2765000Y2835000D01*
X-2290000Y4340000D02*
X-2260000Y4310000D01*
X-2260000Y4340000D02*
X-2290000Y4310000D01*
X-2265000Y8865000D02*
X-2235000Y8835000D01*
X-2235000Y8865000D02*
X-2265000Y8835000D01*
X-2265000Y8365000D02*
X-2235000Y8335000D01*
X-2235000Y8365000D02*
X-2265000Y8335000D01*
X-2265000Y6365000D02*
X-2235000Y6335000D01*
X-2235000Y6365000D02*
X-2265000Y6335000D01*
D11*
X-6741723Y-313984D02*
X-6741723Y-113984D01*
X-6741723Y-113984D02*
X-6694104Y-113984D01*
X-6694104Y-113984D02*
X-6665533Y-123508D01*
X-6665533Y-123508D02*
X-6646485Y-142555D01*
X-6646485Y-142555D02*
X-6636961Y-161603D01*
X-6636961Y-161603D02*
X-6627437Y-199698D01*
X-6627437Y-199698D02*
X-6627437Y-228269D01*
X-6627437Y-228269D02*
X-6636961Y-266365D01*
X-6636961Y-266365D02*
X-6646485Y-285412D01*
X-6646485Y-285412D02*
X-6665533Y-304460D01*
X-6665533Y-304460D02*
X-6694104Y-313984D01*
X-6694104Y-313984D02*
X-6741723Y-313984D01*
X-6541723Y-313984D02*
X-6541723Y-180650D01*
X-6541723Y-218746D02*
X-6532199Y-199698D01*
X-6532199Y-199698D02*
X-6522676Y-190174D01*
X-6522676Y-190174D02*
X-6503628Y-180650D01*
X-6503628Y-180650D02*
X-6484580Y-180650D01*
X-6417914Y-313984D02*
X-6417914Y-180650D01*
X-6417914Y-113984D02*
X-6427437Y-123508D01*
X-6427437Y-123508D02*
X-6417914Y-133031D01*
X-6417914Y-133031D02*
X-6408390Y-123508D01*
X-6408390Y-123508D02*
X-6417914Y-113984D01*
X-6417914Y-113984D02*
X-6417914Y-133031D01*
X-6294104Y-313984D02*
X-6313152Y-304460D01*
X-6313152Y-304460D02*
X-6322676Y-285412D01*
X-6322676Y-285412D02*
X-6322676Y-113984D01*
X-6189342Y-313984D02*
X-6208390Y-304460D01*
X-6208390Y-304460D02*
X-6217914Y-285412D01*
X-6217914Y-285412D02*
X-6217914Y-113984D01*
X-5960771Y-313984D02*
X-5960771Y-113984D01*
X-5960771Y-113984D02*
X-5894104Y-256841D01*
X-5894104Y-256841D02*
X-5827437Y-113984D01*
X-5827437Y-113984D02*
X-5827437Y-313984D01*
X-5646485Y-313984D02*
X-5646485Y-209222D01*
X-5646485Y-209222D02*
X-5656009Y-190174D01*
X-5656009Y-190174D02*
X-5675056Y-180650D01*
X-5675056Y-180650D02*
X-5713152Y-180650D01*
X-5713152Y-180650D02*
X-5732199Y-190174D01*
X-5646485Y-304460D02*
X-5665533Y-313984D01*
X-5665533Y-313984D02*
X-5713152Y-313984D01*
X-5713152Y-313984D02*
X-5732199Y-304460D01*
X-5732199Y-304460D02*
X-5741723Y-285412D01*
X-5741723Y-285412D02*
X-5741723Y-266365D01*
X-5741723Y-266365D02*
X-5732199Y-247317D01*
X-5732199Y-247317D02*
X-5713152Y-237793D01*
X-5713152Y-237793D02*
X-5665533Y-237793D01*
X-5665533Y-237793D02*
X-5646485Y-228269D01*
X-5551247Y-180650D02*
X-5551247Y-380650D01*
X-5551247Y-190174D02*
X-5532199Y-180650D01*
X-5532199Y-180650D02*
X-5494104Y-180650D01*
X-5494104Y-180650D02*
X-5475057Y-190174D01*
X-5475057Y-190174D02*
X-5465533Y-199698D01*
X-5465533Y-199698D02*
X-5456009Y-218746D01*
X-5456009Y-218746D02*
X-5456009Y-275889D01*
X-5456009Y-275889D02*
X-5465533Y-294936D01*
X-5465533Y-294936D02*
X-5475057Y-304460D01*
X-5475057Y-304460D02*
X-5494104Y-313984D01*
X-5494104Y-313984D02*
X-5532199Y-313984D01*
X-5532199Y-313984D02*
X-5551247Y-304460D01*
X-5370295Y-294936D02*
X-5360771Y-304460D01*
X-5360771Y-304460D02*
X-5370295Y-313984D01*
X-5370295Y-313984D02*
X-5379818Y-304460D01*
X-5379818Y-304460D02*
X-5370295Y-294936D01*
X-5370295Y-294936D02*
X-5370295Y-313984D01*
X-5370295Y-190174D02*
X-5360771Y-199698D01*
X-5360771Y-199698D02*
X-5370295Y-209222D01*
X-5370295Y-209222D02*
X-5379818Y-199698D01*
X-5379818Y-199698D02*
X-5370295Y-190174D01*
X-5370295Y-190174D02*
X-5370295Y-209222D01*
D12*
X-7032500Y-627500D02*
X-7002500Y-657500D01*
X-7002500Y-627500D02*
X-7032500Y-657500D01*
D11*
X-6703628Y-533984D02*
X-6684580Y-533984D01*
X-6684580Y-533984D02*
X-6665533Y-543508D01*
X-6665533Y-543508D02*
X-6656009Y-553031D01*
X-6656009Y-553031D02*
X-6646485Y-572079D01*
X-6646485Y-572079D02*
X-6636961Y-610174D01*
X-6636961Y-610174D02*
X-6636961Y-657793D01*
X-6636961Y-657793D02*
X-6646485Y-695889D01*
X-6646485Y-695889D02*
X-6656009Y-714936D01*
X-6656009Y-714936D02*
X-6665533Y-724460D01*
X-6665533Y-724460D02*
X-6684580Y-733984D01*
X-6684580Y-733984D02*
X-6703628Y-733984D01*
X-6703628Y-733984D02*
X-6722676Y-724460D01*
X-6722676Y-724460D02*
X-6732199Y-714936D01*
X-6732199Y-714936D02*
X-6741723Y-695889D01*
X-6741723Y-695889D02*
X-6751247Y-657793D01*
X-6751247Y-657793D02*
X-6751247Y-610174D01*
X-6751247Y-610174D02*
X-6741723Y-572079D01*
X-6741723Y-572079D02*
X-6732199Y-553031D01*
X-6732199Y-553031D02*
X-6722676Y-543508D01*
X-6722676Y-543508D02*
X-6703628Y-533984D01*
X-6551247Y-714936D02*
X-6541723Y-724460D01*
X-6541723Y-724460D02*
X-6551247Y-733984D01*
X-6551247Y-733984D02*
X-6560771Y-724460D01*
X-6560771Y-724460D02*
X-6551247Y-714936D01*
X-6551247Y-714936D02*
X-6551247Y-733984D01*
X-6475056Y-533984D02*
X-6351247Y-533984D01*
X-6351247Y-533984D02*
X-6417914Y-610174D01*
X-6417914Y-610174D02*
X-6389342Y-610174D01*
X-6389342Y-610174D02*
X-6370295Y-619698D01*
X-6370295Y-619698D02*
X-6360771Y-629222D01*
X-6360771Y-629222D02*
X-6351247Y-648270D01*
X-6351247Y-648270D02*
X-6351247Y-695889D01*
X-6351247Y-695889D02*
X-6360771Y-714936D01*
X-6360771Y-714936D02*
X-6370295Y-724460D01*
X-6370295Y-724460D02*
X-6389342Y-733984D01*
X-6389342Y-733984D02*
X-6446485Y-733984D01*
X-6446485Y-733984D02*
X-6465533Y-724460D01*
X-6465533Y-724460D02*
X-6475056Y-714936D01*
X-6227437Y-533984D02*
X-6208390Y-533984D01*
X-6208390Y-533984D02*
X-6189342Y-543508D01*
X-6189342Y-543508D02*
X-6179818Y-553031D01*
X-6179818Y-553031D02*
X-6170295Y-572079D01*
X-6170295Y-572079D02*
X-6160771Y-610174D01*
X-6160771Y-610174D02*
X-6160771Y-657793D01*
X-6160771Y-657793D02*
X-6170295Y-695889D01*
X-6170295Y-695889D02*
X-6179818Y-714936D01*
X-6179818Y-714936D02*
X-6189342Y-724460D01*
X-6189342Y-724460D02*
X-6208390Y-733984D01*
X-6208390Y-733984D02*
X-6227437Y-733984D01*
X-6227437Y-733984D02*
X-6246485Y-724460D01*
X-6246485Y-724460D02*
X-6256009Y-714936D01*
X-6256009Y-714936D02*
X-6265533Y-695889D01*
X-6265533Y-695889D02*
X-6275056Y-657793D01*
X-6275056Y-657793D02*
X-6275056Y-610174D01*
X-6275056Y-610174D02*
X-6265533Y-572079D01*
X-6265533Y-572079D02*
X-6256009Y-553031D01*
X-6256009Y-553031D02*
X-6246485Y-543508D01*
X-6246485Y-543508D02*
X-6227437Y-533984D01*
X-6036961Y-533984D02*
X-6017914Y-533984D01*
X-6017914Y-533984D02*
X-5998866Y-543508D01*
X-5998866Y-543508D02*
X-5989342Y-553031D01*
X-5989342Y-553031D02*
X-5979818Y-572079D01*
X-5979818Y-572079D02*
X-5970295Y-610174D01*
X-5970295Y-610174D02*
X-5970295Y-657793D01*
X-5970295Y-657793D02*
X-5979818Y-695889D01*
X-5979818Y-695889D02*
X-5989342Y-714936D01*
X-5989342Y-714936D02*
X-5998866Y-724460D01*
X-5998866Y-724460D02*
X-6017914Y-733984D01*
X-6017914Y-733984D02*
X-6036961Y-733984D01*
X-6036961Y-733984D02*
X-6056009Y-724460D01*
X-6056009Y-724460D02*
X-6065533Y-714936D01*
X-6065533Y-714936D02*
X-6075056Y-695889D01*
X-6075056Y-695889D02*
X-6084580Y-657793D01*
X-6084580Y-657793D02*
X-6084580Y-610174D01*
X-6084580Y-610174D02*
X-6075056Y-572079D01*
X-6075056Y-572079D02*
X-6065533Y-553031D01*
X-6065533Y-553031D02*
X-6056009Y-543508D01*
X-6056009Y-543508D02*
X-6036961Y-533984D01*
X-5884580Y-733984D02*
X-5884580Y-600650D01*
X-5884580Y-619698D02*
X-5875056Y-610174D01*
X-5875056Y-610174D02*
X-5856009Y-600650D01*
X-5856009Y-600650D02*
X-5827437Y-600650D01*
X-5827437Y-600650D02*
X-5808390Y-610174D01*
X-5808390Y-610174D02*
X-5798866Y-629222D01*
X-5798866Y-629222D02*
X-5798866Y-733984D01*
X-5798866Y-629222D02*
X-5789342Y-610174D01*
X-5789342Y-610174D02*
X-5770295Y-600650D01*
X-5770295Y-600650D02*
X-5741723Y-600650D01*
X-5741723Y-600650D02*
X-5722675Y-610174D01*
X-5722675Y-610174D02*
X-5713152Y-629222D01*
X-5713152Y-629222D02*
X-5713152Y-733984D01*
X-5617914Y-733984D02*
X-5617914Y-600650D01*
X-5617914Y-619698D02*
X-5608390Y-610174D01*
X-5608390Y-610174D02*
X-5589342Y-600650D01*
X-5589342Y-600650D02*
X-5560771Y-600650D01*
X-5560771Y-600650D02*
X-5541723Y-610174D01*
X-5541723Y-610174D02*
X-5532199Y-629222D01*
X-5532199Y-629222D02*
X-5532199Y-733984D01*
X-5532199Y-629222D02*
X-5522676Y-610174D01*
X-5522676Y-610174D02*
X-5503628Y-600650D01*
X-5503628Y-600650D02*
X-5475057Y-600650D01*
X-5475057Y-600650D02*
X-5456009Y-610174D01*
X-5456009Y-610174D02*
X-5446485Y-629222D01*
X-5446485Y-629222D02*
X-5446485Y-733984D01*
X-5056009Y-524460D02*
X-5227437Y-781603D01*
X-4798866Y-533984D02*
X-4779818Y-533984D01*
X-4779818Y-533984D02*
X-4760771Y-543508D01*
X-4760771Y-543508D02*
X-4751247Y-553031D01*
X-4751247Y-553031D02*
X-4741723Y-572079D01*
X-4741723Y-572079D02*
X-4732199Y-610174D01*
X-4732199Y-610174D02*
X-4732199Y-657793D01*
X-4732199Y-657793D02*
X-4741723Y-695889D01*
X-4741723Y-695889D02*
X-4751247Y-714936D01*
X-4751247Y-714936D02*
X-4760771Y-724460D01*
X-4760771Y-724460D02*
X-4779818Y-733984D01*
X-4779818Y-733984D02*
X-4798866Y-733984D01*
X-4798866Y-733984D02*
X-4817914Y-724460D01*
X-4817914Y-724460D02*
X-4827437Y-714936D01*
X-4827437Y-714936D02*
X-4836961Y-695889D01*
X-4836961Y-695889D02*
X-4846485Y-657793D01*
X-4846485Y-657793D02*
X-4846485Y-610174D01*
X-4846485Y-610174D02*
X-4836961Y-572079D01*
X-4836961Y-572079D02*
X-4827437Y-553031D01*
X-4827437Y-553031D02*
X-4817914Y-543508D01*
X-4817914Y-543508D02*
X-4798866Y-533984D01*
X-4646485Y-714936D02*
X-4636961Y-724460D01*
X-4636961Y-724460D02*
X-4646485Y-733984D01*
X-4646485Y-733984D02*
X-4656009Y-724460D01*
X-4656009Y-724460D02*
X-4646485Y-714936D01*
X-4646485Y-714936D02*
X-4646485Y-733984D01*
X-4513152Y-533984D02*
X-4494104Y-533984D01*
X-4494104Y-533984D02*
X-4475056Y-543508D01*
X-4475056Y-543508D02*
X-4465533Y-553031D01*
X-4465533Y-553031D02*
X-4456009Y-572079D01*
X-4456009Y-572079D02*
X-4446485Y-610174D01*
X-4446485Y-610174D02*
X-4446485Y-657793D01*
X-4446485Y-657793D02*
X-4456009Y-695889D01*
X-4456009Y-695889D02*
X-4465533Y-714936D01*
X-4465533Y-714936D02*
X-4475056Y-724460D01*
X-4475056Y-724460D02*
X-4494104Y-733984D01*
X-4494104Y-733984D02*
X-4513152Y-733984D01*
X-4513152Y-733984D02*
X-4532199Y-724460D01*
X-4532199Y-724460D02*
X-4541723Y-714936D01*
X-4541723Y-714936D02*
X-4551247Y-695889D01*
X-4551247Y-695889D02*
X-4560771Y-657793D01*
X-4560771Y-657793D02*
X-4560771Y-610174D01*
X-4560771Y-610174D02*
X-4551247Y-572079D01*
X-4551247Y-572079D02*
X-4541723Y-553031D01*
X-4541723Y-553031D02*
X-4532199Y-543508D01*
X-4532199Y-543508D02*
X-4513152Y-533984D01*
X-4256009Y-733984D02*
X-4370294Y-733984D01*
X-4313152Y-733984D02*
X-4313152Y-533984D01*
X-4313152Y-533984D02*
X-4332199Y-562555D01*
X-4332199Y-562555D02*
X-4351247Y-581603D01*
X-4351247Y-581603D02*
X-4370294Y-591127D01*
X-4065532Y-733984D02*
X-4179818Y-733984D01*
X-4122675Y-733984D02*
X-4122675Y-533984D01*
X-4122675Y-533984D02*
X-4141723Y-562555D01*
X-4141723Y-562555D02*
X-4160771Y-581603D01*
X-4160771Y-581603D02*
X-4179818Y-591127D01*
X-3951247Y-619698D02*
X-3970294Y-610174D01*
X-3970294Y-610174D02*
X-3979818Y-600650D01*
X-3979818Y-600650D02*
X-3989342Y-581603D01*
X-3989342Y-581603D02*
X-3989342Y-572079D01*
X-3989342Y-572079D02*
X-3979818Y-553031D01*
X-3979818Y-553031D02*
X-3970294Y-543508D01*
X-3970294Y-543508D02*
X-3951247Y-533984D01*
X-3951247Y-533984D02*
X-3913151Y-533984D01*
X-3913151Y-533984D02*
X-3894104Y-543508D01*
X-3894104Y-543508D02*
X-3884580Y-553031D01*
X-3884580Y-553031D02*
X-3875056Y-572079D01*
X-3875056Y-572079D02*
X-3875056Y-581603D01*
X-3875056Y-581603D02*
X-3884580Y-600650D01*
X-3884580Y-600650D02*
X-3894104Y-610174D01*
X-3894104Y-610174D02*
X-3913151Y-619698D01*
X-3913151Y-619698D02*
X-3951247Y-619698D01*
X-3951247Y-619698D02*
X-3970294Y-629222D01*
X-3970294Y-629222D02*
X-3979818Y-638746D01*
X-3979818Y-638746D02*
X-3989342Y-657793D01*
X-3989342Y-657793D02*
X-3989342Y-695889D01*
X-3989342Y-695889D02*
X-3979818Y-714936D01*
X-3979818Y-714936D02*
X-3970294Y-724460D01*
X-3970294Y-724460D02*
X-3951247Y-733984D01*
X-3951247Y-733984D02*
X-3913151Y-733984D01*
X-3913151Y-733984D02*
X-3894104Y-724460D01*
X-3894104Y-724460D02*
X-3884580Y-714936D01*
X-3884580Y-714936D02*
X-3875056Y-695889D01*
X-3875056Y-695889D02*
X-3875056Y-657793D01*
X-3875056Y-657793D02*
X-3884580Y-638746D01*
X-3884580Y-638746D02*
X-3894104Y-629222D01*
X-3894104Y-629222D02*
X-3913151Y-619698D01*
X-3798866Y-533984D02*
X-3798866Y-572079D01*
X-3722675Y-533984D02*
X-3722675Y-572079D01*
X-3427437Y-810174D02*
X-3436961Y-800650D01*
X-3436961Y-800650D02*
X-3456009Y-772079D01*
X-3456009Y-772079D02*
X-3465532Y-753031D01*
X-3465532Y-753031D02*
X-3475056Y-724460D01*
X-3475056Y-724460D02*
X-3484580Y-676841D01*
X-3484580Y-676841D02*
X-3484580Y-638746D01*
X-3484580Y-638746D02*
X-3475056Y-591127D01*
X-3475056Y-591127D02*
X-3465532Y-562555D01*
X-3465532Y-562555D02*
X-3456009Y-543508D01*
X-3456009Y-543508D02*
X-3436961Y-514936D01*
X-3436961Y-514936D02*
X-3427437Y-505412D01*
X-3246485Y-733984D02*
X-3360770Y-733984D01*
X-3303628Y-733984D02*
X-3303628Y-533984D01*
X-3303628Y-533984D02*
X-3322675Y-562555D01*
X-3322675Y-562555D02*
X-3341723Y-581603D01*
X-3341723Y-581603D02*
X-3360770Y-591127D01*
X-3065532Y-533984D02*
X-3160770Y-533984D01*
X-3160770Y-533984D02*
X-3170294Y-629222D01*
X-3170294Y-629222D02*
X-3160770Y-619698D01*
X-3160770Y-619698D02*
X-3141723Y-610174D01*
X-3141723Y-610174D02*
X-3094104Y-610174D01*
X-3094104Y-610174D02*
X-3075056Y-619698D01*
X-3075056Y-619698D02*
X-3065532Y-629222D01*
X-3065532Y-629222D02*
X-3056009Y-648270D01*
X-3056009Y-648270D02*
X-3056009Y-695889D01*
X-3056009Y-695889D02*
X-3065532Y-714936D01*
X-3065532Y-714936D02*
X-3075056Y-724460D01*
X-3075056Y-724460D02*
X-3094104Y-733984D01*
X-3094104Y-733984D02*
X-3141723Y-733984D01*
X-3141723Y-733984D02*
X-3160770Y-724460D01*
X-3160770Y-724460D02*
X-3170294Y-714936D01*
X-2817913Y-733984D02*
X-2817913Y-533984D01*
X-2732199Y-733984D02*
X-2732199Y-629222D01*
X-2732199Y-629222D02*
X-2741723Y-610174D01*
X-2741723Y-610174D02*
X-2760770Y-600650D01*
X-2760770Y-600650D02*
X-2789342Y-600650D01*
X-2789342Y-600650D02*
X-2808389Y-610174D01*
X-2808389Y-610174D02*
X-2817913Y-619698D01*
X-2608390Y-733984D02*
X-2627437Y-724460D01*
X-2627437Y-724460D02*
X-2636961Y-714936D01*
X-2636961Y-714936D02*
X-2646485Y-695889D01*
X-2646485Y-695889D02*
X-2646485Y-638746D01*
X-2646485Y-638746D02*
X-2636961Y-619698D01*
X-2636961Y-619698D02*
X-2627437Y-610174D01*
X-2627437Y-610174D02*
X-2608390Y-600650D01*
X-2608390Y-600650D02*
X-2579818Y-600650D01*
X-2579818Y-600650D02*
X-2560770Y-610174D01*
X-2560770Y-610174D02*
X-2551247Y-619698D01*
X-2551247Y-619698D02*
X-2541723Y-638746D01*
X-2541723Y-638746D02*
X-2541723Y-695889D01*
X-2541723Y-695889D02*
X-2551247Y-714936D01*
X-2551247Y-714936D02*
X-2560770Y-724460D01*
X-2560770Y-724460D02*
X-2579818Y-733984D01*
X-2579818Y-733984D02*
X-2608390Y-733984D01*
X-2427437Y-733984D02*
X-2446485Y-724460D01*
X-2446485Y-724460D02*
X-2456009Y-705412D01*
X-2456009Y-705412D02*
X-2456009Y-533984D01*
X-2275056Y-724460D02*
X-2294104Y-733984D01*
X-2294104Y-733984D02*
X-2332199Y-733984D01*
X-2332199Y-733984D02*
X-2351247Y-724460D01*
X-2351247Y-724460D02*
X-2360770Y-705412D01*
X-2360770Y-705412D02*
X-2360770Y-629222D01*
X-2360770Y-629222D02*
X-2351247Y-610174D01*
X-2351247Y-610174D02*
X-2332199Y-600650D01*
X-2332199Y-600650D02*
X-2294104Y-600650D01*
X-2294104Y-600650D02*
X-2275056Y-610174D01*
X-2275056Y-610174D02*
X-2265532Y-629222D01*
X-2265532Y-629222D02*
X-2265532Y-648270D01*
X-2265532Y-648270D02*
X-2360770Y-667317D01*
X-2189342Y-724460D02*
X-2170294Y-733984D01*
X-2170294Y-733984D02*
X-2132199Y-733984D01*
X-2132199Y-733984D02*
X-2113151Y-724460D01*
X-2113151Y-724460D02*
X-2103628Y-705412D01*
X-2103628Y-705412D02*
X-2103628Y-695889D01*
X-2103628Y-695889D02*
X-2113151Y-676841D01*
X-2113151Y-676841D02*
X-2132199Y-667317D01*
X-2132199Y-667317D02*
X-2160770Y-667317D01*
X-2160770Y-667317D02*
X-2179818Y-657793D01*
X-2179818Y-657793D02*
X-2189342Y-638746D01*
X-2189342Y-638746D02*
X-2189342Y-629222D01*
X-2189342Y-629222D02*
X-2179818Y-610174D01*
X-2179818Y-610174D02*
X-2160770Y-600650D01*
X-2160770Y-600650D02*
X-2132199Y-600650D01*
X-2132199Y-600650D02*
X-2113151Y-610174D01*
X-2036961Y-810174D02*
X-2027437Y-800650D01*
X-2027437Y-800650D02*
X-2008389Y-772079D01*
X-2008389Y-772079D02*
X-1998866Y-753031D01*
X-1998866Y-753031D02*
X-1989342Y-724460D01*
X-1989342Y-724460D02*
X-1979818Y-676841D01*
X-1979818Y-676841D02*
X-1979818Y-638746D01*
X-1979818Y-638746D02*
X-1989342Y-591127D01*
X-1989342Y-591127D02*
X-1998866Y-562555D01*
X-1998866Y-562555D02*
X-2008389Y-543508D01*
X-2008389Y-543508D02*
X-2027437Y-514936D01*
X-2027437Y-514936D02*
X-2036961Y-505412D01*
M02*
